<?xml version="1.0" standalone="no"?>
<!DOCTYPE svg PUBLIC "-//W3C//DTD SVG 1.1//EN" "http://www.w3.org/Graphics/SVG/1.1/DTD/svg11.dtd" >
<svg xmlns="http://www.w3.org/2000/svg">
<metadata></metadata>
<defs>
<font id="flaemische_kanzleischriftRg" horiz-adv-x="872" >
<font-face units-per-em="2048" ascent="1638" descent="-410" />
<missing-glyph horiz-adv-x="552" />
<glyph horiz-adv-x="2048" />
<glyph horiz-adv-x="2048" />
<glyph horiz-adv-x="682" />
<glyph unicode="&#xd;" horiz-adv-x="483" d="M-137 92q0 -121 127 -121q137 0 538 475l-16 15q-74 -90 -227 -246q-201 -203 -248 -203t-47 54q0 37 18 77l260 496q-8 -2 -41 -33q-29 -29 -37 -28q-6 0 -26.5 9t-42.5 9q-31 0 -55 -43q-41 -76 -73 -132t-54 -95q-76 -139 -76 -234z" />
<glyph horiz-adv-x="348" d="M-367 -76q0 -12 11 -12q8 0 16 14q29 53 43 54q72 0 109 94q55 141 381 622q154 223 271.5 384t203.5 263l-35 5q-283 -319 -496 -597t-360 -520q-143 -229 -144 -307z" />
<glyph horiz-adv-x="907" d="M-918 -526q0 -82 58.5 -133.5t144.5 -51.5q160 0 312 164q141 154 327 504q68 137 135.5 273.5t137.5 273.5h145l20 37h-112q168 88 325 258q185 198 185 360q0 29 -25.5 52.5t-54.5 23.5q-125 0 -346 -283q-70 -90 -138.5 -192.5t-136.5 -218.5h-122l-21 -37h121 q-55 -102 -129 -252t-168 -348q-150 -322 -223 -428q-115 -164 -232 -164q-66 0 -116 39q-57 39 -58 104q0 45 31 105q33 68 76 67q43 0 43 -53q0 -25 -64 -33q31 -53 68 -53q43 0 77.5 26.5t34.5 69.5q0 41 -29.5 73t-70.5 32q-80 0 -137 -68q-57 -66 -58 -147zM219 541 q66 147 209 385q168 276 217 276q35 0 35 -59q0 -96 -98 -240q-127 -188 -363 -362zM285 92q0 -121 127 -121q139 0 540 475l-16 15q-74 -90 -227 -246q-201 -203 -248 -203q-49 0 -49 54q0 43 20 77l281 496q-8 -2 -41 -33q-29 -29 -37 -28q-6 0 -26.5 9t-43.5 9 q-31 0 -55 -43q-47 -76 -82 -132t-57 -95q-86 -145 -86 -234zM672 815q0 -33 22.5 -56.5t55.5 -23.5q41 0 70.5 37t29.5 80q0 31 -21.5 50.5t-52.5 19.5q-43 0 -73.5 -32t-30.5 -75z" />
<glyph horiz-adv-x="907" d="M-918 -526q0 -82 58.5 -133.5t144.5 -51.5q160 0 312 164q141 154 327 504q68 137 135.5 273.5t137.5 273.5h145l20 37h-112q168 88 325 258q185 198 185 360q0 29 -25.5 52.5t-54.5 23.5q-125 0 -346 -283q-70 -90 -138.5 -192.5t-136.5 -218.5h-122l-21 -37h121 q-55 -102 -129 -252t-168 -348q-150 -322 -223 -428q-115 -164 -232 -164q-66 0 -116 39q-57 39 -58 104q0 45 31 105q33 68 76 67q43 0 43 -53q0 -25 -64 -33q31 -53 68 -53q43 0 77.5 26.5t34.5 69.5q0 41 -29.5 73t-70.5 32q-80 0 -137 -68q-57 -66 -58 -147zM219 541 q66 147 209 385q168 276 217 276q35 0 35 -59q0 -96 -98 -240q-127 -188 -363 -362zM338 141q0 -72 27 -116q33 -55 96 -54q152 8 295 174q82 94 196 301l-16 15q-74 -141 -176 -268q-143 -180 -244 -181q-43 0 -43 49q0 102 64 244q33 72 57 127t41 90q272 156 450 424 q140 211 144 332q0 27 -18.5 50.5t-45.5 23.5q-113 0 -362 -318q-92 -117 -164 -222t-127 -204q-174 -303 -174 -467zM678 590q68 182 227.5 450.5t206.5 268.5q29 0 29 -43q0 -98 -135 -320q-158 -256 -328 -356z" />
<glyph horiz-adv-x="2002" d="M8 131q0 -96 103 -143q76 -37 186 -37q125 0 319 115q88 -45 155 -75t114 -46q141 -49 291 -49q250 0 456 145q231 164 232 403q0 176 -178 281l-13 -23q158 -117 158 -258q0 -219 -199 -325q-158 -84 -397 -84q-233 0 -510 96q74 98 123 174t76 129q14 31 24 64l324 110 l-23 68l-276 -94q10 35 18 75.5t17 87.5q205 84 346 232q166 172 166 371q0 143 -162 143q-78 0 -172 -74q-78 -59 -135 -135q-96 -127 -123 -184q-29 -59 -60.5 -157.5t-64.5 -235.5q-104 -61 -211 -62q-172 0 -287 133q-111 125 -110 301q0 229 172 377q164 139 395 139 q16 0 60 -4t118 -12q-66 37 -178 37q-242 0 -412 -146q-176 -152 -176 -391q0 -184 117 -319q119 -135 301 -135q74 0 203 49q-14 -53 -27.5 -95t-24.5 -75l-337 -117l24 -68l283 99q-33 -84 -123 -236q-213 113 -338 113q-86 0 -156 -39q-88 -45 -88 -123zM35 131 q0 53 61 94q57 35 113 35q119 0 346 -147q-53 -51 -139 -93q-86 -39 -162 -38q-76 0 -141 34q-78 43 -78 115zM1006 780q0 190 86 412q106 279 266 278q135 1 135 -122q0 -152 -172 -338q-158 -170 -315 -230z" />
<glyph horiz-adv-x="479" d="M-227 434l24 -67l203 71q-84 -186 -84 -297q0 -72 27 -116q33 -57 94 -54q150 8 295 176q41 47 89 121t105 178l-16 15q-74 -137 -176 -268q-143 -180 -242 -181q-43 0 -43 49q0 100 64 246q31 68 53 118t39 83l432 149l-23 68l-221 -76q154 125 269 297q139 211 143 332 q0 27 -18.5 50.5t-45.5 23.5q-113 0 -362 -318q-92 -117 -164 -222t-127 -204l-43 -80zM258 602q72 182 223 438q160 268 207 269q29 0 29 -43q0 -125 -158 -355q-145 -213 -266 -297z" />
<glyph horiz-adv-x="1384" d="M-141 -547q0 -106 102 -160q76 -39 197 -38q207 0 420 165q233 182 270 426l137 -26l2 18l-141 33q-4 74 -31 137q-35 76 -117 111q160 113 279 209t197 174q274 278 274 520q0 145 -121 242q-109 86 -262 90q-152 2 -338 -99q-35 6 -55 7q-74 0 -228 -50 q-92 -29 -196 -122q-160 -145 -240 -369q0 6 15 -8q66 188 180 311q197 215 461 215h20t21 -2q0 8 -134 -94q-383 -291 -383 -563q0 -102 68 -178t170 -76q203 0 350 249q131 217 131 435q0 154 -147 237q43 29 129 57.5t133 28.5q104 0 162.5 -66.5t58.5 -170.5 q0 -225 -250 -547q-109 -139 -375 -406q-344 -10 -344 -114q0 -55 80 -56q70 0 314 125q31 0 51 -45q23 -45 22 -76q0 -29 -20 -83l-90 -3q-39 -2 -66 -2h-41q-203 0 -418 -116q-248 -135 -247 -320zM-127 -547q0 139 190 273q211 147 492 147q45 0 84 -1t74 -3 q-45 -201 -293 -365q-229 -150 -438 -149q-109 0 -109 98zM207 580q0 305 526 655q156 -63 156 -225q0 -203 -127 -420q-145 -246 -336 -246q-90 0 -156 72q-63 70 -63 164zM311 27q0 49 105 71q20 4 43.5 6t52.5 5q25 2 39 0.5t18 -3.5q-164 -109 -219 -108q-39 0 -39 29z M1065 2003q0 -6 6 -27l68 -243q6 -23 26 -23l133 92q66 47 103 71.5t45 29t23.5 14.5t37.5 25q74 45 74 61q0 18 -22 18q-29 0 -123 -51l-240 -127q-16 35 -29 58q-61 125 -86 124q-16 0 -16 -22z" />
<glyph horiz-adv-x="638" d="M-537 -551q0 -74 46.5 -114t119.5 -40q195 0 351 146q154 143 153 338q0 88 -10 133q313 149 563 534l-16 15q-281 -393 -559 -529q-10 39 -56 93q86 27 191 143q129 143 129 297q0 61 -39 105t-98 44q-137 0 -238 -198v-35q86 121 145 121q74 0 74 -72q0 -96 -72 -229 q-61 -115 -110 -154q-66 37 -131 37q-27 0 -54.5 -15.5t-27.5 -39.5q0 -49 74 -49q41 0 112 26q12 -31 13 -112q-190 -51 -349 -154q-211 -135 -211 -291zM-483 -598q0 139 192 295q167 135 314 172q0 -141 -132 -340q-145 -213 -276 -213q-39 0 -68.5 24.5t-29.5 61.5z M-150 29q0 39 56 37q45 -4 92 -39q-72 -31 -100 -29q-47 4 -48 31zM145 1059q0 -6 7 -27l67 -244q10 -23 27 -22l133 92q66 47 102.5 71.5t45 29t23.5 14.5t38 24q74 45 74 62q0 18 -23 18q-29 0 -123 -51l-240 -127q-8 16 -15 31.5t-11 25.5q-61 125 -88 125q-16 0 -17 -22 z" />
<glyph unicode=" "  horiz-adv-x="552" />
<glyph unicode="&#x09;" horiz-adv-x="552" />
<glyph unicode="&#xa0;" horiz-adv-x="552" />
<glyph unicode="!" horiz-adv-x="671" d="M-4 82q0 -100 84 -100q47 0 83 36.5t36 83.5q0 102 -86 103q-47 0 -82 -38t-35 -85zM250 369h22q137 227 222 344q84 121 133 192.5t65 95.5q150 232 150 312t-54 80q-51 0 -108 -74q-23 -29 -39 -58.5t-31 -62.5q-92 -223 -166.5 -398t-132.5 -306q-23 -47 -37 -78 t-24 -47z" />
<glyph unicode="&#x22;" horiz-adv-x="446" d="M260 1008q0 -12 19 -15q41 0 94 60q104 112 104 225q0 39 -26.5 66.5t-65.5 27.5q-47 0 -81 -39t-34 -86q0 -61 80 -100q14 -6 15 -27q0 -37 -64 -82l-29 -14q-12 -6 -12 -16zM467 1008q0 -12 18 -15q41 0 95 60q104 112 104 225q0 39 -26.5 66.5t-65.5 27.5 q-47 0 -81 -39t-34 -86q0 -61 80 -100q14 -6 14 -27q0 -37 -63 -82l-29 -14q-12 -6 -12 -16z" />
<glyph unicode="#" horiz-adv-x="1013" d="M-100 0h43l204 375h246l-207 -375h43l207 375h207l70 123h-209l127 227h207l69 123h-209l183 332h-45l-183 -332h-243l182 332h-45l-182 -332h-197l-68 -123h197l-125 -227h-197l-67 -123h196zM215 498l127 227h244l-127 -227h-244z" />
<glyph unicode="$" horiz-adv-x="757" d="M-23 418q0 -119 109 -197l-106 -203l32 -12l107 199q49 -12 119 -12q119 0 192.5 68.5t73.5 187.5q0 88 -33 155l-63 137q-35 80 -35 146q0 53 36.5 89t90.5 36q47 0 80.5 -28t33.5 -75q0 -59 -49 -59q-23 0 -63 22q-2 -10 -2 -45q0 -76 78 -75q47 0 78.5 36.5t31.5 83.5 q0 55 -37 100.5t-92 61.5l64 121l-29 12l-68 -125q-6 2 -39 2q-106 0 -178 -59q-76 -63 -76 -170q0 -55 21 -110l68 -187q33 -86 32 -119q0 -61 -55 -110q-53 -49 -115 -49q-70 0 -119 44t-49 111q0 25 8.5 51.5t22.5 48t34.5 35t45.5 13.5q51 0 51 -43q0 -41 -72 -51 q47 -72 91 -72q41 0 70.5 34.5t29.5 75.5q0 55 -41 91t-98 36q-37 0 -70 -16t-57.5 -44t-39 -63.5t-14.5 -72.5z" />
<glyph unicode="%" horiz-adv-x="1032" d="M-121 -78l25 -2q25 57 51 57h25q23 0 38 13q49 88 91.5 153.5t76.5 106.5q172 207 315.5 398.5t262.5 371.5q242 131 242 207q0 35 -41 35q-92 0 -246 -220q-41 -16 -85 -26t-95 -15q10 51 10 95q0 119 -98 118q-117 0 -228 -139q-104 -133 -104 -250q0 -57 39 -100 t94 -43q86 0 176 102q70 82 104 183l150 26q-98 -127 -197.5 -248.5t-205.5 -242.5q-41 -47 -76 -85t-64 -67q-106 -109 -159.5 -199t-100.5 -229zM240 784q0 100 112 295q25 -55 49 -73q30 -19 91 -33q-29 -100 -103 -178q-66 -66 -98 -66q-51 0 -51 55zM348 170 q0 -59 37 -105.5t94 -46.5q121 0 215 150q86 135 86 260t-110 125q-109 0 -215 -137q-106 -133 -107 -246zM397 1090q0 29 18.5 51t45.5 22q53 1 53 -69q0 -35 -16 -88q-100 6 -101 84zM467 123q0 90 74 231q80 152 147 152q53 0 53 -100q0 -84 -75 -209q-80 -135 -156 -136 q-43 0 -43 62zM793 1073q106 160 159 160q19 0 19 -16q0 -39 -178 -144z" />
<glyph unicode="&#x26;" horiz-adv-x="1748" d="M14 512q0 -121 107 -203q94 -76 221 -76q55 0 129 19q51 -129 193 -205q131 -66 278 -65q188 0 326 106q145 121 145 303q0 55 -18.5 104.5t-52 86t-79.5 59.5t-102 27q125 57 216 98t149 68q250 114 250 288q0 74 -76 148l-14 -15q53 -72 53 -131q0 -125 -197 -217 q-25 -10 -99.5 -35.5t-203.5 -64.5q-393 -123 -412 -334q-43 -16 -81.5 -35.5t-73.5 -42.5q-2 12 -2 25v24q0 143 90 265q94 129 237 129q25 0 50.5 -2t54.5 -7l-6 23q-63 45 -88 87t-25 114q0 129 92 221q94 94 223 94q72 0 126.5 -37t54.5 -106q0 -55 -40 -96.5t-96 -41.5 q-74 0 -124 76l-33 -4q57 -104 155 -104q33 0 65 14t54.5 36.5t36.5 53.5t14 66q0 104 -110 170q-94 53 -205 53q-160 0 -266 -88q-117 -96 -117 -248q0 -94 72 -190q-203 0 -328 -138q-125 -133 -125 -335q0 -63 19 -150q-31 -4 -55.5 -7t-43.5 -3q-109 0 -178 86 q-68 80 -68 190q0 10 1.5 31.5t3.5 54.5q-49 -4 -74 -49q-23 -39 -23 -90zM680 348q53 33 90 54.5t59 31.5q4 -98 72 -156.5t166 -58.5q70 0 123 39t53 107q0 33 -15.5 63.5t-40 53t-57 35.5t-67.5 13q-33 0 -117 -20q45 63 76 86q43 31 106 31q104 0 173 -67t69 -171 q0 -141 -100 -242q-102 -102 -240 -102q-121 0 -229 90q-104 92 -121 213zM920 395q0 35 10 72q84 33 127 33q57 0 98 -36t41 -91q0 -51 -38 -86t-89 -35q-66 0 -107.5 39t-41.5 104z" />
<glyph unicode="'" horiz-adv-x="0" d="M63 1008q0 -12 19 -15q41 0 94 60q105 112 105 225q0 39 -27 66.5t-66 27.5q-47 0 -80.5 -39t-33.5 -86q0 -61 80 -100q14 -6 14 -27q0 -37 -64 -82l-28 -14q-12 -6 -13 -16z" />
<glyph unicode="(" horiz-adv-x="696" d="M231 299q0 -207 84 -397q43 -96 129 -215q113 -154 183 -154q23 0 22 33q0 8 -104 131q-100 119 -139 240q-35 111 -35 272q0 377 207 729q125 211 294 365q86 80 246 186q103 67 103 100q0 16 -41 17q-43 0 -230 -138q-248 -180 -452 -428q-266 -322 -267 -741z" />
<glyph unicode=")" horiz-adv-x="696" d="M-332 -451q0 -16 41 -16q43 0 230 137q246 180 450 426q266 322 266 742q0 207 -84 399q-43 94 -129 215q-115 154 -182 154q-23 0 -22 -33q0 -8 104 -131q100 -119 139 -240q35 -115 35 -274q0 -377 -207 -729q-123 -207 -295 -363q-90 -84 -243 -186 q-102 -68 -103 -101z" />
<glyph unicode="*" horiz-adv-x="548" d="M258 881q0 -51 55 -52q47 0 95 62q53 72 90 72q10 0 4 -29q0 -6 -5 -17.5t-10.5 -23.5t-9.5 -23.5t-4 -17.5q0 -55 57 -55q35 0 64 22.5t29 54.5q0 14 -60 80q-16 16 -14 29q2 20 20 21q20 0 58.5 -11.5t58.5 -11.5q39 0 75 19.5t36 56.5q0 49 -56 49q-37 0 -75 -27 q-63 -45 -88 -45q-6 0 -11 4q-6 8 64 60q72 66 71 92q0 49 -59 49q-49 0 -80 -45q-4 -20 -9 -40.5t-9 -43.5q-16 -66 -29 -72q-10 -6 -29 39q-6 14 -12 27.5t-10 28.5q-16 25 -49 24q-33 0 -60.5 -19.5t-27.5 -52.5q0 -37 39 -51q8 -2 23.5 -5t39.5 -7q33 -2 33 -16 q0 -27 -129 -54q-76 -14 -76 -71z" />
<glyph unicode="+" horiz-adv-x="688" d="M-4 535h178l-141 -252h143l141 252h189l31 30h-203l141 250h-143l-142 -250h-165z" />
<glyph unicode="," horiz-adv-x="499" d="M43 -158q0 -12 18 -14q41 0 95 59q104 113 104 224q0 39 -26.5 66.5t-65.5 27.5q-47 0 -81 -39t-34 -86q0 -61 80 -98q14 -6 14 -27q0 -37 -63 -82l-29 -14q-12 -6 -12 -17z" />
<glyph unicode="-" horiz-adv-x="548" d="M37 309q0 -12 12 -12q10 0 30.5 7t31.5 7q33 0 104 -12q35 -4 61.5 -7t42.5 -3q88 0 132 45q28 32 28 55q0 12 -8 12q-12 0 -49 -7t-60 -7q-12 0 -32.5 2t-43 5t-44 6t-33.5 3q-47 0 -121 -43q-51 -31 -51 -51z" />
<glyph unicode="." horiz-adv-x="499" d="M37 82q0 -100 86 -100q47 0 83 36.5t36 83.5q0 102 -86 103q-47 0 -83 -38t-36 -85z" />
<glyph unicode="/" horiz-adv-x="737" d="M-182 -76q0 -12 10 -12q8 0 16 14q29 53 43 54q72 0 109 94q51 141 381 622q154 223 271.5 384t203.5 263l-35 5q-283 -319 -495.5 -597t-360.5 -520q-143 -229 -143 -307z" />
<glyph unicode="0" horiz-adv-x="1069" d="M-70 252q0 -55 20.5 -104.5t55.5 -85t84 -56t105 -20.5q199 0 393 176q166 154 280 383q121 247 121 456q0 117 -70.5 177.5t-187.5 60.5q-193 0 -389 -178q-164 -147 -283 -369q-129 -244 -129 -440zM59 141q0 131 129 400q94 197 234 393q199 283 317 283 q109 0 109 -160q0 -162 -133 -439q-57 -121 -117.5 -220t-124.5 -179q-164 -207 -285 -207q-49 0 -89 40t-40 89z" />
<glyph unicode="1" horiz-adv-x="612" d="M-186 -133q49 49 71 80q29 -2 51.5 -3t38.5 -1q37 0 45 8q8 6 58 135q63 170 117 281q41 86 110.5 199.5t169.5 258.5q178 258 178 262q0 10 -10 11q-51 0 -293 -232q-201 -190 -246 -252l48 23q180 170 202 170q6 0 -149 -203q-233 -305 -307 -485q-16 -37 -37 -99.5 t-47 -152.5z" />
<glyph unicode="2" horiz-adv-x="927" d="M-319 -20v-7q4 -12 14 -14q-18 0 90 18q104 18 158 19q23 0 57.5 -5t79.5 -16q96 -23 141 -22q94 0 203 78q117 86 117 176q0 14 -2 20q-137 -113 -215 -112q-43 0 -135.5 18.5t-143.5 18.5q-39 0 -104 -15q-72 -12 -107 -12q0 27 92 98q53 41 96.5 70t77.5 43 q94 39 164 66.5t117 46.5q203 82 309 165q162 129 162 295q0 123 -70.5 196t-193.5 73q-131 0 -248 -86q-129 -92 -129 -220q0 -68 40 -111.5t107 -43.5q53 0 91 32.5t38 84.5q0 96 -84 96q-10 0 -30 -4q0 -8 8 -31t8 -35q0 -18 -17.5 -33.5t-35.5 -15.5q-37 0 -59.5 30.5 t-22.5 67.5q0 90 78 158q80 68 170 68q76 0 132 -46.5t56 -119.5q0 -92 -90 -226q-66 -98 -162 -188q-59 -55 -264 -162q-209 -106 -287 -176q-207 -182 -206 -237z" />
<glyph unicode="3" horiz-adv-x="995" d="M-121 184q0 -55 20.5 -102t57.5 -81t85 -52.5t103 -18.5q195 0 359 133q172 143 172 336q0 111 -64.5 190t-175.5 91l627 444q-109 -49 -172 -49q-55 0 -159.5 24.5t-156.5 24.5q-193 0 -317 -209l109 41q78 29 137 31q61 4 250 -49l-539 -373q0 -14 31 -14q-2 0 45 24 q47 27 82 27q57 0 100 -32.5t43 -90.5q0 -141 -123 -297q-135 -174 -297 -174q-86 0 -139 44t-53 126q0 61 34.5 106.5t92.5 45.5q61 0 61 -66q0 -31 -69 -49q27 -57 73 -57q49 0 81 33.5t32 82.5q0 53 -41 94.5t-94 41.5q-78 0 -137 -72q-57 -70 -58 -154z" />
<glyph unicode="4" horiz-adv-x="968" d="M-86 338q0 -61 170 -66l207 -6q-35 -61 -57.5 -98t-30.5 -51q-74 -125 -86 -207q27 23 46 41t30 35q68 -20 104 -21q23 0 76 117q20 47 39.5 92t36.5 86q39 0 118 -6q41 -2 70 -3t49 -1q16 33 28.5 56.5t18.5 39.5l-264 -20q356 604 348 604q-16 0 -53 -41 q-199 -219 -326 -402q-39 -59 -67.5 -102t-48.5 -72l-150 -8q-49 -2 -113 6q-86 14 -86 45q0 70 258 252q236 166 363 255t147 106q137 106 166 184q6 18 4 45l-57 -51l-115 6q-86 -96 -150.5 -164.5t-105.5 -114.5q-80 -82 -366 -319q-203 -170 -203 -217z" />
<glyph unicode="5" horiz-adv-x="923" d="M-164 178q0 -104 82 -168q76 -57 180 -57q221 0 402 164q180 162 180 385q0 111 -70 198q-78 96 -180 97q-96 0 -190 -41l127 219q78 59 147 59q23 0 56.5 -2t78.5 -6q47 -4 81 -6t56 -2q18 0 66 33q37 23 76 65q53 53 53 80q0 8 -6 8q-2 0 -76 -34.5t-115 -34.5 q-29 0 -90 20q-68 23 -106 23q-57 0 -115.5 -31t-85.5 -78l-217 -379q-43 -76 -25 -76q-6 0 66 72q70 74 133 74q78 0 125 -54.5t47 -134.5q0 -147 -137 -352q-150 -223 -305 -223q-88 0 -148 41q-63 49 -63 139q0 51 35.5 96t87.5 45q70 0 69 -59q0 -47 -59 -57 q23 -59 63 -60q45 0 76 33t31 78q0 55 -41 95t-96 40q-76 0 -135 -65q-57 -63 -58 -144z" />
<glyph unicode="6" horiz-adv-x="985" d="M-41 231q0 -117 82 -198q82 -80 199 -80q190 0 350 184q154 178 153 373q0 102 -61 180q-66 84 -166 84q-98 0 -192 -59q250 489 462 489q135 0 136 -92q0 -80 -62 -80q-25 0 -57 43q-31 -10 -31 -43q0 -39 27.5 -66.5t66.5 -27.5q53 0 94 39t41 92q0 72 -73 119 q-63 39 -142 39q-307 0 -573 -350q-109 -143 -176 -306q-78 -190 -78 -340zM104 109q0 84 46 227q119 395 323 395q129 0 129 -135q0 -133 -127 -363q-139 -244 -256 -243q-115 0 -115 119z" />
<glyph unicode="7" horiz-adv-x="892" d="M-205 -51q-4 -16 0 -19q84 96 137 90q10 -2 36 -11t32 -9q12 8 90 150q102 182 178 266l477 526q218 237 218 268q0 16 -23 17l-53 -27q-53 -27 -90 -26q-29 0 -69 6t-93 16q-104 25 -156 25q-115 0 -184 -68q-49 -47 -113 -170q113 70 185 86q27 6 61 6q16 0 42 -2 t58 -6q35 -4 60.5 -6t42.5 -2q45 0 110 14q78 16 107 17q-37 -53 -152 -158q-86 -76 -176 -144.5t-188 -130.5q-176 -109 -363 -374q-170 -238 -170 -306q0 -4 -1 -11t-3 -17z" />
<glyph unicode="8" horiz-adv-x="1064" d="M-63 281q0 -137 112 -226q106 -82 246 -82q182 0 319 109q145 117 146 297q0 127 -117 291q150 31 250 96q133 86 133 215q0 106 -96 172q-84 57 -199 57q-160 0 -268 -94q-119 -100 -119 -256q0 -96 55 -203q-463 -106 -462 -376zM92 264q0 133 98 242q100 111 232 119 q174 -193 174 -295q0 -119 -92 -226q-92 -104 -209 -104q-94 0 -152 88q-51 76 -51 176zM489 952q0 84 78 162q76 76 164 76q166 0 166 -166q0 -117 -88 -205q-76 -82 -193 -121q-55 27 -92 111q-35 80 -35 143z" />
<glyph unicode="9" horiz-adv-x="1003" d="M-180 145q0 -76 84 -125q72 -41 151 -40q203 0 402 174q164 143 288 370q134 244 134 445q0 57 -18.5 106t-52.5 86t-82 57.5t-105 20.5q-205 0 -365 -170q-158 -170 -158 -375q0 -98 49 -174q59 -84 152 -84q102 0 186 37q-57 -104 -103 -176t-81 -117 q-141 -174 -283 -174q-115 0 -114 103q0 70 57 69q29 0 64 -49q10 23 17 39t11 27q0 80 -92 79q-25 0 -50.5 -11t-45 -28.5t-32.5 -41t-13 -48.5zM233 602q0 139 144 369q150 246 272 246q45 0 69.5 -39t24.5 -86q0 -186 -118 -398q-127 -227 -263 -227q-55 0 -92 40t-37 95 z" />
<glyph unicode=":" horiz-adv-x="499" d="M-51 72q0 -100 84 -101q47 0 83 37t36 84q0 102 -86 103q-47 0 -82 -38t-35 -85zM184 498q0 -102 86 -103q47 0 83 38t36 85q0 102 -86 103q-47 0 -83 -38t-36 -85z" />
<glyph unicode=";" horiz-adv-x="499" d="M-45 -158q0 -12 18 -14q39 0 93 59q104 113 104 224q0 39 -26.5 66.5t-65.5 27.5q-47 0 -80 -39t-33 -86q0 -61 78 -98q14 -6 14 -27q0 -37 -61 -82l-29 -14q-12 -6 -12 -17zM164 498q0 -102 86 -103q47 0 83 38t36 85q0 102 -86 103q-47 0 -83 -38t-36 -85z" />
<glyph unicode="&#x3c;" horiz-adv-x="1953" d="M20 639q0 -115 78 -203q80 -84 195 -84q135 0 278 107q-39 -76 -39 -172q0 -111 84 -195q82 -82 197 -82q113 0 197 68q82 70 82 182q0 45 -16.5 87t-44 74t-67.5 50t-85 18q-76 0 -131.5 -47t-55.5 -123q0 -61 44 -110t106 -49q47 0 76.5 38t29.5 85q0 53 -37 53 l-20 -31q-20 -29 -49 -33q-63 -2 -64 74q0 47 26.5 80t74.5 33q88 0 140 -55.5t52 -143.5q0 -207 -258 -207q-82 0 -164 76q-84 78 -84 158q0 129 47 194.5t123 114.5q84 53 160 53q47 0 94 -10q0 -109 76 -193q78 -84 180 -84q55 0 125 17q207 -150 371 -150q59 0 99 33 t40 90q0 66 -53 101q-45 33 -113 32q-117 0 -313 -69q-4 4 -32 27.5t-77 68.5q-109 96 -250 143q0 55 60 105q57 49 117 49q121 0 227 -78q68 -51 168 -178l37 -4q-225 313 -432 313q-90 0 -160 -55q-72 -55 -72 -141q-68 6 -92 6q-131 0 -309 -172q-98 -66 -137 -86 q-76 -35 -156 -35q-104 0 -172 75.5t-68 182.5q0 88 80 156q78 70 170 69q100 0 159.5 -57t59.5 -158q0 -152 -164 -151q-37 0 -67.5 26.5t-30.5 63.5q0 68 53 73q8 2 20.5 -1t25 -7t22.5 -8t12 -4q6 0 6 6q0 121 -100 121q-55 0 -94 -44t-39 -99q0 -74 61 -119 q53 -45 129 -45q80 0 133.5 53t53.5 133q0 100 -72 172t-172 72q-113 0 -193 -68q-86 -72 -86 -182zM1040 629q41 -16 75 -31.5t56 -32.5q49 -43 93.5 -84t83.5 -82q-31 -4 -56.5 -7t-46.5 -3q-84 0 -145 80q-59 76 -60 160zM1423 393q156 66 291 66q55 0 96 -25 q48 -29 48 -82q0 -45 -35 -70.5t-82 -25.5q-106 0 -318 137z" />
<glyph unicode="=" horiz-adv-x="985" d="M0 315q0 -10 10 -10q39 0 119 6q41 4 70.5 6t50.5 2q51 0 160 -12q53 -4 94 -7t67 -3q123 0 226 78q28 23 28 35q0 18 -22 18l-80 -8q-39 -4 -61.5 -6t-26.5 -2q-31 0 -77 3t-107 7q-121 12 -183 12q-74 0 -180 -41q-88 -33 -88 -78zM0 594q0 -10 10 -10q39 0 119 6 q41 4 70.5 6t50.5 2q51 0 160 -12q53 -4 94 -7.5t67 -3.5q123 0 226 78q28 23 28 35q0 18 -22 19l-80 -9q-39 -4 -61.5 -6t-26.5 -2q-31 0 -77 3t-107 7q-121 12 -183 13q-74 0 -180 -41q-88 -33 -88 -78z" />
<glyph unicode="&#x3e;" horiz-adv-x="1953" d="M49 352q0 -57 40 -90t99 -33q164 0 371 150q70 -16 125 -17q102 0 180 84q76 84 76 193q47 10 94 10q76 0 160 -53q76 -49 123 -114.5t47 -194.5q0 -80 -84 -158q-82 -76 -164 -76q-258 0 -258 207q0 88 52.5 143.5t140.5 55.5q47 0 73.5 -33t26.5 -80q0 -76 -64 -74 q-27 2 -47 33l-22 31q-37 0 -37 -53q0 -47 29.5 -85t76.5 -38q61 0 105.5 49t44.5 110q0 76 -55.5 123t-130.5 47q-47 0 -86 -18t-67 -50t-44 -74t-16 -87q0 -113 82 -182q82 -68 196 -68q115 0 197 82q84 84 84 195q0 96 -39 172q143 -106 278 -107q115 0 193 84 q80 86 80 203q0 109 -84 180q-82 70 -195 70q-102 0 -174 -72q-70 -70 -70 -172q0 -80 53.5 -133t133.5 -53q37 0 71.5 12t60.5 33.5t42 51.5t16 67q0 55 -38.5 99t-94.5 44q-100 0 -100 -121q0 -6 6 -6q2 0 11 4t21.5 8t26 7.5t21.5 0.5q53 -6 53 -73q0 -37 -30.5 -63.5 t-67.5 -26.5q-164 0 -164 151q0 100 59.5 157.5t159.5 57.5q92 0 170 -69q80 -68 80 -156q0 -106 -67.5 -182t-172.5 -76q-80 0 -155 35q-39 20 -138 86q-178 172 -309 172q-25 0 -92 -6q0 86 -71.5 141t-159.5 55q-209 0 -432 -313l36 4q100 127 168 178q106 78 228 78 q57 0 116.5 -49t59.5 -105q-80 -29 -121 -49q-63 -35 -129 -94q-49 -45 -77 -68.5t-32 -27.5q-197 70 -313 69q-68 0 -113 -32q-53 -35 -53 -101zM72 352q0 53 47 82q39 25 96 25q135 0 291 -66q-211 -137 -318 -137q-47 0 -81.5 25.5t-34.5 70.5zM582 399q82 78 125 120 t51 46q41 29 131 64q0 -84 -60 -160q-61 -80 -145 -80q-20 0 -46 3t-56 7z" />
<glyph unicode="?" horiz-adv-x="1069" d="M23 82q0 -100 86 -100q47 0 82.5 36.5t35.5 83.5q0 102 -86 103q-47 0 -82.5 -38t-35.5 -85zM195 428q0 -37 24.5 -60.5t61.5 -23.5q33 0 94 16l-23 15q-25 -8 -51 -8q-78 0 -78 61q0 25 21.5 53.5t44.5 40.5l426 211q59 29 112.5 70t100.5 92q108 125 108 238 q0 117 -96 190q-90 68 -209 68q-193 0 -354 -125q-178 -135 -178 -320q0 -51 32.5 -86t83.5 -35q61 0 138 54l-21 6q-66 -37 -113 -37q-43 0 -70.5 28.5t-27.5 71.5q0 139 158 262q150 115 289 115q92 0 155.5 -49t63.5 -137q0 -117 -160 -267q-51 -47 -93 -81.5t-77 -57.5 q-133 -82 -208 -130t-95 -64q-59 -47 -59 -111z" />
<glyph unicode="@" horiz-adv-x="1415" d="M-14 313q0 -213 131 -331q133 -121 348 -121q301 0 557 219q57 49 102 104.5t80 114.5h-41q-279 -395 -682 -395q-203 0 -317 94q-127 102 -127 295q0 86 29 196q78 285 292 469q231 201 512 201q162 0 256 -76q109 -84 109 -237q0 -154 -115 -340q-29 -45 -63.5 -88 t-75.5 -84q-106 -113 -176 -113q-94 0 -90 78q23 70 43 107l268 503q-6 -2 -35 -30q-25 -25 -33 -25q-14 0 -42.5 6t-43.5 6q-18 0 -43 -30q-35 49 -104 49q-172 0 -315.5 -135.5t-143.5 -307.5q0 -203 140 -202q104 0 194 120q-4 -23 -7 -41t-3 -34q0 -115 162 -115 q104 0 225 104q47 41 88 89.5t80 105.5q133 207 133 379q0 170 -119 264q-113 84 -285 84q-293 0 -542 -207q-248 -207 -324 -495q-23 -96 -22 -181zM387 338q0 111 117 299q131 211 252 211q43 0 43 -49q0 -37 -209 -393q-80 -135 -162 -136q-41 0 -41 68z" />
<glyph unicode="A" horiz-adv-x="2172" d="M-14 365q0 -342 239 -553q229 -205 578 -205q283 0 631 184q47 27 81.5 45.5t57.5 32.5q66 -47 112 -77t74 -44q173 -90 366 -90h17q131 2 248 92q127 96 127 221q0 100 -86 172q-78 63 -188 64q-115 0 -220 -49q-43 -20 -151.5 -84t-282.5 -170q-6 6 -21.5 20.5 t-39.5 36.5q201 109 342 311q98 141 121 230q18 106 24 164q430 168 430 536q0 254 -231 412q-207 139 -471 139q-252 0 -475 -149q-248 -168 -248 -410q0 -301 237 -399l7 26q-215 94 -215 373q0 231 239 389q211 141 455 141q256 0 450 -131q223 -147 224 -391 q0 -180 -117 -311q-104 -121 -281 -189q14 205 95 357q47 90 133 170q70 63 69 86q0 33 -20 33q-336 -98 -594 -443q-109 -145 -160 -258h-510q-203 0 -364 -115q-178 -129 -179 -325q0 -133 99 -203q88 -61 223 -61q168 0 332 137q139 117 256 291q53 82 94 143t68 102 q158 0 249 19q0 -92 -75 -281q-29 -72 -51.5 -126t-38.5 -89q-10 -27 -76 -82q-63 -57 -84 -57q-102 45 -164 45q-51 0 -51 -41q0 -63 112 -63q23 0 46.5 3t50.5 7l73 -66q-436 -258 -749 -258q-332 0 -561 201q-236 205 -236 537q0 313 195 514q196 200 507 200h3 q51 0 118 -26v24q-68 25 -118 25q-330 0 -529 -203q-197 -203 -196 -534zM586 207q0 178 176 299q156 106 344 106h412q-195 -293 -277 -389q-225 -252 -430 -252q-225 0 -225 236zM1313 0q0 12 18 12h2q28 0 92 -30q-41 -10 -67 -11q-45 0 -45 29zM1583 647q53 145 211 326 q33 35 76 78t98 90q144 123 195 123q2 0 2 -2q0 -6 -80 -99q-240 -279 -273 -497q-98 -18 -229 -19zM1610 -115q172 104 273.5 164t135.5 76q113 53 226 53q49 0 93 -15.5t77.5 -43t53 -65.5t19.5 -85q0 -115 -118 -202q-109 -80 -228 -80q-295 0 -532 198z" />
<glyph unicode="B" horiz-adv-x="2179" d="M20 522q0 -262 173 -418q169 -155 433 -155h3q313 0 526 133q178 115 344 373q47 76 103 264q27 92 51 154.5t51 97.5q152 207 229 246q82 -45 82 -246q0 -133 -164 -287q-51 45 -98 45q-65 0 -65 -44q0 -26 27.5 -43t53.5 -17q16 0 29.5 1t24.5 3q12 -66 12 -125 q0 -166 -68 -228q-150 0 -276 -40q-184 -61 -184 -191q0 -92 139 -96h14q80 1 156 21q82 22 151.5 66t123 108.5t83.5 146.5q137 57 250 155l-16 17q-113 -100 -221 -137q0 195 -99 315q63 35 106.5 68.5t69.5 62.5q76 82 76 199q0 80 -55 157q-29 33 -53.5 61t-46.5 54 q172 72 286 72q106 0 223 -47q145 -61 146 -154q0 -47 -60 -84q-23 -14 -48 -24.5t-54 -14.5l21 -20q61 10 112 45q60 43 60 98q0 104 -156 172q-129 53 -244 53q-113 0 -200 -26q-31 -12 -62 -24.5t-63 -22.5q-49 23 -86 39t-62 26q-111 41 -266 41q-197 0 -332 -53 q-33 -14 -201 -111q-143 59 -254 60q-297 0 -512 -226q-213 -225 -213 -520zM43 522q0 285 211 504q211 221 491 221q123 0 232 -59q-92 -90 -109 -111q-78 -106 -77 -233q0 -139 75 -228q82 -94 219 -94q49 0 146 31q-41 -125 -166 -188q-80 -43 -142 -43q-12 0 -24 2v-29 q66 0 125 21.5t109.5 60.5t88.5 92t60 117q113 113 111 209q0 49 -17 88q-2 2 -9 14t-21 39l-23 -6q45 -94 43 -137q-4 -43 -23 -74l-40 -70q4 35 7 52.5t3 19.5q0 289 -293 471q125 84 217 117q123 43 295 43q205 0 375 -109q-170 -68 -312 -225q-133 -147 -202 -328 q-35 -90 -53.5 -138t-22.5 -56q-74 -160 -177.5 -267.5t-232.5 -177.5q-145 -76 -278 -76q-254 0 -416 144q-170 152 -170 403zM813 842q0 104 57 192q16 27 49 63t80 81q289 -160 289 -457q0 -35 -31 -105q-73 -67 -169 -67h-3q-129 0 -200.5 82t-71.5 211zM1331 45 q0 109 154 162q118 39 262 39h14l-106 -140q-116 -120 -229 -120h-9q-86 2 -86 59zM1753 702h2q30 0 62 -38q-25 -8 -48 -9q-40 0 -40 28q0 19 24 19z" />
<glyph unicode="C" horiz-adv-x="1910" d="M6 178q0 -303 174 -502q181 -206 481 -206h3q166 0 368 81q123 51 215 88t154 64q209 82 393 82q170 0 334 -70q209 -90 209 -233q0 -41 -31 -98q2 -4 10 -13q45 64 45 111q0 166 -213 256q-158 69 -349 69h-5q-180 0 -395 -81q-129 -51 -222.5 -88t-156.5 -64 q-209 -82 -356 -82q-287 0 -465 203q-170 195 -170 483q0 362 268 627q270 264 633 264q41 0 94 -2t117 -6q166 -10 166 -27q-59 -35 -124 -89t-132 -130q-213 -238 -213 -481q0 -264 194 -361q83 -114 197 -114h2q215 0 434 295l-16 18q-223 -285 -418 -285q-78 0 -129 64 q10 -2 19 -3t20 -1q199 0 381 196q182 201 182 400q0 188 -162 188q-233 0 -401 -235q-143 -199 -144 -390v-18t2 -16q-45 45 -45 117v6q4 113 76 260q41 86 88 157.5t101 130.5q150 162 264 258q143 -20 241.5 -29t151.5 -9q115 0 207 36q123 49 123 150q0 119 -207 119 q-291 0 -666 -209h-2q-15 0 -131 14q-154 18 -270 19q-377 0 -651 -269q-272 -266 -273 -645zM1032 119q0 176 144 368q154 207 323 207q135 0 135 -137q0 -150 -157 -354q-168 -217 -338 -217q-43 0 -84 26q-23 61 -23 107zM1526 1022q299 223 473 223q184 0 184 -96 q0 -164 -307 -164q-102 0 -350 37z" />
<glyph unicode="D" horiz-adv-x="1744" d="M14 588q0 -104 66 -242l18 12q-59 156 -59 230q0 176 115 321q43 -164 141 -258q109 -106 270 -106q115 0 207 80q92 82 92 194q0 141 -119 228q-108 77 -249 77h-4q-154 0 -322 -153q-2 21 -2 42q0 199 139 357q184 213 527 213q299 0 516 -182q68 -57 69 -76l-86 -49 q-260 -154 -481 -592q-47 -96 -141 -344q-61 -168 -107 -195q-49 33 -79.5 52.5t-43.5 25.5q-106 57 -200 58q-74 0 -131 -35q-63 -43 -64 -115q0 -98 88 -143q72 -41 176 -41q160 0 301 98q139 -96 301 -100h7q274 0 479 299q190 276 190 565q0 287 -143 504q150 24 205 24 h4q106 0 161 -20q51 -14 146 -78l8 16q-100 106 -315 107q-127 0 -228 -33q-233 279 -632 279q-336 0 -525 -195q-164 -170 -164 -414v-28q0 -12 2 -27q-29 -41 -46 -68.5t-25 -44.5q-61 -111 -62 -243zM121 131q0 55 37 89t92 34q184 -4 321 -135q-156 -137 -270 -137 q-70 0 -125 40.5t-55 108.5zM174 936q158 164 318 164q139 0 235 -70q113 -80 113 -211q0 -102 -86 -176q-84 -74 -189 -74q-158 0 -262 109q-92 94 -129 258zM686 76q57 47 93 79.5t52 51.5q96 115 164 305q29 88 49.5 152.5t34.5 109.5q131 401 363 512q31 -16 59 -145 q21 -100 21 -166q0 -307 -179 -617q-207 -354 -491 -354q-41 0 -166 72z" />
<glyph unicode="E" horiz-adv-x="1992" d="M0 602q0 -63 33 -127l24 17q-6 8 -18 55q-12 45 -12 57q0 231 290 350q221 90 484 90q168 0 381 -36q20 -45 39.5 -89.5t38.5 -87.5q-14 2 -29 3h-27q-201 0 -325 -123q-127 -123 -127 -322q0 -223 155 -342q140 -110 365 -110h4q203 0 346 143q147 143 147 344 q0 100 -53 170q-57 76 -155 76q-135 0 -248 -111q-115 -109 -115 -242q0 -39 12.5 -73.5t36 -61t55 -42t68.5 -15.5q143 0 205 145q36 86 36 185q0 18 -1 37h-25q0 -111 -31 -193q-53 -145 -184 -145q-63 0 -103 49t-40 114q0 121 106 222q109 102 228 102q88 0 137 -68 q43 -59 43 -149q0 -186 -139 -320q-137 -131 -326 -131q-150 0 -244 129q-86 119 -86 273q0 139 96 258q98 119 236 119q51 0 92 -23q37 -48 74 -48l8 1q25 2 25 25q0 20 -35 38q-43 23 -45 29q-33 45 -39 166q129 -47 211 -47q98 0 182 59q92 64 92 160q0 104 -86 178 q-84 68 -188 68q-322 0 -387 -318q-262 31 -381 31q-276 0 -504 -96q-297 -125 -297 -373zM1352 1020q0 86 80 172q88 94 202 94q74 0 129.5 -50t55.5 -124q0 -98 -80 -149q-70 -45 -170 -45q-111 0 -209 61q-8 14 -8 41z" />
<glyph unicode="F" horiz-adv-x="2101" d="M16 496q0 -346 217 -570q219 -225 566 -225q186 0 389 84q209 88 323 227q129 164 277 705l123 -19q-12 -180 -19 -206q-16 -98 -63 -99q-23 0 -57 15l-15 -15q33 -33 70 -33q176 0 176 272q0 29 -2 62q43 6 82 39t39 74q0 70 -66 70q-92 0 -135 -140l-121 23 q82 199 178 246q16 8 52 16t94 18q96 14 104 27v8q-176 -6 -260 -28q-96 -29 -188 -107q-45 -51 -77 -89t-50 -65l-82 17l-10 -31l77 -16q-197 -530 -262 -666q-45 -90 -129 -174q-199 -195 -448 -195q-319 0 -523 232q-194 218 -194 540q0 310 201 539q213 238 516 238 q174 0 315 -86q-29 -37 -59.5 -74t-61.5 -74q-104 -158 -104 -313q0 -127 59 -211q68 -92 193 -92q14 0 27.5 1t27.5 3v22q-12 -2 -24.5 -3t-24.5 -1q-115 0 -178 86q-57 76 -58 195q0 100 74 248q76 154 162 194q80 -61 143 -166q92 -152 92 -319q0 -211 -139 -393 q-150 -199 -354 -199q-111 0 -207 78q-100 82 -100 194q0 76 26 150q0 12 -14 29q-35 -115 -35 -179q0 -121 107 -208q100 -86 223 -86q211 0 368 206q147 190 148 408q0 182 -102 346q-76 123 -132 152q130 122 450 122h5q203 0 473 -83q61 -18 275 -130q156 -81 289 -81h3 q76 0 158 51q92 57 92 129q-102 -160 -250 -160q-139 0 -311 98q-106 59 -185 105.5t-132 77.5q-190 98 -412 98q-258 0 -496 -201q-172 86 -331 86q-334 0 -559 -231q-223 -229 -224 -563zM1997 748q0 20 20 55q20 37 39 37q31 0 31 -23q0 -31 -27.5 -53.5t-58.5 -22.5 q-4 0 -4 7z" />
<glyph unicode="G" horiz-adv-x="1869" d="M0 211q0 -373 258 -590q-2 -10 -2 -18v-21q0 -147 96 -244q94 -98 244 -98q293 0 524 301q98 129 170 301l150 187q63 -29 151 -79t205 -122t203 -122t145 -79q137 -69 271 -69h4h2q303 0 379 321h-21q-18 -96 -78 -176q-98 -125 -282 -125q-156 0 -367 129 q-217 131 -365.5 216t-228.5 124q143 143 342 143l-4 21h-9q-86 0 -175 -37q-106 -47 -172 -119l-47 27q53 98 144 251.5t222 368.5l-20 9l-62 -86q-61 28 -90 28h-2q-92 0 -295 -540q-131 27 -213 30q-19 1 -41 1q-56 0 -133 -7q2 59 7 104.5t14 80.5q16 66 71 167 q150 274 371 443q46 -8 104 -8q65 0 144 10q162 18 307 70q233 76 233 172q0 61 -77 96q-53 26 -124 26h-5q-358 0 -785 -313q-225 43 -350 43q-348 0 -582 -233q-231 -236 -231 -584zM18 211q0 338 228 569q227 229 567 230q47 0 127 -12t197 -35q-98 -104 -161 -180 t-95 -126q-117 -178 -117 -370q0 -47 35 -174q-186 -55 -301 -150q-190 -154 -236 -317q-80 68 -145 184q-98 174 -99 381zM276 -416q0 8 3 19q20 -23 122 -56q129 -41 244 -41q269 1 580 269q0 -35 -70 -148q-224 -368 -557 -368h-2q-162 0 -254 125q-66 90 -66 184v16z M283 -371q45 174 227 322q123 98 297 143q106 -129 229 -129q78 0 254 111q-37 -197 -67 -271q-23 -31 -70 -67.5t-117 -81.5q-207 -129 -391 -129q-170 0 -362 102zM909 109q53 6 97 9q26 2 46 2q14 0 25 -1q128 -17 183 -31q-137 -100 -226 -100q-96 0 -125 121z M1313 -100l69 157l39 -20zM1382 956q383 299 615 299q45 0 82 -18q47 -22 47 -61q0 -78 -221 -148q-172 -57 -291 -65q-68 -6 -232 -7z" />
<glyph unicode="H" horiz-adv-x="1925" d="M4 438q0 -195 119 -321q37 -41 141 -107q-53 -170 -53 -272q0 -244 147 -422q158 -188 398 -188q305 0 395 282l-21 -6q-90 -258 -374 -258q-195 0 -346 145q-176 170 -177 447q0 141 52 262q57 -37 141 -37q344 0 590 262q104 111 149 228q23 59 41.5 104t28.5 76 q109 23 196 39t156 30q-78 -199 -128 -317.5t-70 -159.5q-31 -57 -66 -96q-4 -4 -31.5 -27.5t-79.5 -66.5q-72 41 -110 41q-68 0 -68 -58q0 -55 66 -55q51 0 117 37q100 -61 165 -61q127 0 265 143v24q-157 -149 -264 -149h-1q-47 0 -135 53q102 33 285 215q109 109 280 508 q219 53 408 158q238 133 238 266q0 80 -123 80q-154 0 -320 -82q-158 -78 -239 -174q-70 -82 -115 -145.5t-68 -108.5q-106 -23 -194 -39t-158 -29q14 57 22.5 89t10.5 36q82 178 147 244q98 66 154 88q94 -61 147 -61q74 0 74 55q0 53 -115 53q-51 0 -108 -12 q-63 43 -174 156q-86 90 -160 131q-100 57 -231 57q-150 0 -287 -88q-141 -88 -211 -217q-38 -68 -38 -184q0 -16 1 -33q-135 -29 -246 -105q-223 -150 -223 -430zM23 438q0 201 131 338q117 119 319 178q35 -225 242 -225q55 0 153 25q37 -76 37 -165v-9 q-61 -23 -110.5 -44.5t-87.5 -39.5q-190 -92 -320 -271q-29 0 -53 62q-20 49 -21 84q0 213 228 303l-4 12q-244 -84 -244 -315q0 -106 78 -160q-14 -8 -56 -84q-16 -29 -26 -53.5t-19 -42.5q-18 12 -36.5 24.5t-36.5 22.5q-174 129 -174 360zM291 23q66 141 98 176 q45 -31 96 -31q172 0 291 119q104 104 154 280q64 19 80 19q-37 -98 -56 -146l-18 -47q-72 -166 -182 -274q-143 -137 -328 -137q-72 0 -135 41zM406 213q23 41 94 111q106 104 215 153q31 14 61.5 27.5t63.5 25.5l65 27q-104 -371 -416 -371q-37 0 -83 27zM494 954h25 q38 0 75 -4q49 -6 95 -25.5t88 -56.5t79 -96q-111 -24 -141 -24h-2q-184 0 -219 206zM494 973q-1 20 -1 39q0 113 31 166q45 76 154 141q133 78 270 78q307 0 588 -256q-35 -16 -78 -38t-92 -50q-12 -8 -36.5 -28.5t-63.5 -55.5q-102 -96 -136 -148q-33 -53 -61.5 -105 t-52.5 -106l-86 -18q0 102 -41 174q53 29 103 61.5t98 71.5l-9 14q-84 -72 -204 -129q-141 191 -341 191q-21 0 -42 -2zM1057 16q0 35 33 35q37 0 96 -35q0 -12 -39 -20q-41 -12 -53 -12q-37 0 -37 32zM1610 1126q63 18 108 19q58 0 58 -35q0 -33 -35 -33q-45 0 -131 49z M1819 762q39 125 194 280q176 176 322 177q104 -1 104 -62q0 -111 -207 -233q-184 -109 -413 -162z" />
<glyph unicode="I" horiz-adv-x="1615" d="M6 750q0 -125 19 -220q0 -299 206 -458q168 -127 390 -127q289 0 465 128t270 404q145 29 241 133q23 27 45.5 64t43.5 86q33 74 32 98l-18 8q-55 -172 -117 -235q-20 -20 -119 -74q-100 -51 -100 -49q0 47 45 170q156 432 459 532q107 33 246 37q-2 2 -4.5 16.5 t-10.5 20.5q-55 31 -194 53q-115 18 -205 19q-383 0 -596 -195q-104 -98 -143 -215q-147 111 -326 111q-313 0 -485 -228q-72 -98 -109 -227q-8 47 -12 84t-4 64q0 246 174 432q176 188 419 188q102 0 205 -45l4 18q-92 45 -206 46q-254 0 -434.5 -192.5t-180.5 -446.5z M47 492q78 -160 127 -216q140 -165 359 -165h8q401 2 540 417q70 -45 97 -53q-63 -160 -224 -325q-182 -182 -333 -183q-244 0 -399.5 141.5t-174.5 383.5zM49 545q117 493 584 493h2q184 0 317 -114q2 -125 19 -193q20 -94 92 -186q-63 -164 -119 -232q-147 -184 -403 -184 q-180 0 -312 125q-115 109 -180 291zM975 901q51 -74 74 -172q6 -47 9 -81.5l5 -57.5q-59 98 -70 147q-16 90 -18 164zM981 928q66 211 287 319q186 92 432 92q137 0 258 -30q107 -26 119 -49q-82 -4 -141.5 -9.5t-96.5 -13.5q-125 -20 -219 -84q-195 -127 -320 -371 q-16 -35 -44.5 -104.5t-69.5 -177.5q-70 33 -101 55q-8 205 -59 303z" />
<glyph unicode="J" horiz-adv-x="1925" d="M18 215q0 -274 172 -453q174 -178 449 -178q254 0 467 148q201 141 311 379q33 -4 53.5 -6.5t30.5 -2.5q121 0 223 127q90 113 97 207q0 -4 -3 7.5t-8 35.5q-35 -135 -102 -229q-90 -123 -205 -123q-12 0 -73 12q133 299 211.5 473t105.5 226q57 106 154 206 q162 139 393 140q18 0 51 -8.5t47 -8.5q25 0 25 37q0 35 -54 41q-111 43 -147 55q-166 55 -350 56q-326 0 -580 -172q-20 -16 -40.5 -33.5t-43.5 -34.5q-162 150 -399 150q-328 0 -508 -271q-96 -145 -139 -352q-35 -59 -54.5 -94t-25.5 -45q-57 -113 -58 -289zM43 215 q0 205 125 399q-2 -14 -3 -28.5t-1 -30.5q0 -219 137 -405q160 -215 414 -216q293 0 463 269q20 -10 32.5 -19.5t20.5 -17.5q-72 -197 -215 -356q-180 -199 -377 -199q-254 0 -426 176q-170 176 -170 428zM188 670q70 219 131 311q174 264 484 264q129 0 256 -61 q94 -47 129 -86q-74 -53 -176 -287q-174 115 -318 115q-176 0 -291 -58q-125 -57 -215 -198zM193 631q61 106 120 153q143 117 381 117q131 0 310 -117q-18 -135 -19 -202q0 -193 166 -361q0 -16 -47 -76q-156 -186 -389 -186q-250 0 -400 217q-123 182 -123 416q0 19 1 39z M1016 668q4 45 12 98q162 -150 162 -367q0 -72 -25 -147q-153 159 -153 328q0 43 4 88zM1036 797q80 211 170 282q29 -33 54.5 -72.5t46.5 -88.5l16 16q-47 102 -102 164q137 96 182 121q217 114 459 114h4q143 0 303 -45q137 -37 145 -55v-16q-279 -6 -413 -70 q-82 -39 -148.5 -87t-120.5 -108q-92 -109 -180 -299l-207 -456q-18 0 -51 30q25 113 25 172q0 156 -78 277q-23 37 -105 121z" />
<glyph unicode="K" horiz-adv-x="2154" d="M-2 418q0 -201 143.5 -332t345.5 -131q313 0 523 272q131 174 207 465q45 0 86 -49q41 -47 45 -94l22 -365q6 -109 94 -176q84 -59 195 -59q139 0 246 100q110 99 110 236q0 94 -54 150.5t-146 56.5q-27 0 -27 -19v-2q92 0 145.5 -48t53.5 -136q0 -106 -80 -201 q-82 -100 -187 -100q-102 0 -172 155q-10 25 -12 82v51q0 33 2 78q2 63 3 99t1 45q0 111 -110 170q-90 47 -213 47l10 37q104 -18 190 -19q199 0 283 109q33 45 86 172q33 78 55.5 131t36.5 80q119 221 328 221q47 0 145 -39v14q-78 43 -145 43q-215 0 -365 -196 q-82 -111 -137 -183.5t-84 -113.5q-76 -102 -165 -143.5t-222 -45.5q70 342 248 437q63 -27 108 -39.5t74 -14.5h8q64 0 64 64q0 51 -72 55h-6q-60 0 -160 -35q-141 104 -218 160.5t-93 67.5q-100 59 -221 59q-225 0 -389 -150q-174 -156 -175 -374q0 -14 1.5 -27.5 t3.5 -28.5q-29 -10 -59 -19t-58 -20q-293 -133 -293 -497zM20 418q0 358 285 477q27 8 53.5 16.5t55.5 16.5q23 -74 94 -129q76 -55 154 -56q35 1 133 19q67 13 67 16q0 2 -14 2q45 -59 45 -198q0 -166 -115 -281q-113 -113 -278 -113q-86 0 -130 55.5t-44 141.5 q0 190 190 283l-4 18q-94 -39 -152.5 -120t-58.5 -181q0 -94 52.5 -157.5t146.5 -63.5q143 0 264 94q154 117 154 324q0 129 -48 213q29 16 53.5 35.5t47.5 39.5q14 14 33.5 34t46.5 48l-15 17q-41 -49 -87 -88t-93 -68q-137 156 -336 156q-47 0 -88 -8q-2 14 -3 26t-1 27 q0 180 162 303q150 115 334 115q115 0 284 -62q168 -61 260 -135q-129 -59 -260 -203q-141 -154 -174 -278q-92 -346 -168 -488q-151 -286 -377 -286h-2q-184 0 -327 126q-139 127 -140 312zM436 934q20 4 40 7t42 3q193 0 316 -143q-74 -33 -175 -33q-35 0 -70.5 13.5 t-66 36t-53.5 52t-33 64.5zM1526 1229q78 23 135 26q7 1 13 1q40 0 40 -29q0 -35 -44 -35h-9q-96 20 -135 37z" />
<glyph unicode="L" horiz-adv-x="2002" d="M8 131q0 -96 103 -143q76 -37 186 -37q125 0 319 115q88 -45 155 -75t114 -46q141 -49 291 -49q250 0 456 145q232 163 232 403q0 176 -178 281l-13 -23q158 -117 158 -258q0 -219 -199 -325q-158 -84 -397 -84q-233 0 -510 96q139 186 188 287q29 61 53.5 142t41.5 185 q205 84 346 232q166 172 166 371q0 143 -162 143q-78 0 -172 -74q-78 -59 -135 -135q-96 -127 -123 -184q-29 -59 -60.5 -157.5t-64.5 -235.5q-104 -61 -211 -62q-172 0 -287 133q-111 125 -110 301q0 229 172 377q164 139 395 139q16 0 60 -4t118 -12q-66 37 -178 37 q-242 0 -412 -146q-176 -152 -176 -391q0 -184 117 -319q119 -135 301 -135q74 0 203 49q-59 -215 -99 -293q-23 -47 -50.5 -97.5t-55.5 -101.5q-213 113 -338 113q-86 0 -156 -39q-88 -45 -88 -123zM35 131q0 53 61 94q57 35 113 35q119 0 346 -147q-53 -51 -139 -93 q-84 -38 -158 -38h-4q-76 0 -141 34q-78 43 -78 115zM1006 780q0 190 86 412q106 278 265 278h1h2q133 0 133 -122q0 -152 -172 -338q-158 -170 -315 -230z" />
<glyph unicode="M" horiz-adv-x="2295" d="M-6 440q0 -213 184 -356q174 -133 391 -133q160 0 310 76q152 76 204 180q66 137 113 238.5t78 170.5q70 147 131 249t117 159q-90 -184 -111 -307q-25 -139 -25 -467q0 -86 -12 -125q-35 -106 -55 -152q0 -10 10 -26q23 27 76 97.5t135 188.5q94 137 166 236.5 t123 161.5q76 92 162 176t186 162q-434 -549 -434 -799q0 -86 39 -143q45 -63 127 -64q125 0 231 230q-20 -4 -22 -5q-12 -37 -58 -100q-68 -94 -123 -94q-66 0 -65 96q0 121 141 420q53 113 107.5 214t111.5 194q109 172 193 221q78 45 142.5 76.5t115.5 50.5 q66 23 141.5 38t163.5 21l2 23q-201 -12 -330 -60q-35 -14 -98 -46t-156 -83q-449 -252 -872 -866q74 227 80 276q4 27 4 64q0 39 -2 92q-1 35 -1 64v27q1 38 5 65q27 223 109 331q20 -10 40 -10q47 0 48 35q0 31 -43 31q-37 0 -80 -25q-338 111 -402 111q-213 0 -344 -80 q-157 -95 -157 -293q0 -113 63 -182q68 -78 174 -78q80 0 143 94h-12q-43 -43 -104 -43q-90 0 -148 76q-51 70 -51 162q0 98 53 176q103 151 379 151h4q70 0 383 -106q-129 -78 -264 -287q-47 -70 -125 -205t-188 -338q-238 -428 -529 -428q-254 0 -417 164 q-137 137 -138 303q0 201 131 351q134 159 330 159h2q147 0 260 -90q117 -96 117 -244q0 -135 -102.5 -249.5t-237.5 -114.5q-106 0 -164.5 72.5t-58.5 183.5q0 68 43 172l-25 6q-41 -117 -41 -178q0 -121 62 -197q63 -82 184 -82q143 0 252 121q111 123 111 266 q0 158 -123 261q-119 96 -277 96q-209 0 -346 -162q-137 -158 -137 -371z" />
<glyph unicode="N" horiz-adv-x="2131" d="M0 342q0 -246 170 -387q160 -135 412 -135q430 0 731 579q240 469 325 645q-29 -190 -30 -307q-1 -14 -1 -29q0 -31 3 -70q4 -58 12 -134q8 -80 12 -138.5t4 -95.5q0 -35 -41 -188q-27 -100 -35 -100q-3 0 -3 18q0 -23 26 -23q20 0 84 95l148 235q174 279 276 479 q63 123 109.5 214.5t76.5 152.5q23 41 43.5 78t40.5 69q95 -34 186 -34h5q76 0 139 28q82 39 82 107q0 90 -135 90q-139 0 -289 -166q-47 23 -131 52.5t-207 66.5q-319 98 -471 98q-283 0 -405 -55q-131 -57 -228 -201q-96 -141 -104 -285q-35 4 -70 7.5t-67 3.5 q-274 0 -471 -199q-197 -197 -197 -471zM16 342q0 270 189 463q190 190 463 190q23 0 56.5 -3t80.5 -11v-11q0 -120 80 -218q82 -100 211 -119q0 -223 -107 -375q-35 -49 -83 -92t-111 -78q-127 -72 -242 -72q-129 0 -213 90q-82 88 -82 224q0 164 115 303q117 141 276 141 q104 0 180 -76q78 -74 78 -176q0 -55 -47 -160q2 0 23 5q45 88 45 155q0 117 -82 193q-84 78 -197 78q-172 0 -293 -146q-118 -142 -118 -314q0 -144 88 -238.5t227 -94.5q127 0 252 70q63 35 112.5 81t88.5 99q68 96 88 180q20 74 20 201q299 41 299 315q0 49 -37 152 l-18 -4q35 -92 35 -148q0 -256 -283 -289q-41 143 -88 205q-29 39 -75 70t-105 57q55 309 319 436q205 98 381 99q211 0 799 -217q-43 -68 -80 -140q-225 -446 -227 -448q-49 -94 -121 -216t-170 -276q69 194 69 281q0 45 -10 109.5t-30.5 152.5t-30.5 152.5t-10 107.5 q0 121 69 211q45 57 166 158q-190 63 -315 63q-168 0 -346 -76q-225 -92 -226 -233q0 -72 82 -109l4 19q-66 41 -65 90q0 127 221 217q178 74 330 74q98 0 270 -55q-238 -207 -307 -345q-113 -221 -193 -380.5t-131 -264.5q-293 -563 -708 -563q-244 0 -400 131 q-166 137 -166 375zM842 969q119 -49 172 -125q37 -52 78 -187q-84 18 -162 93q-88 86 -88 204v15zM2376 1319q119 154 264 154q35 0 74 -17q43 -22 43 -55q0 -59 -76 -90q-61 -23 -127 -23q-55 0 -178 31z" />
<glyph unicode="O" horiz-adv-x="1228" d="M0 324q0 -150 84 -258q92 -113 240 -113q199 0 399 168q164 137 283 342q55 94 106 250q55 162 55 262q0 104 -59 194q-68 100 -168 101q-168 0 -324 -211q-143 -199 -143 -375q0 -74 40 -125t112 -51q137 0 243 137q100 127 101 268q0 49 -27 95.5t-72 46.5 q-53 0 -133 -80l15 -14q62 73 117 73h1q37 0 58 -45q18 -37 18 -76q0 -104 -88 -231q-102 -152 -233 -152q-63 0 -99 48q-31 39 -30 106q0 168 137 360q147 207 307 207q115 0 115 -166q0 -244 -221 -645q-100 -180 -209 -299q-160 -176 -301 -176q-80 0 -126 60.5 t-46 142.5q0 358 337 829q92 127 162 183q35 29 86 60.5t123 66.5h-86q-164 -23 -350 -193q-174 -158 -289 -358q-135 -233 -135 -432z" />
<glyph unicode="P" horiz-adv-x="2142" d="M0 512q0 -276 184 -432q174 -147 455 -148q264 0 500 134q283 164 379 475q57 -6 145 -6q190 0 336 102q164 115 164 297q0 84 -52 172q-41 70 -81 125q-41 57 -56 57q-8 0 -8 -16q145 69 283 69h4q168 0 321 -63l4 12q-152 68 -325 68q-141 0 -326 -66 q-188 109 -454 109q-326 0 -510 -193q-117 51 -232 52q-297 0 -516 -226q-215 -225 -215 -522zM16 512q0 285 213 508q215 223 502 223q96 0 219 -53q-104 -152 -104 -268q0 -131 84 -226q82 -92 217 -92q53 0 102 21q-31 -123 -112 -232q-164 -219 -432 -219 q-201 0 -343 129q-141 131 -141 330q0 43 37 153l-20 -6q-37 -74 -37 -147q0 -215 147 -346q139 -131 357 -131q418 0 573 481q55 61 78 96l-6 31q-23 -35 -40.5 -59.5t-31.5 -38.5v26q0 283 -166 426q-45 39 -131 80q186 186 492 186h5q259 0 400 -112q-168 -92 -309 -250 q-61 -68 -144 -197l-141 -295q-131 -276 -180 -325q-238 -238 -529 -238q-248 0 -403 148q-156 150 -156 397zM868 922q0 100 101 258q145 -66 229 -213q31 -51 47 -174q9 -68 9 -114q0 -15 -1 -28q-51 -28 -102 -28h-4q-121 0 -201 88q-78 90 -78 211zM1530 586l141 372 q68 178 250 285q94 -70 94 -246q0 -164 -121 -290q-121 -123 -286 -123h-37q-18 0 -41 2z" />
<glyph unicode="Q" horiz-adv-x="1359" d="M8 78q0 -51 49 -82q45 -29 99 -29q150 0 311 94q63 -29 95 -43l32 -14q108 -39 225 -39h12q119 4 193 53q88 57 88 172q0 98 -98 146l-4 -27q45 -29 51 -33q29 -29 29 -86q0 -61 -44.5 -101t-105.5 -40q-109 0 -330 78q143 98 257 195.5t202 195.5q242 267 242 500 q0 147 -115 257.5t-260 110.5q-178 0 -354 -151q-180 -156 -181 -332q0 -94 45 -151q53 -66 140 -66q117 0 207 139q81 123 81 247q0 52 -26.5 88t-73.5 36q-180 0 -250 -301q4 -23 17 -35q8 57 25.5 106.5t43.5 94.5q68 113 164 113q82 0 82 -99q0 -109 -78 -233 q-90 -135 -192 -135q-55 0 -94 57q-33 51 -33 108q0 90 71 209q84 137 164 203q106 86 242 86q98 0 161.5 -54t63.5 -149q0 -109 -74 -288q-63 -158 -110 -205q-115 -160 -299 -344q-39 -39 -79 -77t-81 -75q-8 0 -108 31q-81 24 -152 24h-6q-82 0 -156 -34 q-88 -43 -88 -121zM35 78q0 37 31.5 61.5t70.5 24.5q90 0 287 -72q-134 -110 -266 -110h-2q-43 0 -82 27.5t-39 68.5z" />
<glyph unicode="R" horiz-adv-x="2332" d="M0 537q0 -266 176 -431q169 -155 439 -155h3q229 0 451 92q262 111 340 293q45 100 76 169.5t49 110.5q90 -59 90 -139q0 -23 -2 -56.5t-6 -80.5q-4 -45 -6 -79t-2 -56q0 -115 100 -189q93 -65 208 -65h3q106 0 178 49q82 57 82 162q0 100 -82 215l-16 -12 q73 -125 73 -201q0 -41 -15 -75t-41.5 -58.5t-61.5 -37.5t-74 -13q-78 0 -125 49t-47 127v188q0 90 -35 150q-10 16 -35.5 45.5t-66.5 70.5q203 27 332 113q163 110 163 291q0 154 -161 278q-47 37 -56 43q137 76 316 76q150 0 276 -55l4 12q-145 61 -280 62q-96 0 -191 -21 q-55 -10 -121 -31q-57 -17 -57 -22q0 -2 9 -2h3q-164 98 -399 98q-373 0 -549 -207q-121 37 -221 37q-291 0 -506 -227q-215 -225 -215 -518zM16 537q0 283 211 505q213 225 494 226q88 0 205 -41q-94 -109 -95 -271q0 -329 248 -329h2q90 0 158 32q-49 -225 -190 -362 q-158 -152 -373 -152q-330 0 -477 338q-31 0 -31 11q0 4 2 6q145 -373 506 -373q227 0 389 162q154 150 199 379q76 43 92 114l-10 29q-10 -63 -78 -115q6 27 6 66q0 106 -49 210.5t-131 174.5q-37 31 -133 90q174 199 530 199q234 -1 367 -101q-313 -176 -441 -465 q-82 -190 -138 -318t-85 -198q-172 -374 -574 -374h-2q-268 0 -430 143q-172 150 -172 414zM854 956q0 119 90 258q139 -68 219 -178q86 -121 86 -266q0 -45 -10 -86q-78 -33 -158 -33q-227 0 -227 305zM1542 649q45 209 96 330q106 254 252 338q109 -77 109 -270 q0 -164 -123 -283q-119 -119 -285 -119q-12 0 -24.5 1t-24.5 3z" />
<glyph unicode="S" horiz-adv-x="1454" d="M4 352q0 -279 197 -477q201 -201 475 -201q258 0 448 185v16q-215 -178 -448 -178q-270 0 -461 192q-188 195 -188 463q0 238 127 408q39 51 83 90t97 65q10 -37 24.5 -68.5t34.5 -58.5q-141 -176 -141 -358q0 -188 133 -321q131 -129 324 -129q211 0 362 143 q154 143 154 350q0 109 -49 420q16 0 127 133q122 148 122 236q0 98 -73 110q-12 2 -24 2q-40 0 -73 -26q-83 108 -284 108h-4q-236 0 -428 -143q-211 -156 -209 -373q-121 -82 -187 -160q-139 -176 -139 -428zM272 430v14q0 159 134 326q76 -88 270 -88q117 0 252 63 q33 -66 33 -129q0 -90 -61.5 -159.5t-147.5 -69.5q-92 0 -93 86q0 63 115 74q-45 76 -92 76q-55 0 -92 -42t-37 -100q0 -61 46 -102t110 -41q98 0 188 76q92 76 92 170q0 96 -41 174q63 35 103.5 58.5t60.5 37.5v-98q0 -238 -121 -457q-145 -262 -362 -262q-178 0 -279 160 q-76 119 -78 233zM352 946q6 221 230 369q188 125 385 125q182 -1 270 -101q-49 -23 -82 -104q-29 -74 -29 -133q-94 0 -194.5 -6t-210.5 -21q-225 -29 -369 -129zM354 926q35 20 60.5 33.5t42.5 23.5q113 57 274 74q205 20 393 24l-10 -196q-109 -74 -178 -105 q-33 35 -61.5 58.5t-51.5 35.5q-57 29 -141 29q-147 0 -270 -98q-35 41 -58 121zM426 786q98 98 256 99q139 0 229 -117q-121 -66 -235 -66q-178 0 -250 84zM1169 1081q25 6 47.5 23.5t38 41t24.5 51.5t9 54q0 43 -20 76q6 2 22.5 11.5t26.5 9.5q53 0 53 -70 q0 -170 -196 -350zM1169 1108q0 105 80 207q14 -27 15 -60q0 -45 -25 -90q-33 -55 -70 -57z" />
<glyph unicode="T" horiz-adv-x="2027" d="M4 881l19 -2q10 125 92 286q244 489 725 490q315 0 512 -221q-86 -39 -217 -217q-152 49 -220 49q-311 0 -514 -213q-200 -212 -200 -520q0 -304 207 -510q211 -207 507 -207q311 0 543 164q258 182 354 518q80 322 105 442q49 231 412 279l4 22q-240 -23 -357 -86 q-164 -90 -225 -266q-66 -195 -113 -338t-77 -242q-74 -215 -254 -344q-176 -131 -392 -131q-287 0 -491.5 205t-204.5 491q0 299 199 504q201 207 497 207q43 0 207 -49q-104 -158 -104 -295q0 -164 88 -279q95 -126 250 -126h2q55 0 92 12q-39 -139 -121 -260 q-16 -23 -53 -67t-96 -107l16 -13q225 195 293 473q74 82 84 97q66 100 65 221q0 150 -96 348q-63 131 -125 205q147 37 342 37q160 0 494 -127q330 -125 448 -125q76 0 172 20q6 6 12.5 13.5t14.5 15.5q-109 -23 -166 -23q-133 0 -305 86q-209 106 -309 158 q-182 86 -361 86q-166 0 -375 -96q-209 229 -544 229q-369 0 -617 -291q-205 -242 -219 -503zM1044 903q0 61 43 160q33 82 68 117q311 -164 311 -518q0 -29 -2 -59.5t-6 -63.5q-55 -23 -100 -23q-145 0 -234 125q-80 113 -80 262zM1167 1202q47 55 101.5 102.5t117.5 86.5 q20 -20 49 -67.5t68 -119.5q107 -200 107 -356q0 -170 -117 -277q2 25 3 47.5t1 45.5q0 195 -78 321.5t-252 216.5z" />
<glyph unicode="U" horiz-adv-x="1771" d="M10 707q0 -143 99 -238q100 -96 239 -96q207 0 340 86l-6 12q-141 -80 -334 -80q-131 0 -225 92q-94 94 -94 224q0 203 190 378q213 199 543 199q166 0 264 -80q109 -86 109 -248q0 -74 -105 -221q-66 -92 -115 -159.5t-81 -112.5q-104 -158 -105 -285q0 -80 45 -143 q49 -74 123 -74q125 0 291 201q0 -201 121 -201q150 0 258 141v37q-115 -141 -228 -141q-31 0 -30 33q0 86 227 471q174 297 502 553q399 -424 813 -424q106 0 203 61q106 70 106 174q0 193 -182 303q-156 90 -361 91q-170 0 -270 -27q-78 -18 -301 -105q-141 111 -240 148 q-104 39 -276 39h-94v-12h110q164 0 443 -199q-414 -266 -660 -658q-49 -78 -86 -137t-59 -100q-152 -225 -287 -225q-76 0 -76 94q0 86 99 225q59 82 105 143.5t77 102.5q41 57 65.5 91t32.5 48q35 66 35 150q0 109 -33 194.5t-94 146t-148.5 92.5t-197.5 32 q-342 0 -559 -205q-193 -178 -193 -391zM2083 1094q297 145 534 145q197 0 344 -86q179 -103 179 -287q0 -94 -101 -157q-88 -57 -188 -58q-313 0 -768 443z" />
<glyph unicode="V" horiz-adv-x="1222" d="M4 1018q0 -92 54.5 -164t142.5 -94q-23 29 -41.5 48t-30.5 34q-59 76 -59 162q0 160 112 258q109 96 269 96q154 0 423 -113q-96 -59 -151 -225q-16 -45 -29.5 -110.5t-27.5 -151.5q-8 -203 -13 -453q0 -94 -24 -151q-59 -133 -86 -197q14 -6 37 -6q299 311 520 627 q92 131 223 346q78 123 219 229q201 145 410 145q195 0 321 -96q137 -106 137 -295q0 -195 -139 -362q-143 -174 -338 -174q-150 0 -250 98t-100 246q0 258 250 344v14q0 2 -3 2q-12 0 -67 -28q-200 -108 -200 -330q0 -158 106 -264q106 -104 264 -105q207 0 355 178 q141 168 141 381q0 199 -141 326q-137 121 -338 121q-274 0 -461 -168q-80 -70 -193 -250q-371 -592 -653 -879q221 346 221 516q0 76 -24 228q-25 154 -25 231q0 141 86 207q10 -2 19.5 -3t19.5 -1q96 0 96 53q0 29 -32 29q-47 0 -111 -53l-156 53q-166 57 -286 57 q-178 0 -304 -88q-143 -98 -143 -268zM918 1255q39 39 71 39q21 0 21 -12q0 -31 -62 -31q-10 0 -30 4z" />
<glyph unicode="W" horiz-adv-x="1837" d="M6 1026q0 -172 191 -246q2 6 0 13q-68 53 -95 90q-35 53 -34 125q0 172 120 274q113 92 291 92q172 0 416 -123q-61 -78 -96 -124t-43 -60q-86 -141 -86 -283q0 -193 -7.5 -331t-21.5 -226q-12 -74 -106 -252q0 -22 20 -22h2q31 0 176 147q176 182 260 297 q174 236 295 437v-306q0 -106 -2 -127q-8 -180 -53 -278q-66 -141 -66 -156q0 -12 19 -12q49 0 315 334q117 147 203 263t143 202q193 291 324 397q181 149 446 149h4q186 0 305 -112.5t119 -296.5q0 -188 -131 -350q-137 -174 -321 -174q-162 0 -275 96q-109 98 -108 260 q0 227 266 340l-6 18q-285 -111 -285 -358q0 -168 119 -274.5t289 -106.5q199 0 344 178q135 166 135 371q0 207 -145 336q-139 123 -349 123q-172 0 -358 -113q-186 -111 -272 -260q-188 -328 -381 -567q-74 -92 -144.5 -175t-140.5 -161q53 92 88 151.5t49 87.5 q70 145 70 262q0 35 -6 88.5t-17 122.5q-10 72 -16 125.5t-6 87.5q0 106 80 246q-102 -90 -135 -153q-219 -418 -400 -658q-35 -47 -85 -103.5t-113 -121.5q-41 -41 -82 -81t-82 -81q239 381 239 527q0 85 -24 251q-25 168 -25 254q0 53 98 156q9 -1 18 -1q27 0 58 9 q53 16 53 45q0 27 -49 27q-37 0 -88 -49q6 2 -145 59q-166 61 -283 61q-195 0 -321 -81q-152 -98 -152 -279zM934 1260q27 37 61 38q4 1 8 1q15 0 15 -15q0 -29 -47 -29q-8 0 -17.5 1t-19.5 4z" />
<glyph unicode="X" horiz-adv-x="1503" d="M6 203q0 -117 82 -193q81 -73 196 -73h3q168 0 379 161q47 35 124.5 106.5t188.5 180.5q6 -59 12 -108.5t10 -86.5q35 -243 248 -243h2q55 0 121 30q-4 12 -6 19q-66 -31 -115 -31q-106 0 -106 176q0 90 43 273q43 180 43 254q190 229 283 342l94 112q111 129 250 181 q65 22 88 24l-19 12h-2q-7 0 -43 -8q-49 -12 -92 -31q-188 -78 -522 -417q-45 340 -205 385q-15 5 -41 5q-19 0 -43 -3q-57 51 -125 51q-113 0 -207 -59q-37 -23 -82 -66t-98 -102l10 -13q59 63 105.5 105.5t79.5 62.5q86 55 190 56q57 0 104 -45q-420 -180 -530 -541 q-174 -59 -291 -195q-129 -147 -129 -321zM25 203q0 162 122 307q113 127 277 186q-4 -20 -4 -34q0 -51 32.5 -87t84.5 -36q74 0 153 55q2 -10 3 -19.5t1 -19.5q0 -121 -135 -268.5t-254 -147.5q-47 0 -77.5 31t-30.5 78q0 80 108 205l-12 8q-115 -109 -115 -213 q0 -49 39 -88t88 -39q131 0 273 147q141 150 141 283q0 29 -10 55q131 86 215 234q84 150 84 299q0 49 -17 104q82 -83 82 -194l-39 -416q-172 -207 -271 -323.5t-128 -145.5q-199 -199 -348 -199q-106 0 -185 66q-78 68 -77 172zM438 670q0 12 4 32q14 2 27.5 3.5t28.5 1.5 q131 -1 182 -95q-84 -53 -143 -53q-98 0 -99 111zM446 723q55 174 203 315q137 131 320 203q20 -49 20 -104q0 -141 -88 -287q-84 -137 -203 -225q-59 102 -196 102q-14 0 -27.5 -1t-28.5 -3z" />
<glyph unicode="Y" horiz-adv-x="2148" d="M4 1251q0 -119 117 -194q100 -70 225 -70q92 0 170 27q139 47 375 186q1 -18 1 -36q0 -62 -15 -128q-41 -109 -66 -155l16 -4q84 136 84 283q0 24 -2 48q180 84 336 84q68 0 124 -22.5t97 -62.5t63.5 -96t22.5 -124q0 -106 -82 -237l-153 -240q-82 -137 -82 -279 q0 -102 39 -172q49 -84 143 -84q74 0 164 84q31 31 127 146q-66 -330 -98 -412q-23 -49 -43 -78q-59 55 -99.5 91t-58.5 53q-113 98 -250 161q-170 80 -346 80q-242 0 -428 -116q-215 -139 -215 -365q0 -227 217 -358q188 -115 426 -115q256 0 461 143q190 137 309 375 q537 -508 1038 -508q283 0 480 185q198 183 198 464q0 215 -143 373q-143 162 -356 162q-152 0 -254 -84q-113 -88 -113 -236q0 -125 80 -206q84 -84 209 -84q20 0 20 22q-280 37 -280 266q0 137 104 218q95 71 230 71h4q197 0 335 -153q139 -152 140 -349q0 -268 -193 -446 q-188 -180 -461 -180q-350 0 -716 243q-186 125 -312 263q20 33 43 90q72 174 124 299t87 205q152 377 377 663q309 395 612 395q293 0 328 -245l23 -13v8q0 266 -387 267q-485 0 -897 -670q-16 -29 -53.5 -99.5t-90.5 -185.5q-96 -201 -149 -278q-86 -123 -172 -123 t-86 121q0 68 20 137q35 76 119 205q43 66 72.5 116t46.5 85q55 117 55 225q0 174 -123 297t-297 123q-113 0 -192 -23q-8 -2 -44 -15.5t-102 -37.5q-39 127 -108 194q-106 100 -316 101q-479 0 -479 -275zM18 1251q0 262 465 262h2q326 0 402 -290q-377 -217 -541 -217 q-123 0 -217 61q-111 70 -111 184zM209 -381q0 223 199 352q170 109 405 109q244 0 461 -143q51 -35 120.5 -94.5t159.5 -147.5q-78 -145 -190 -246q-231 -207 -551 -207q-203 0 -381 88q-223 106 -223 289z" />
<glyph unicode="Z" horiz-adv-x="1384" d="M-39 -707q74 -38 191 -38h6q207 0 420 165q233 182 270 426l137 -26l2 18l-141 33q-4 74 -31 137q-35 76 -117 111q160 113 279 209t197 174q274 278 274 520q0 145 -121 242q-109 86 -262 90h-6q-150 0 -332 -99q-35 6 -55 7q-74 0 -228 -50q-92 -29 -196 -122 q-160 -145 -240 -369q0 6 15 -8q66 188 180 311q197 215 461 215h20t21 -2q0 1 -1 1q-9 0 -133 -95q-383 -291 -383 -563q0 -102 68 -178t170 -76q203 0 350 249q131 217 131 435q0 154 -147 237q43 29 129 57.5t133 28.5q104 0 162.5 -66.5t58.5 -170.5q0 -225 -250 -547 q-109 -139 -375 -406q-344 -10 -344 -114q0 -55 80 -56q70 0 314 125q31 0 51 -45q22 -43 22 -73v-3q0 -29 -20 -83l-90 -3q-39 -2 -66 -2h-41q-203 0 -418 -116q-247 -134 -247 -319q0 -107 102 -161zM-127 -547q0 139 190 273q211 147 492 147q45 0 84 -1t74 -3 q-45 -201 -293 -365q-227 -149 -435 -149h-3q-109 0 -109 98zM207 580q0 305 526 655q156 -63 156 -225q0 -203 -127 -420q-145 -246 -336 -246q-90 0 -156 72q-63 70 -63 164zM311 27q0 49 105 71q20 4 43.5 6t52.5 5q14 1 25 1h14q14 -2 18 -4q-163 -108 -218 -108h-1 q-39 0 -39 29z" />
<glyph unicode="[" horiz-adv-x="614" d="M-168 -246h404l24 45h-225l1153 2061h225l25 45h-406z" />
<glyph unicode="\" horiz-adv-x="569" d="M248 1210q0 4 8 -43l197 -1253q14 -100 30 -100q12 0 22.5 18t10.5 33q0 12 -3 33.5t-7 50.5l-211 1225l-2 14q-8 63 -29 63q-16 0 -16 -41z" />
<glyph unicode="]" horiz-adv-x="614" d="M-375 -246h404l1202 2151h-406l-24 -45h225l-1151 -2061h-225z" />
<glyph unicode="^" horiz-adv-x="2048" d="M412 897h80l530 465l526 -465h84l-534 565h-152z" />
<glyph unicode="_" horiz-adv-x="1024" d="M0 -401v-80h1024v80h-1024z" />
<glyph unicode="`" d="M209 1008q0 -57 80 -168q84 -109 125 -109q14 0 14 14q0 6 -20 33q-74 92 -74 170v27q0 18 2 43q0 72 -55 72q-72 0 -72 -82z" />
<glyph unicode="a" d="M-106 172q0 -201 137 -201q106 0 194 119q55 -119 156 -119q150 0 539 475l-17 15q-51 -61 -110.5 -127t-130.5 -135q-199 -199 -269 -199q-45 0 -45 41q0 29 35 94l268 504q-6 -2 -35 -31q-25 -25 -32 -24q-14 0 -43 6t-43 6q-18 0 -43 -31q-35 49 -105 49 q-172 0 -315 -135q-141 -135 -141 -307zM12 68q0 111 117 299q131 211 252 211q43 -1 43 -50q0 -37 -209 -393q-80 -135 -162 -135q-41 0 -41 68z" />
<glyph unicode="b" horiz-adv-x="817" d="M-70 127q0 -66 35 -111t101 -45q102 0 235 95q127 90 182 184q236 1 381 196l-16 15q-137 -180 -352 -187q49 74 49 187q0 153 -152 153h-2q-57 0 -90 -69q-25 -53 -25 -119q0 -117 74 -156q-37 -78 -110 -166q-86 -106 -139 -106h-5q-66 4 -65 63q0 61 102 256l143 273 q115 43 295 217q233 223 234 410q0 31 -17.5 58.5t-46.5 27.5q-176 0 -520 -469q-53 -72 -100 -152t-88 -172q-102 -227 -103 -383zM289 625q41 90 75.5 160.5t63.5 123.5q27 45 57.5 93.5t65.5 101.5q106 156 145 156q23 -1 23 -55v-9q-2 -76 -119 -260 q-139 -221 -311 -311zM305 426q0 51 14 94q20 61 60 62q39 0 39 -74q0 -70 -21.5 -127t-34.5 -86q-57 43 -57 131z" />
<glyph unicode="c" horiz-adv-x="796" d="M98 -29q211 0 424 150q179 124 320 325l-17 15q-70 -94 -147.5 -173t-167.5 -143q-210 -149 -409 -149h-3q-92 0 -92 76q0 115 125 313q131 209 223 209q70 0 70 -43q0 -18 -22.5 -43t-41.5 -25q-27 0 -59 27q-20 -27 -20 -70q0 -53 73 -53q47 0 85 37t38 84t-38 76.5 t-85 29.5q-168 0 -305 -114q-155 -130 -155 -343q0 -185 204 -186z" />
<glyph unicode="d" horiz-adv-x="884" d="M-102 158q0 -68 41 -125q45 -61 108 -62q57 0 92 29q18 14 94 104q29 -76 58 -102q39 -37 106 -37q74 0 203 123q45 43 127 132t205 226l-17 15q-106 -119 -185 -203t-132 -135q-131 -125 -192 -125q-43 0 -44 51q0 45 232 473q164 80 377 301q231 244 231 394 q0 71 -57 71h-2q-139 0 -375 -303q-139 -178 -285 -426q-55 55 -104 55q-197 0 -336 -131q-145 -133 -145 -325zM10 68q0 104 135 307q139 213 234 213q20 0 40.5 -18t20.5 -38q0 -74 -170 -315q-35 -51 -62.5 -89t-45.5 -65q-52 -65 -105 -65h-2q-45 0 -45 70zM629 586 q374 661 450 661q37 0 37 -45q0 -106 -133 -289q-145 -201 -354 -327z" />
<glyph unicode="e" horiz-adv-x="630" d="M-106 154q0 -78 51 -130.5t127 -52.5q147 0 364 199q168 155 240 276l-17 15q-39 -63 -98 -132t-145 -143q-209 -184 -344 -184q-55 0 -56 76q0 63 37 143q94 0 238 66q186 86 186 215q0 47 -34.5 79.5t-82.5 32.5q-143 0 -292 -122q-174 -143 -174 -338zM74 270 q160 317 258 318q43 0 43 -47q0 -72 -113 -172q-115 -98 -188 -99z" />
<glyph unicode="f" horiz-adv-x="485" d="M-918 -526q0 -82 58.5 -133.5t144.5 -51.5q160 0 312 164q141 154 327 504q68 137 135.5 273.5t137.5 273.5h145l20 37h-112q168 88 325 258q185 198 185 360q0 29 -25.5 52.5t-54.5 23.5q-125 0 -346 -283q-70 -90 -138.5 -192.5t-136.5 -218.5h-122l-21 -37h121 q-55 -102 -129 -252t-168 -348q-150 -322 -223 -428q-115 -164 -232 -164q-66 0 -116 39q-57 39 -58 104q0 45 31 105q33 67 75 67h1q43 0 43 -53q0 -25 -64 -33q31 -53 68 -53q43 0 77.5 26.5t34.5 69.5q0 41 -29.5 73t-70.5 32q-80 0 -137 -68q-57 -66 -58 -147zM219 541 q66 147 209 385q168 276 217 276q35 0 35 -59q0 -96 -98 -240q-127 -188 -363 -362z" />
<glyph unicode="g" horiz-adv-x="710" d="M-383 -500q0 -35 15.5 -63.5t40 -48t57 -30.5t69.5 -11q113 0 203 108q76 88 133 238q63 156 90 229q369 233 531 524l-17 15q-88 -147 -214 -271t-292 -231q53 129 94.5 216t69.5 136q55 98 104.5 180t92.5 148q-2 -2 -11.5 -10t-25.5 -23q-35 -29 -37 -28q-6 0 -31.5 9 t-46.5 9q-16 0 -43 -18q-34 36 -78 36h-2q-156 0 -295 -145t-139 -299q0 -199 146 -199q51 0 123 84l-62 -159q-166 -59 -291 -146q-184 -127 -184 -250zM-352 -494q0 94 155 211q140 105 279 146q-51 -156 -145 -287q-105 -149 -202 -149h-1q-35 0 -60.5 22.5t-25.5 56.5z M4 55q0 106 117 314q123 215 209 215q37 0 37 -39q0 -74 -123 -297q-133 -244 -203 -244q-37 0 -37 51z" />
<glyph unicode="h" horiz-adv-x="700" d="M-244 -51q14 10 45 37q20 16 33 16q10 0 35 -7t39 -7q27 0 82 100q76 139 116.5 215t51.5 92q35 57 94 105q72 59 123 59q16 0 16 -20q0 -23 -133 -224q-131 -199 -131 -247q0 -45 34 -71t79 -26q92 0 245 160q27 29 92.5 106.5t170.5 208.5l-17 15 q-102 -121 -161.5 -189.5t-77.5 -89.5q-158 -166 -218 -166q-29 0 -28 37l133 205q135 203 135 270q0 86 -84 86q-102 0 -264 -153q16 35 26.5 57.5t14.5 32.5q72 37 155.5 99.5t178.5 154.5q258 247 258 440q0 61 -74 62q-139 0 -424 -412q-160 -233 -328 -537 q-92 -170 -217 -409zM231 606q203 346 271 455q131 205 184 205q21 -1 21 -52q0 -109 -123 -276q-137 -188 -353 -332z" />
<glyph unicode="i" horiz-adv-x="483" d="M-137 92q0 -121 127 -121q137 0 538 475l-16 15q-74 -90 -227 -246q-201 -203 -248 -203t-47 54q0 37 18 77l260 496q-8 -2 -41 -33q-29 -29 -37 -28q-6 0 -26.5 9t-42.5 9q-31 0 -55 -43q-41 -76 -73 -132t-54 -95q-76 -139 -76 -234zM227 815q0 -33 22.5 -56.5 t55.5 -23.5q41 0 71 37t30 80q0 31 -22 50.5t-52 19.5q-43 0 -74 -32t-31 -75z" />
<glyph unicode="j" horiz-adv-x="405" d="M-723 -524q0 -70 59 -111q51 -39 125 -39q180 0 289 232q47 115 83 199.5t58 142.5q82 53 222.5 189t339.5 357l-17 15q-203 -217 -337 -348t-201 -183l370 709q-10 -2 -41 -33q-27 -27 -37 -26q-12 0 -33.5 9t-31.5 9q-35 0 -76 -72q-182 -317 -301 -659 q-76 -16 -149.5 -51t-145.5 -86q-176 -127 -176 -254zM-696 -518q0 109 164 225q153 111 266 119q-31 -96 -111 -221q-125 -199 -233 -199q-86 0 -86 76zM201 809q0 -78 75 -78q45 0 77 35t32 80q0 76 -72 76q-43 0 -77.5 -35t-34.5 -78z" />
<glyph unicode="k" horiz-adv-x="694" d="M-248 -53q10 4 41 30q27 25 37 25t31.5 -7t34.5 -7q37 0 77 71q41 82 72 139.5t51 90.5h76q61 -4 61 -19q0 -16 -40 -108q-39 -84 -39 -113q0 -35 26.5 -56.5t63.5 -21.5q90 0 266 191q29 29 86 100.5t145 183.5l-16 15q-354 -442 -426 -443q-23 0 -23 17q0 10 43 88 q43 76 43 104q0 25 -36 80q215 113 215 228q0 79 -80 79h-2q-98 0 -269 -143q25 39 41.5 64.5t24.5 35.5q145 66 354 281q232 242 232 387q0 29 -28 46.5t-56 17.5q-133 0 -436 -406q-117 -154 -196 -270.5t-122 -202.5q-66 -129 -129 -247t-123 -230zM111 319 q27 57 110 136q88 86 141 86q44 0 44 -39q0 -55 -56 -107q-82 -76 -219 -76h-20zM283 621q31 94 200 360q180 285 238 285q22 0 22 -37v-6q-4 -102 -147 -301q-158 -213 -313 -301z" />
<glyph unicode="l" horiz-adv-x="479" d="M-84 141q0 -72 27 -116q31 -54 88 -54h6q150 8 295 176q41 47 89 121t105 178l-16 15q-74 -137 -176 -268q-143 -180 -242 -181q-43 0 -43 49q0 102 64 244q33 72 57.5 127t40.5 90q272 156 451 424q139 211 143 332q0 27 -18.5 50.5t-45.5 23.5q-113 0 -362 -318 q-92 -117 -164 -222t-127 -204q-172 -305 -172 -467zM254 590q68 182 227.5 450.5t206.5 268.5q29 0 29 -43q0 -98 -135 -320q-158 -256 -328 -356z" />
<glyph unicode="m" horiz-adv-x="1091" d="M-260 -53q59 59 74 59q10 0 39.5 -8t46.5 -8q27 0 100 147q94 180 147 238q178 188 234 188q23 0 22 -28q0 -25 -305 -588q59 59 74 59q10 0 32.5 -8t35.5 -8q37 0 55 28q47 82 89 161t83 157q186 227 240 227q37 0 36 -35q0 -25 -122 -211q-123 -184 -123 -219 q0 -53 34.5 -90t88.5 -37q63 0 131 56q33 27 135 141l250 278l-17 15l-248 -277q-162 -180 -210 -180q-41 0 -41 49q0 18 30 68l199 321q35 59 35 72q0 39 -28 69.5t-66 30.5q-66 0 -115 -30q-35 -23 -129 -111v6q0 135 -92 135q-123 0 -291 -172l104 197q-14 -4 -39 -29 q-27 -27 -34 -26q-12 0 -39 6t-41 6q-27 0 -41 -27q-10 -12 -49 -86z" />
<glyph unicode="n" horiz-adv-x="790" d="M-248 -53q59 59 76 59q10 0 35.5 -8t40.5 -8q27 0 82 92q16 29 31.5 59.5t31.5 61.5q33 53 70 105t82 106q125 143 205 143q31 0 30 -18q0 -16 -28 -62l-170 -260q-43 -66 -43 -117v-8q8 -123 118 -123q92 0 207 123q147 164 225.5 252t90.5 102l-17 15l-301 -332 q-111 -123 -170 -123q-43 0 -43 37q0 10 37 70l190 297q39 59 39 110q0 94 -94 94q-111 0 -307 -172l104 197q-8 -2 -41 -33q-27 -27 -34 -26q-10 0 -33 8t-39 8q-35 0 -61 -49z" />
<glyph unicode="o" horiz-adv-x="755" d="M-102 160q0 -37 11 -71t32.5 -59.5t49 -42t62.5 -16.5q125 0 256 97q96 76 150 159q61 18 92 31q182 102 252 188l-17 15q-66 -63 -127 -108.5t-120 -71.5q-43 -20 -62 -23q10 23 18.5 41t12.5 29q18 45 18 94q0 78 -45 135t-121 57q-176 0 -319 -141 q-143 -137 -143 -313zM14 66q0 109 119 309q125 215 221 215q49 0 49 -51q0 -106 -79 -275q-63 10 -78 62q55 6 55 41q0 43 -43 43q-63 0 -63 -66q0 -63 112 -100q-147 -246 -254 -246q-39 0 -39 68z" />
<glyph unicode="p" horiz-adv-x="761" d="M-635 -741l86 75q59 -26 100 -26h3q41 0 129 217q68 166 125 289t104 209q18 -92 88 -93q68 0 145 54q41 -47 93 -47q147 0 331 190q131 135 240 319l-16 15q-104 -172 -236 -309q-182 -190 -319 -191q-35 0 -68 39q301 221 301 446q0 66 -35 113q-41 55 -100 55 q-63 0 -103 -39l35 64q-10 -2 -41 -33q-27 -27 -37 -26q-10 0 -33.5 8t-35.5 8q-29 0 -43 -18q-61 -111 -150.5 -275t-206.5 -385q-117 -223 -205.5 -386t-150.5 -273zM-57 68q0 24 49 24h4q43 0 96 -49l-45 -43q-20 -14 -49 -14q-25 0 -40 27.5t-15 54.5zM-37 113 q47 113 125 241q131 217 219 217q41 0 41 -43q0 -80 -88 -241q-37 -66 -73.5 -121t-71.5 -100q-72 53 -101 53q-37 0 -51 -6z" />
<glyph unicode="q" horiz-adv-x="759" d="M-115 -524q0 -178 133 -178q131 0 230 176q88 156 88 297q0 35 -25 112q-12 35 -24.5 61.5t-22.5 45.5q180 47 316 170q53 51 109.5 121.5t115.5 164.5l-17 15q-152 -219 -284 -326q-92 -72 -234 -119l361 623q-10 -4 -37 -30.5t-39 -26.5t-34.5 7t-35.5 7q-31 0 -49 -18 q-46 36 -84 36h-2q-162 0 -305 -135q-145 -135 -145 -295q0 -213 125 -213q68 0 163 76q-141 -201 -184 -270q-119 -199 -119 -301zM25 72q0 100 122 295q128 204 219 204h1h2q34 0 34 -30q0 -45 -20 -86q-53 -117 -107.5 -211t-107.5 -166q-47 -61 -90 -62q-53 0 -53 56z M41 -530q0 133 59 262q8 18 43 77.5t97 161.5q65 -130 65 -200q0 -90 -55 -228q-66 -159 -138 -159h-1q-70 0 -70 86z" />
<glyph unicode="r" horiz-adv-x="602" d="M-27 506q0 -78 50 -78q35 0 75 31q39 33 54 33q8 0 8 -15q0 -23 -86 -166q-86 -145 -84 -190q2 -150 108 -150q158 0 324 172q92 94 227 303l-16 15q-307 -442 -469 -443q-53 0 -53 56q0 20 39 84l161 276q43 74 43 101q0 33 -20.5 56t-50.5 23q-37 0 -88 -39l-127 -102 q71 83 71 139q0 49 -49 50q-45 0 -82 -56q-35 -53 -35 -100zM6 506q0 33 27 78q29 47 57 47q19 -1 19 -19q0 -41 -80 -141q-23 0 -23 35z" />
<glyph unicode="s" horiz-adv-x="507" d="M-281 111q0 -143 162 -144q131 0 228 111q119 18 198 72q117 79 246 296l-16 15q-119 -197 -224 -275q-72 -53 -192 -80q37 57 37 187q0 82 -62 223q63 113 64 158q0 37 -51 37q-55 0 -86 -74q-23 -61 -23 -123q0 -39 18 -108q20 -63 21 -91q0 -49 -21 -98 q-20 -57 -55 -82q-16 6 -69 53q-43 37 -76 37q-45 0 -72 -34.5t-27 -79.5zM-205 147q0 41 37 41q12 0 53 -30q44 -37 58 -43q-15 -28 -54 -28q-13 0 -28 3q-66 12 -66 57zM72 606q4 84 39 86h5q19 0 19 -22q0 -57 -51 -129q-13 20 -13 50q0 7 1 15z" />
<glyph unicode="t" horiz-adv-x="483" d="M-131 104q0 -49 29 -90q31 -43 79 -43q190 0 359 217q78 100 126 164.5t66 93.5l-16 15q-72 -92 -120 -156.5t-77 -99.5q-25 -33 -55.5 -62.5t-66.5 -58.5q-94 -72 -152 -72q-20 0 -36.5 28t-16.5 50q0 27 45 109l213 372h153l13 31h-154l207 363h-23q-47 -72 -82.5 -122 t-58.5 -79q-82 -98 -182 -162h-164l-33 -31h150l-160 -325q-43 -86 -43 -142z" />
<glyph unicode="u" horiz-adv-x="851" d="M-115.5 -1q29.5 -28 74.5 -28q74 0 125 39q33 25 125 131q16 -170 121 -170q141 0 336 191q63 63 120.5 133.5t110.5 150.5l-16 15q-47 -66 -101.5 -131.5t-115.5 -128.5q-176 -182 -267 -183q-53 0 -53 41q0 31 33 91l260 489q-12 -4 -39 -30.5t-35 -26.5q-12 0 -36.5 7 t-37.5 7q-33 0 -47 -27l-159 -284q-16 -29 -43 -68t-66 -86q-94 -119 -131 -119q-51 0 -51 54q0 41 35 114l243 459q-10 -4 -36.5 -30.5t-36.5 -26.5q-12 0 -36 7t-32 7q-39 0 -55 -29l-152 -278q-67 -121 -67 -214q0 -48 29.5 -76z" />
<glyph unicode="v" horiz-adv-x="772" d="M-133 86q0 -45 33.5 -80t79.5 -35q154 0 303 107q129 94 166 184q186 8 368 184l-16 15q-197 -172 -336 -172q57 78 57 184q0 53 -33 105q-35 53 -83 53q-63 0 -109 -68q-41 -59 -41 -125q0 -72 66 -149q-139 -289 -267 -289q-63 0 -63 78q0 31 28 92l244 467 q-12 -2 -41 -31q-25 -27 -30 -26q-10 0 -36 8t-40 8q-29 0 -45 -29l-146 -268q-59 -109 -59 -213zM281 436q0 45 24 92q27 55 70 56q49 0 49 -92q0 -31 -86 -179q-57 70 -57 123z" />
<glyph unicode="w" horiz-adv-x="1130" d="M-143 104q0 -53 28.5 -93t79.5 -40q70 0 141 47q57 41 144 140q-12 -41 -12 -76q0 -25 8 -39q37 -72 121 -72q119 0 258 84q129 84 198 189q271 50 355 202l-17 15q-25 -61 -145 -123q-104 -53 -176 -64q63 94 63 197q0 55 -33 102q-33 57 -86 58q-74 0 -116 -64 q-41 -57 -41 -131q0 -96 67 -160q-145 -276 -276 -276q-57 0 -58 66q0 41 39 112l244 461q-10 -2 -39 -31q-27 -27 -37 -26q-12 0 -37.5 7t-37.5 7q-29 0 -46 -29l-155 -288q-55 -104 -133 -183q-84 -84 -142 -84q-30 0 -30 51q0 38 26 89l258 487q-12 -4 -38.5 -30.5 t-34.5 -26.5q-14 0 -40 7t-40 7q-29 0 -51 -41l-162 -301q-47 -88 -47 -150zM655 436q2 31 7 58q20 94 79 94q39 0 39 -43q0 -49 -22 -127q-20 -70 -53 -113q-51 43 -50 131z" />
<glyph unicode="x" horiz-adv-x="796" d="M-297 41q0 -70 74 -70q82 0 258 201q72 -201 184 -201q252 0 623 475l-17 15q-104 -141 -252 -273q-187 -165 -289 -165h-1q-113 0 -113 344q8 20 100 88q105 73 170 73h2q43 0 109 -49q33 53 33 80q0 55 -80 55q-61 0 -158 -65q-27 -18 -71 -54t-105 -89l-4 268 q-8 -2 -21 -35q-10 -31 -18 -31h-72q-47 0 -47 -88q0 -10 2 -46t6 -101q4 -63 6.5 -101.5t2.5 -50.5q-23 -37 -72 -92q-72 -74 -111 -74q-37 0 -90 60q-49 -41 -49 -74z" />
<glyph unicode="y" horiz-adv-x="784" d="M-408 -453q0 -70 48.5 -113.5t117.5 -43.5q111 0 207 96q37 39 74 91t72 122q39 76 67.5 131t46.5 92q117 63 185 125q51 47 88 83t61 58q211 199 270 258l-16 15l-270 -254l-142 -135q-41 -35 -79.5 -66t-77.5 -53q143 195 266 426l135 260q-10 -4 -39 -33 q-27 -27 -37 -26q-12 0 -35.5 8t-37.5 8q-31 0 -58 -49l-215 -385q-35 -66 -117 -111q-66 -37 -92 -37q-28 0 -28 54q0 41 32 104l250 467q-6 -2 -37 -33q-27 -27 -36 -26q-12 0 -38 8t-42 8q-31 0 -58 -49l-166 -311q-35 -66 -34 -127q0 -137 108 -138q68 0 201 101 l-86 -172q-221 -72 -330 -136q-158 -96 -158 -217zM-391 -451q0 111 149 199q45 27 124 59.5t192 71.5q-59 -100 -99.5 -161.5t-56.5 -86.5q-125 -168 -223 -168q-86 0 -86 86z" />
<glyph unicode="z" horiz-adv-x="638" d="M-537 -551q0 -74 46.5 -114t119.5 -40q195 0 351 146q153 142 153 335q0 90 -10 136q313 149 563 534l-16 15q-281 -393 -559 -529q-10 39 -56 93q86 27 191 143q129 143 129 297q0 61 -39 105t-98 44q-137 0 -238 -198v-35q86 121 145 121q74 0 74 -72q0 -96 -72 -229 q-61 -115 -110 -154q-66 37 -131 37q-27 0 -54.5 -15.5t-27.5 -39.5q0 -49 74 -49q41 0 112 26q12 -31 13 -112q-190 -51 -349 -154q-211 -135 -211 -291zM-483 -598q0 139 192 295q167 135 314 172q0 -141 -132 -340q-145 -213 -276 -213q-39 0 -68.5 24.5t-29.5 61.5z M-150 29q0 37 51 37h5q45 -4 92 -39q-68 -29 -96 -29h-4q-47 4 -48 31z" />
<glyph unicode="{" horiz-adv-x="1024" d="M176 608q162 -12 221 -69q63 -57 64 -215v-222q0 -201 86 -276q80 -68 287 -68h10v45q-156 4 -209 57.5t-53 205.5v147q0 207 -52 289q-63 98 -251 133q188 35 251 133q51 82 52 289v147q0 154 53 207t209 57v48h-10q-209 0 -287 -70q-86 -74 -86 -277v-221 q0 -158 -62 -215q-59 -53 -223 -69v-56z" />
<glyph unicode="|" horiz-adv-x="1024" d="M467 -481h90v2046h-90v-2046z" />
<glyph unicode="}" horiz-adv-x="1024" d="M178 -197v-45h10q209 0 287 70q88 74 88 274v222q0 158 66 217q57 55 219 67v56q-164 14 -221 67q-63 57 -64 217v221q0 203 -88 277q-78 70 -287 70h-10v-48q156 -4 209 -57q55 -53 55 -207v-147q0 -207 52 -289q63 -98 251 -133q-186 -33 -251 -133q-51 -82 -52 -289 v-147q0 -154 -55 -205q-53 -53 -209 -58z" />
<glyph unicode="~" horiz-adv-x="1705" d="M178 481q223 160 387 160q88 0 256 -59q12 -4 20.5 -7.5t12.5 -5.5l23 -8q168 -61 266 -61q174 0 387 147v92q-227 -160 -387 -159q-86 0 -307 77q-170 61 -271 62q-180 0 -387 -146v-92z" />
<glyph unicode="&#xa1;" horiz-adv-x="671" d="M-4 59q0 -78 51 -77q49 0 109 71q23 29 39 58.5t30 62.5q92 223 167 398.5t132 306.5q23 47 37 77.5t25 47.5h-23q-139 -227 -221 -345q-84 -121 -133 -192.5t-66 -95.5q-147 -234 -147 -312zM637 1270q0 -102 86 -103q47 0 83 38t36 85q0 102 -86 103q-47 0 -83 -38 t-36 -85z" />
<glyph unicode="&#xa2;" horiz-adv-x="727" d="M8 453q0 -133 115 -170l-98 -185l32 -14l101 188q90 -4 147 23q23 10 53.5 32.5t69.5 55.5l-18 27q-109 -90 -177 -91q-39 0 -63.5 33t-24.5 72q0 135 109 291q147 209 262 209q86 0 86 -68q0 -29 -23.5 -57.5t-52.5 -28.5t-28 39q0 18 34 41q-27 23 -43 22 q-90 0 -90 -104q0 -82 99 -82q63 0 105 44.5t42 107.5q0 111 -108 145l73 137l-32 10l-74 -137q-295 0 -438 -309q-57 -121 -58 -231z" />
<glyph unicode="&#xa3;" horiz-adv-x="2002" d="M8 131q0 -96 103 -143q76 -37 186 -37q125 0 319 115q170 -86 269 -121q143 -49 291 -49q248 0 458 145q230 161 230 403q0 176 -178 281l-13 -23q158 -117 158 -258q0 -217 -201 -325q-158 -84 -395 -84q-233 0 -510 96q174 229 217 358h555v70h-534q16 84 30.5 166 t28.5 164q49 254 115 393q90 188 221 188q135 0 135 -122q0 -139 -158 -322q88 35 152 129q66 100 65 191q0 74 -63 112q-51 33 -131 33q-170 0 -301 -184q-51 -70 -97.5 -167.5t-91.5 -224.5q-27 -90 -53.5 -178t-52.5 -178h-590v-70h567q-23 -63 -59.5 -140t-89.5 -169 q-213 113 -338 113q-88 0 -158 -39q-86 -47 -86 -123zM74 129q0 47 55 88q35 27 113 27q159 0 352 -125q-74 -70 -141.5 -99.5t-159.5 -29.5q-106 0 -154 33q-66 47 -65 106z" />
<glyph unicode="&#xa4;" horiz-adv-x="1241" d="M94 418l58 -60l206 207q117 -92 263 -92q143 0 264 92l205 -207l59 60l-207 205q92 117 92 262q0 141 -92 262l207 205l-59 59l-205 -207q-119 94 -264 94q-147 0 -263 -94l-206 207l-58 -59l207 -205q-92 -121 -92 -262q0 -145 92 -262zM291 887q0 137 96 233 q101 97 236 97q139 0 235 -96.5t96 -233.5q0 -139 -96 -235.5t-235 -96.5t-235.5 96.5t-96.5 235.5z" />
<glyph unicode="&#xa5;" horiz-adv-x="2148" d="M4 1251q0 -119 117 -194q100 -70 225 -70q92 0 170 27q139 47 375 186q6 -78 -14 -164q-41 -109 -66 -155l16 -4q98 158 82 331q180 84 336 84q68 0 124 -22.5t97 -62.5t63.5 -96t22.5 -124q0 -106 -82 -237q-10 -16 -26.5 -42t-38.5 -61h-424v-69h377q-47 -74 -68 -117 h-309v-70h281q-27 -78 -27 -160q0 -102 39 -172q49 -84 143 -84q74 0 164 84q31 31 127 146q-66 -330 -98 -412q-23 -49 -43 -78q-59 55 -99.5 91t-58.5 53q-113 98 -250 161q-170 80 -346 80q-242 0 -428 -116q-215 -135 -215 -365q0 -227 217 -358q188 -115 426 -115 q256 0 461 143q190 137 309 375q537 -508 1038 -508q283 0 480 185q199 184 198 464q0 215 -143 373q-143 162 -356 162q-152 0 -254 -84q-113 -88 -113 -236q0 -125 80 -206q84 -84 209 -84q20 0 20 22q-281 37 -280 268q0 135 104 216q96 72 234 71q197 0 335 -153 q139 -152 140 -349q0 -268 -193 -446q-188 -180 -461 -180q-350 0 -716 243q-186 125 -312 263q20 33 43 90q106 256 171 409.5t87 206.5h412v70h-379q14 29 28.5 58.5t29.5 58.5h321v69h-283q131 227 285 393q279 297 528 297q293 0 328 -245l23 -13q6 274 -387 275 q-485 0 -897 -670q-4 -8 -9.5 -17.5t-11.5 -19.5h-278l6 15q55 113 55 225q0 174 -123 297t-297 123q-113 0 -192 -23q-8 -2 -44 -15.5t-102 -37.5q-39 127 -108 194q-106 100 -316 101q-479 0 -479 -275zM18 1251q0 262 465 262q328 1 404 -290q-377 -217 -541 -217 q-123 0 -217 61q-111 70 -111 184zM209 -381q0 223 199 352q170 109 405 109q244 0 461 -143q51 -35 120.5 -94.5t159.5 -147.5q-78 -145 -190 -246q-231 -207 -551 -207q-203 0 -381 88q-223 106 -223 289zM1352 119q0 68 20 137q20 51 74 135h309q-47 -98 -83 -164.5 t-62 -105.5q-86 -123 -172 -123t-86 121zM1491 461l2 2q20 33 37.5 61.5t34.5 53.5h280q-10 -23 -25.5 -52.5t-31.5 -64.5h-297z" />
<glyph unicode="&#xa6;" horiz-adv-x="1024" d="M467 -348h90v756h-90v-756zM467 674h90v758h-90v-758z" />
<glyph unicode="&#xa7;" horiz-adv-x="935" d="M57 -162q0 -66 150 -65q70 0 143 24q147 53 223 172q49 80 50 156q0 41 -14.5 82t-63.5 108q231 96 231 301q2 139 -125 295l-153 189q-90 113 -90 198q0 43 18 78q66 121 258 121q31 0 66 -6q98 -14 106 -12q27 8 27 41q0 61 -144 61q-72 0 -141 -25q-145 -53 -217 -170 q-49 -78 -49 -153q0 -43 15 -86t65 -109q-238 -92 -238 -303q0 -59 21 -114q27 -82 108 -179l152 -186q57 -72 80 -129q29 -84 -9 -147q-66 -121 -254 -121q-41 0 -73 8q-102 18 -111 16q-31 -10 -31 -45zM229 780q0 145 203 226l217 -265q74 -90 74 -170q0 -145 -203 -225 l-217 268q-74 88 -74 166z" />
<glyph unicode="&#xa8;" horiz-adv-x="722" d="M227 815q0 -33 22.5 -56.5t55.5 -23.5q41 0 71 37t30 80q0 31 -22 50.5t-52 19.5q-43 0 -74 -32t-31 -75zM514 815q0 -33 22.5 -56.5t55.5 -23.5q41 0 70.5 37t29.5 80q0 31 -21.5 50.5t-52.5 19.5q-43 0 -73.5 -32t-30.5 -75z" />
<glyph unicode="&#xa9;" horiz-adv-x="1683" d="M152 678q0 -289 202 -488q205 -201 488 -200q141 0 264 51q186 76 307 254q119 176 119 383q0 291 -203 491q-204 201 -485 201q-137 0 -266 -53q-197 -84 -312 -256q-115 -174 -114 -383zM229 678q0 254 179 436q180 184 436 184q254 0 432 -180q180 -178 180 -440 q0 -250 -182 -438q-174 -180 -432 -181q-252 0 -432.5 180.5t-180.5 438.5zM432 664q0 -170 113 -295q113 -123 282 -123q221 0 336 207l-30 20q-109 -172 -287 -172q-276 0 -277 383q0 377 258 377q219 0 285 -275h37v308h-31q-10 -61 -65 -62q-12 0 -92 33q-82 35 -138 35 q-176 0 -282 -131q-109 -131 -109 -305z" />
<glyph unicode="&#xab;" horiz-adv-x="1767" d="M10 532q0 -154 129 -260q121 -102 275 -102q94 0 297 86q45 -59 91 -99t96 -65.5t108.5 -37t132.5 -11.5q147 0 268 68q143 80 143 219q0 90 -100 147q-80 43 -184 47q-53 55 -86 74q-16 10 -43 20.5t-66 20.5q63 117 195 117q119 0 231 -82q69 -51 184 -174v22 q-113 139 -186 197q-119 90 -250 90q-184 0 -223 -160q-113 10 -207 -35q-145 -66 -145 -231q0 -39 28 -102q-170 -68 -274 -68q-133 0 -248 102q-113 104 -113 238q0 111 89 186q88 80 198 80q100 0 185 -59q92 -68 92 -164q0 -72 -49.5 -121t-120.5 -49q-43 0 -75 27.5 t-32 68.5q0 63 53 64q23 0 54 -33q10 25 10 43q0 39 -28.5 62.5t-67.5 23.5q-55 0 -91 -41t-36 -98q0 -35 16 -63.5t43 -50t61.5 -34t71.5 -12.5q84 0 148 63q66 66 65 150q0 111 -94 178q-92 68 -205 68q-143 0 -237 -82q-102 -90 -103 -228zM733 416q0 113 90 172 q78 51 199 41q6 -74 41 -137q-94 -57 -170 -103.5t-135 -83.5q-25 70 -25 111zM770 283q104 59 181 105t124 79q63 -94 148 -94q76 0 75 69q0 29 -22 58q94 -10 162 -45q94 -49 94 -125q0 -115 -121 -193q-102 -63 -229 -63q-246 0 -412 209zM1067 618q102 -24 170 -92 q-98 -4 -137 -24q-33 63 -33 116zM1108 477q55 20 94 23h53q11 -27 11 -43q0 -51 -43 -51q-68 0 -115 71z" />
<glyph unicode="&#xac;" horiz-adv-x="1705" d="M254 774h1120v-420h78v502h-1198v-82z" />
<glyph unicode="&#xad;" horiz-adv-x="548" d="M37 309q0 -12 12 -12q10 0 30.5 7t31.5 7q33 0 104 -12q35 -4 61.5 -7t42.5 -3q88 0 132 45q28 32 28 55q0 12 -8 12q-12 0 -49 -7t-60 -7q-12 0 -32.5 2t-43 5t-44 6t-33.5 3q-47 0 -121 -43q-51 -31 -51 -51z" />
<glyph unicode="&#xae;" horiz-adv-x="1683" d="M152 678q0 -289 202 -488q205 -201 488 -200q141 0 264 51q186 76 307 254q119 176 119 383q0 291 -203 491q-204 201 -485 201q-137 0 -266 -53q-197 -84 -312 -256q-115 -174 -114 -383zM229 678q0 254 179 436q180 184 436 184q254 0 432 -180q180 -178 180 -440 q0 -250 -182 -438q-174 -180 -432 -181q-252 0 -432.5 180.5t-180.5 438.5zM469 293h385v39q-72 2 -98 18q-39 20 -39 84v248h20q8 2 19 2q180 0 223 -127q10 -31 10 -102q2 -37 5 -65t12 -46q27 -70 124 -70q150 0 150 177v8h-37q-4 -129 -80 -129q-41 0 -55 88 q-6 41 -12 59q-43 160 -211 215q291 55 291 199q0 104 -111 158q-80 39 -205 38h-391v-36q70 -4 98 -19q39 -25 39 -86v-512q0 -63 -39 -84q-29 -16 -98 -18v-39zM717 717v264q0 76 112 76q88 0 148 -37q70 -45 70 -129q0 -176 -263 -176h-39t-28 2z" />
<glyph unicode="&#xb0;" horiz-adv-x="940" d="M86 868q0 -143 131 -143q125 0 234 123q110 125 110 252q0 119 -125 119q-111 0 -231 -121q-119 -119 -119 -230zM211 825q0 86 80 207q86 131 166 131q53 0 53 -84q0 -100 -107 -207q-96 -96 -151 -96q-41 0 -41 49z" />
<glyph unicode="&#xb1;" horiz-adv-x="1705" d="M254 59h1198v82h-1198v-82zM254 727h559v-352h80v352h559v80h-559v354h-80v-354h-559v-80z" />
<glyph unicode="&#xb4;" d="M401 731q1 -14 19 -14q35 0 147 69q188 115 189 218q0 61 -62 61q-45 0 -82 -96q-20 -53 -41 -80q-14 -25 -102 -74q-68 -41 -68 -84z" />
<glyph unicode="&#xb6;" horiz-adv-x="1024" d="M90 1130q0 -162 113 -253q100 -84 268 -95v-782h70v1415h192v-1415h70v1415h129v64h-447q-172 0 -278 -88q-117 -96 -117 -261z" />
<glyph unicode="&#xb8;" horiz-adv-x="796" d="M-227 -238q0 -39 123 -65q100 -23 149 -23q84 0 141 39q66 47 66 125q0 127 -154 127q-68 1 -121 -28l21 -39q25 8 51 8q104 0 105 -76q0 -45 -48 -74q-41 -23 -92 -22q-45 0 -125 24q-86 23 -98 23q-18 0 -18 -19z" />
<glyph unicode="&#xbb;" horiz-adv-x="1767" d="M6 500q115 123 184 174q113 82 232 82q129 0 194 -117q-39 -10 -66.5 -20.5t-43.5 -20.5q-29 -16 -84 -74q-104 -4 -184 -47q-100 -57 -101 -147q0 -139 144 -219q119 -68 268 -68q74 0 132 11.5t108.5 37t95.5 65.5t92 99q203 -86 297 -86q154 0 274 102 q129 106 129 260q0 137 -102 228q-94 82 -238 82q-113 0 -202 -66q-96 -72 -97 -180q0 -86 63.5 -149.5t149.5 -63.5q37 0 72 12.5t61.5 34t43 50t16.5 63.5q0 57 -36 98t-91 41q-39 0 -67.5 -23.5t-28.5 -62.5q0 -18 10 -43q31 33 53 33q53 0 53 -64q0 -41 -31.5 -68.5 t-74.5 -27.5q-72 0 -121 49t-49 121q0 96 92 164q84 59 184 59q109 0 199 -80q88 -76 88 -186q0 -123 -106 -229q-115 -111 -254 -111q-106 0 -275 68q29 63 29 102q0 166 -146 231q-94 45 -206 35q-41 160 -224 160q-131 0 -249 -90q-74 -57 -187 -197v-22zM156 330 q0 76 94 125q68 35 162 45q-23 -29 -23 -58q0 -70 76 -69q84 0 147 94q96 -55 172.5 -101t133.5 -83q-166 -209 -412 -209q-127 0 -230 63q-121 78 -120 193zM422 457q0 16 10 43h53q40 -3 95 -23q-47 -72 -115 -71q-43 0 -43 51zM451 526q68 67 170 92q0 -53 -33 -116 q-31 14 -68 20q-6 2 -24 2q-16 0 -45 2zM625 492q35 63 41 137q121 10 198 -41q90 -59 90 -172q0 -41 -24 -111q-109 66 -184.5 112t-120.5 75z" />
<glyph unicode="&#xbf;" horiz-adv-x="1069" d="M23 238q0 -117 96 -191q90 -66 209 -65q190 0 354 122q178 135 178 320q0 51 -32.5 86t-84.5 35q-61 0 -137 -53l21 -7q63 37 112 37q43 0 71 -28.5t28 -71.5q0 -139 -158 -262q-150 -115 -289 -115q-88 0 -151 47q-68 51 -68 139q0 115 160 267q51 47 93 81.5t77 57.5 q133 82 207.5 130t95.5 64q59 47 59 111q0 37 -24.5 60.5t-61.5 23.5q-33 0 -94 -16l23 -15q25 8 51 9q78 0 78 -62q0 -25 -21.5 -53.5t-44.5 -40.5l-426 -211q-59 -29 -112.5 -70t-100.5 -92q-108 -124 -108 -237zM831 1268q0 -102 87 -103q47 0 82.5 38t35.5 85 q0 102 -86 103q-47 0 -83 -38t-36 -85z" />
<glyph unicode="&#xc0;" horiz-adv-x="2172" d="M-14 365q0 -342 239 -553q229 -205 578 -205q283 0 631 184q47 27 81.5 45.5t57.5 32.5q66 -47 112 -77t74 -44q180 -94 383 -90q131 2 248 92q127 96 127 221q0 100 -86 172q-78 63 -188 64q-115 0 -220 -49q-43 -20 -151.5 -84t-282.5 -170q-6 6 -21.5 20.5t-39.5 36.5 q201 109 342 311q98 141 123 236q8 53 13 92t9 66q430 168 430 536q0 254 -231 412q-207 139 -471 139q-252 0 -475 -149q-248 -168 -248 -410q0 -301 237 -399l7 26q-215 94 -215 373q0 231 239 389q211 141 455 141q256 0 450 -131q223 -147 224 -391q0 -180 -117 -311 q-104 -121 -281 -189q14 205 95 357q47 90 133 170q70 63 69 86q0 33 -20 33q-336 -98 -594 -443q-109 -145 -160 -258h-510q-203 0 -364 -115q-178 -129 -179 -325q0 -133 99 -203q88 -61 223 -61q168 0 332 137q139 117 256 291q53 82 94 143t68 102q158 0 249 19 q0 -92 -75 -281q-29 -72 -51.5 -126t-38.5 -89q-10 -27 -76 -82q-63 -57 -84 -57q-102 45 -164 45q-51 0 -51 -41q0 -63 112 -63q23 0 46.5 3t50.5 7l73 -66q-436 -258 -749 -258q-332 0 -561 201q-236 205 -236 537q0 313 195 514q197 201 510 200q51 0 118 -26v24 q-68 25 -118 25q-330 0 -529 -203q-197 -203 -196 -534zM586 207q0 178 176 299q156 106 344 106h412q-195 -293 -277 -389q-225 -252 -430 -252q-225 0 -225 236zM1313 0q0 12 18 12q28 1 94 -30q-41 -10 -67 -11q-45 0 -45 29zM1583 647q53 145 211 326q33 35 76 78t98 90 q144 123 195 123q2 0 2 -2q0 -6 -80 -99q-240 -279 -273 -497q-98 -18 -229 -19zM1610 -115q172 104 273.5 164t135.5 76q113 53 226 53q49 0 93 -15.5t77.5 -43t53 -65.5t19.5 -85q0 -115 -118 -202q-109 -80 -228 -80q-295 0 -532 198zM2101 1987q0 -57 80 -168 q84 -109 125 -109q14 0 14 14q0 6 -20 33q-74 92 -74 170v27q0 18 2 43q0 72 -55 71q-72 0 -72 -81z" />
<glyph unicode="&#xc1;" horiz-adv-x="2172" d="M-14 365q0 -342 239 -553q229 -205 578 -205q283 0 631 184q47 27 81.5 45.5t57.5 32.5q66 -47 112 -77t74 -44q180 -94 383 -90q131 2 248 92q127 96 127 221q0 100 -86 172q-78 63 -188 64q-115 0 -220 -49q-43 -20 -151.5 -84t-282.5 -170q-6 6 -21.5 20.5t-39.5 36.5 q201 109 342 311q104 152 123 248q10 51 15 87t7 59q430 168 430 536q0 254 -231 412q-207 139 -471 139q-252 0 -475 -149q-248 -168 -248 -410q0 -301 237 -399l7 26q-215 94 -215 373q0 231 239 389q211 141 455 141q256 0 450 -131q223 -147 224 -391q0 -180 -117 -311 q-104 -121 -281 -189q14 205 95 357q47 90 133 170q70 63 69 86q0 33 -20 33q-336 -98 -594 -443q-109 -145 -160 -258h-510q-203 0 -364 -115q-178 -129 -179 -325q0 -133 99 -203q88 -61 223 -61q168 0 332 137q139 117 256 291q53 82 94 143t68 102q158 0 249 19 q0 -92 -75 -281q-29 -72 -51.5 -126t-38.5 -89q-10 -27 -76 -82q-63 -57 -84 -57q-102 45 -164 45q-51 0 -51 -41q0 -63 112 -63q23 0 46.5 3t50.5 7l73 -66q-436 -258 -749 -258q-332 0 -561 201q-236 205 -236 537q0 313 195 514q197 201 510 200q51 0 118 -26v24 q-68 25 -118 25q-330 0 -529 -203q-197 -203 -196 -534zM586 207q0 178 176 299q156 106 344 106h412q-195 -293 -277 -389q-225 -252 -430 -252q-225 0 -225 236zM1313 0q0 12 18 12q28 1 94 -30q-41 -10 -67 -11q-45 0 -45 29zM1583 647q53 145 211 326q33 35 76 78t98 90 q144 123 195 123q2 0 2 -2q0 -6 -80 -99q-240 -279 -273 -497q-98 -18 -229 -19zM1610 -115q172 104 273.5 164t135.5 76q113 53 226 53q49 0 93 -15.5t77.5 -43t53 -65.5t19.5 -85q0 -115 -118 -202q-109 -80 -228 -80q-295 0 -532 198zM2304 1712q0 -14 18 -14 q35 0 148 69q188 115 188 218q0 61 -61 61q-45 0 -82 -96q-20 -53 -41 -80q-14 -25 -102 -74q-68 -41 -68 -84z" />
<glyph unicode="&#xc2;" horiz-adv-x="2172" d="M-14 365q0 -342 239 -553q229 -205 578 -205q283 0 631 184q47 27 81.5 45.5t57.5 32.5q66 -47 112 -77t74 -44q180 -94 383 -90q131 2 248 92q127 96 127 221q0 100 -86 172q-78 63 -188 64q-115 0 -220 -49q-43 -20 -151.5 -84t-282.5 -170q-6 6 -21.5 20.5t-39.5 36.5 q201 109 342 311q104 152 123 248q10 51 15 87t7 59q430 168 430 536q0 254 -231 412q-207 139 -471 139q-252 0 -475 -149q-248 -168 -248 -410q0 -301 237 -399l7 26q-215 94 -215 373q0 231 239 389q211 141 455 141q256 0 450 -131q223 -147 224 -391q0 -178 -117 -313 q-102 -117 -281 -187q14 205 95 357q47 90 133 170q70 63 69 86q0 33 -20 33q-336 -98 -594 -443q-109 -145 -160 -258h-510q-203 0 -364 -115q-178 -129 -179 -325q0 -133 99 -203q88 -61 223 -61q168 0 332 137q139 117 256 291q53 82 94 143t68 102q158 0 249 19 q0 -92 -75 -281q-29 -72 -51.5 -126t-38.5 -89q-10 -27 -76 -82q-63 -57 -84 -57q-102 45 -164 45q-51 0 -51 -41q0 -63 112 -63q23 0 46.5 3t50.5 7l73 -66q-436 -258 -749 -258q-332 0 -561 201q-236 205 -236 537q0 313 195 514q197 201 510 200q51 0 118 -26v24 q-68 25 -118 25q-330 0 -529 -203q-197 -203 -196 -534zM586 207q0 178 176 299q156 106 344 106h412q-195 -293 -277 -389q-225 -252 -430 -252q-225 0 -225 236zM1313 0q0 12 18 12q28 1 94 -30q-41 -10 -67 -11q-45 0 -45 29zM1583 647q53 145 211 326q33 35 76 78t98 90 q144 123 195 123q2 0 2 -2q0 -6 -80 -99q-240 -279 -273 -497q-98 -18 -229 -19zM1610 -115q172 104 273.5 164t135.5 76q113 53 226 53q49 0 93 -15.5t77.5 -43t53 -65.5t19.5 -85q0 -115 -118 -202q-109 -80 -228 -80q-295 0 -532 198zM2175 1735q0 -18 23 -19 q29 0 122 51l240 127q8 -16 15.5 -30.5t13.5 -24.5q61 -127 86 -127q16 0 16 23q0 4 -6 26l-68 244q-6 23 -26 23l-131 -91q-68 -47 -105 -73.5t-45 -30.5t-23.5 -12.5t-37.5 -22.5q-74 -47 -74 -63z" />
<glyph unicode="&#xc3;" horiz-adv-x="2172" d="M-14 365q0 -342 239 -553q229 -205 578 -205q283 0 631 184q47 27 81.5 45.5t57.5 32.5q66 -47 112 -77t74 -44q180 -94 383 -90q131 2 248 92q127 96 127 221q0 100 -86 172q-78 63 -188 64q-115 0 -220 -49q-43 -20 -151.5 -84t-282.5 -170q-6 6 -21.5 20.5t-39.5 36.5 q201 109 342 311q104 152 123 248q10 51 15 87t7 59q430 168 430 536q0 254 -231 412q-207 139 -471 139q-252 0 -475 -149q-248 -168 -248 -410q0 -301 237 -399l7 26q-215 94 -215 373q0 231 239 389q211 141 455 141q256 0 450 -131q223 -147 224 -391q0 -178 -117 -313 q-102 -117 -281 -187q14 205 95 357q47 90 133 170q70 63 69 86q0 33 -20 33q-336 -98 -594 -443q-109 -145 -160 -258h-510q-203 0 -364 -115q-178 -129 -179 -325q0 -133 99 -203q88 -61 223 -61q168 0 332 137q139 117 256 291q53 82 94 143t68 102q158 0 249 19 q0 -92 -75 -281q-29 -72 -51.5 -126t-38.5 -89q-10 -27 -76 -82q-63 -57 -84 -57q-102 45 -164 45q-51 0 -51 -41q0 -63 112 -63q23 0 46.5 3t50.5 7l73 -66q-436 -258 -749 -258q-332 0 -561 201q-236 205 -236 537q0 313 195 514q197 201 510 200q51 0 118 -26v24 q-68 25 -118 25q-330 0 -529 -203q-197 -203 -196 -534zM586 207q0 178 176 299q156 106 344 106h412q-195 -293 -277 -389q-225 -252 -430 -252q-225 0 -225 236zM1313 0q0 12 18 12q28 1 94 -30q-41 -10 -67 -11q-45 0 -45 29zM1583 647q53 145 211 326q33 35 76 78t98 90 q144 123 195 123q2 0 2 -2q0 -6 -80 -99q-240 -279 -273 -497q-98 -18 -229 -19zM1610 -115q172 104 273.5 164t135.5 76q113 53 226 53q49 0 93 -15.5t77.5 -43t53 -65.5t19.5 -85q0 -115 -118 -202q-109 -80 -228 -80q-295 0 -532 198zM2230 1702q0 -14 21 -14q4 0 45 49 q39 49 82 49q41 0 121 -39q86 -37 127 -37q57 0 116.5 65.5t59.5 125.5q0 16 -21 16q-8 0 -47 -51q-41 -49 -80 -49q-37 0 -123 36q-84 39 -125 39q-59 0 -118 -65q-57 -63 -58 -125z" />
<glyph unicode="&#xc4;" horiz-adv-x="2172" d="M-14 365q0 -342 239 -553q229 -205 578 -205q283 0 631 184q47 27 81.5 45.5t57.5 32.5q66 -47 112 -77t74 -44q180 -94 383 -90q131 2 248 92q127 96 127 221q0 100 -86 172q-78 63 -188 64q-115 0 -220 -49q-43 -20 -151.5 -84t-282.5 -170q-6 6 -21.5 20.5t-39.5 36.5 q201 109 342 311q104 152 123 248q10 51 15 87t7 59q430 168 430 536q0 254 -231 412q-207 139 -471 139q-252 0 -475 -149q-248 -168 -248 -410q0 -301 237 -399l7 26q-215 94 -215 373q0 231 239 389q211 141 455 141q256 0 450 -131q223 -147 224 -391q0 -180 -117 -311 q-104 -121 -281 -189q14 205 95 357q47 90 133 170q70 63 69 86q0 33 -20 33q-336 -98 -594 -443q-109 -145 -160 -258h-510q-203 0 -364 -115q-178 -129 -179 -325q0 -133 99 -203q88 -61 223 -61q168 0 332 137q139 117 256 291q53 82 94 143t68 102q158 0 249 19 q0 -92 -75 -281q-29 -72 -51.5 -126t-38.5 -89q-10 -27 -76 -82q-63 -57 -84 -57q-102 45 -164 45q-51 0 -51 -41q0 -63 112 -63q23 0 46.5 3t50.5 7l73 -66q-436 -258 -749 -258q-332 0 -561 201q-236 205 -236 537q0 313 195 514q197 201 510 200q51 0 118 -26v24 q-68 25 -118 25q-330 0 -529 -203q-197 -203 -196 -534zM586 207q0 178 176 299q156 106 344 106h412q-195 -293 -277 -389q-225 -252 -430 -252q-225 0 -225 236zM1313 0q0 12 18 12q28 1 94 -30q-41 -10 -67 -11q-45 0 -45 29zM1583 647q53 145 211 326q33 35 76 78t98 90 q144 123 195 123q2 0 2 -2q0 -6 -80 -99q-240 -279 -273 -497q-98 -18 -229 -19zM1610 -115q172 104 273.5 164t135.5 76q113 53 226 53q49 0 93 -15.5t77.5 -43t53 -65.5t19.5 -85q0 -115 -118 -202q-109 -80 -228 -80q-295 0 -532 198zM2228 1790q0 -33 22.5 -56.5 t55.5 -23.5q41 0 70.5 37t29.5 80q0 31 -21.5 50t-51.5 19q-43 0 -74 -31.5t-31 -74.5zM2515 1790q0 -33 22.5 -56.5t55.5 -23.5q41 0 70.5 37t29.5 80q0 31 -21.5 50t-52.5 19q-43 0 -73.5 -31.5t-30.5 -74.5z" />
<glyph unicode="&#xc5;" horiz-adv-x="2172" d="M-14 365q0 -342 239 -553q229 -205 578 -205q283 0 631 184q47 27 81.5 45.5t57.5 32.5q66 -47 112 -77t74 -44q180 -94 383 -90q131 2 248 92q127 96 127 221q0 100 -86 172q-78 63 -188 64q-115 0 -220 -49q-43 -20 -151.5 -84t-282.5 -170q-6 6 -21.5 20.5t-39.5 36.5 q201 109 342 311q104 152 123 248q10 51 15 87t7 59q430 168 430 536q0 254 -231 412q-207 139 -471 139q-252 0 -475 -149q-248 -168 -248 -410q0 -301 237 -399l7 26q-215 94 -215 373q0 231 239 389q211 141 455 141q256 0 450 -131q223 -147 224 -391q0 -178 -117 -313 q-102 -117 -281 -187q14 205 95 357q47 90 133 170q70 63 69 86q0 33 -20 33q-336 -98 -594 -443q-109 -145 -160 -258h-510q-203 0 -364 -115q-178 -129 -179 -325q0 -133 99 -203q88 -61 223 -61q168 0 332 137q139 117 256 291q53 82 94 143t68 102q158 0 249 19 q0 -92 -75 -281q-29 -72 -51.5 -126t-38.5 -89q-10 -27 -76 -82q-63 -57 -84 -57q-102 45 -164 45q-51 0 -51 -41q0 -63 112 -63q23 0 46.5 3t50.5 7l73 -66q-436 -258 -749 -258q-332 0 -561 201q-236 205 -236 537q0 313 195 514q197 201 510 200q51 0 118 -26v24 q-68 25 -118 25q-330 0 -529 -203q-197 -203 -196 -534zM586 207q0 178 176 299q156 106 344 106h412q-195 -293 -277 -389q-225 -252 -430 -252q-225 0 -225 236zM1313 0q0 12 18 12q28 1 94 -30q-41 -10 -67 -11q-45 0 -45 29zM1583 647q53 145 211 326q33 35 76 78t98 90 q144 123 195 123q2 0 2 -2q0 -6 -80 -99q-240 -279 -273 -497q-98 -18 -229 -19zM1610 -115q172 104 273.5 164t135.5 76q113 53 226 53q49 0 93 -15.5t77.5 -43t53 -65.5t19.5 -85q0 -115 -118 -202q-109 -80 -228 -80q-295 0 -532 198zM2380 1886q0 -74 50 -124t124 -50 t124 50t50 124t-50 124t-124 50t-124 -50t-50 -124zM2433 1886q0 51 34 86t87 35q51 0 86 -35t35 -86t-35 -86t-86 -35q-53 0 -87 34t-34 87z" />
<glyph unicode="&#xc6;" horiz-adv-x="3575" d="M-14 365q0 -342 239 -553q229 -205 578 -205q283 0 631 184q47 27 81.5 45.5t57.5 32.5q66 -47 112 -77t74 -44q180 -94 383 -90q131 2 248 92q127 96 127 221q0 25 -6 47q131 -82 330 -81q203 0 346 143q147 143 147 344q0 100 -53 170q-57 76 -156 76q-135 0 -248 -111 q-115 -109 -114 -242q0 -39 12 -73.5t35.5 -61t55.5 -42t69 -15.5q143 0 205 145q43 102 34 222h-24q0 -111 -31 -193q-53 -145 -184 -145q-63 0 -103.5 49t-40.5 114q0 121 107 222q109 102 227 102q88 0 137 -68q43 -59 43 -149q0 -186 -139 -320q-137 -131 -325 -131 q-150 0 -244 129q-86 119 -86 273q0 139 96 258q98 119 236 119q51 0 92 -23q41 -53 82 -47q25 2 24 25q0 20 -35 38q-43 23 -45 29q-33 45 -39 166q129 -47 211 -47q98 0 183 59q92 64 92 160q0 104 -86 178q-84 68 -189 68q-322 0 -387 -318q-100 10 -179 17.5t-138 11.5 q8 33 12 65.5t4 67.5q0 254 -231 412q-207 139 -471 139q-252 0 -475 -149q-248 -168 -248 -410q0 -301 237 -399l7 26q-215 94 -215 373q0 231 239 389q211 141 455 141q256 0 450 -131q223 -147 224 -391q0 -70 -19 -131h-33q-141 0 -256 -20l5 8q23 45 56.5 87t76.5 83 q70 63 69 86q0 33 -20 33q-336 -98 -594 -443q-109 -145 -160 -258h-510q-203 0 -364 -115q-178 -129 -179 -325q0 -133 99 -203q88 -61 223 -61q168 0 332 137q139 117 256 291q53 82 94 143t68 102h4v-14q0 -63 32 -127l25 17q-6 8 -18 55q-12 45 -13 57v12q135 2 219 19 q0 -92 -75 -281q-29 -72 -51.5 -126t-38.5 -89q-10 -27 -76 -82q-63 -57 -84 -57q-102 45 -164 45q-51 0 -51 -41q0 -63 112 -63q23 0 46.5 3t50.5 7l73 -66q-436 -258 -749 -258q-332 0 -561 201q-236 205 -236 537q0 313 195 514q197 201 510 200q51 0 118 -26v24 q-68 25 -118 25q-330 0 -529 -203q-197 -203 -196 -534zM586 207q0 178 176 299q156 106 344 106h412q-195 -293 -277 -389q-225 -252 -430 -252q-225 0 -225 236zM1313 0q0 12 18 12q28 1 94 -30q-41 -10 -67 -11q-45 0 -45 29zM1528 -39q201 109 342 311q104 152 123 248 q10 51 15 87t7 59q326 125 406 378q147 -6 325 -36q20 -45 40 -89.5t38 -87.5q-14 2 -28 3h-27q-201 0 -326 -123q-127 -123 -127 -322q0 -117 43 -205q-55 23 -116 23q-115 0 -220 -49q-43 -20 -151.5 -84t-282.5 -170q-6 6 -21.5 20.5t-39.5 36.5zM1593 647 q36 221 353 334q-111 -170 -134 -315q-96 -18 -219 -19zM1610 -115q172 104 273.5 164t135.5 76q113 53 226 53q80 0 139 -35q16 -29 38.5 -52t49.5 -46q16 -37 16 -76q0 -115 -118 -202q-109 -80 -228 -80q-295 0 -532 198zM1737 903q14 16 27.5 34.5t29.5 35.5 q33 35 76 78t98 90q143 123 195 123q2 0 2 -2q0 -6 -80 -99q-33 -39 -61.5 -74.5t-53.5 -70.5q-129 -39 -233 -115zM2019 702q16 184 76 318q129 27 270 24h25q-80 -229 -371 -342zM2916 1020q0 86 80 172q88 94 203 94q74 0 129 -50t55 -124q0 -98 -80 -149 q-70 -45 -170 -45q-111 0 -208 61q-8 14 -9 41z" />
<glyph unicode="&#xc7;" horiz-adv-x="1910" d="M6 178q0 -303 174 -502q182 -207 484 -206q166 0 368 81q123 51 215 88t154 64q209 82 393 82q170 0 334 -70q209 -90 209 -233q0 -41 -31 -98q2 -4 10 -13q45 63 45 111q0 166 -213 256q-160 70 -354 69q-180 0 -395 -81q-129 -51 -222.5 -88t-156.5 -64 q-209 -82 -356 -82q-287 0 -465 203q-170 195 -170 483q0 362 268 627q270 264 633 264q41 0 94 -2t119 -6q164 -10 164 -27q-59 -35 -124 -89t-132 -130q-213 -238 -213 -481q0 -221 133 -326q-10 2 -20.5 3t-22.5 1q-72 1 -123 -26l18 -39q27 8 54 8q106 0 106 -76 q0 -47 -47 -76q-39 -20 -92 -20q-45 0 -129 22.5t-99 22.5q-16 0 -16 -16q0 -37 121 -66q100 -23 151 -22q88 0 142 38q66 43 65 125q0 10 -1 18.5t-3 18.5q72 -66 156 -65q215 0 434 295l-16 18q-223 -285 -418 -285q-78 0 -129 64q10 -2 19 -3t20 -1q199 0 381 196 q182 201 182 400q0 188 -162 188q-233 0 -401 -235q-143 -199 -144 -390v-18t2 -16q-47 47 -45 123q4 113 76 260q41 86 88 157.5t101 130.5q150 162 264 258q143 -20 241.5 -29t151.5 -9q115 0 207 36q123 49 123 150q0 119 -207 119q-291 0 -666 -209q-2 -2 -133 14 q-154 18 -270 19q-377 0 -651 -269q-272 -266 -273 -645zM1032 119q0 176 144 368q154 207 323 207q135 0 135 -137q0 -150 -157 -354q-168 -217 -338 -217q-43 0 -84 26q-23 61 -23 107zM1526 1022q299 223 473 223q184 0 184 -96q0 -164 -307 -164q-102 0 -350 37z" />
<glyph unicode="&#xc8;" horiz-adv-x="1992" d="M0 602q0 -63 33 -127l24 17q-6 8 -18 55q-12 45 -12 57q0 231 290 350q221 90 484 90q168 0 381 -36q20 -45 39.5 -89.5t38.5 -87.5q-14 2 -29 3h-27q-201 0 -325 -123q-127 -123 -127 -322q0 -223 155 -342q141 -111 369 -110q203 0 346 143q147 143 147 344 q0 100 -53 170q-57 76 -155 76q-135 0 -248 -111q-115 -109 -115 -242q0 -39 12.5 -73.5t36 -61t55 -42t68.5 -15.5q143 0 205 145q43 102 35 222h-25q0 -111 -31 -193q-53 -145 -184 -145q-63 0 -103 49t-40 114q0 121 106 222q109 102 228 102q88 0 137 -68 q43 -59 43 -149q0 -186 -139 -320q-137 -131 -326 -131q-150 0 -244 129q-86 119 -86 273q0 139 96 258q98 119 236 119q51 0 92 -23q41 -53 82 -47q25 2 25 25q0 20 -35 38q-43 23 -45 29q-33 45 -39 166q129 -47 211 -47q98 0 182 59q92 64 92 160q0 104 -86 178 q-84 68 -188 68q-322 0 -387 -318q-262 31 -381 31q-276 0 -504 -96q-297 -125 -297 -373zM1288 1987q0 -57 80 -168q84 -109 125 -109q14 0 14 14q0 6 -20 33q-74 92 -74 170v27q0 18 2 43q0 72 -55 71q-72 0 -72 -81zM1352 1020q0 86 80 172q88 94 202 94q74 0 129.5 -50 t55.5 -124q0 -98 -80 -149q-70 -45 -170 -45q-111 0 -209 61q-8 14 -8 41z" />
<glyph unicode="&#xc9;" horiz-adv-x="1992" d="M0 602q0 -63 33 -127l24 17q-6 8 -18 55q-12 45 -12 57q0 231 290 350q221 90 484 90q168 0 381 -36q20 -45 39.5 -89.5t38.5 -87.5q-14 2 -29 3h-27q-201 0 -325 -123q-127 -123 -127 -322q0 -223 155 -342q141 -111 369 -110q203 0 346 143q147 143 147 344 q0 100 -53 170q-57 76 -155 76q-135 0 -248 -111q-115 -109 -115 -242q0 -39 12.5 -73.5t36 -61t55 -42t68.5 -15.5q143 0 205 145q43 102 35 222h-25q0 -111 -31 -193q-53 -145 -184 -145q-63 0 -103 49t-40 114q0 121 106 222q109 102 228 102q88 0 137 -68 q43 -59 43 -149q0 -186 -139 -320q-137 -131 -326 -131q-150 0 -244 129q-86 119 -86 273q0 139 96 258q98 119 236 119q51 0 92 -23q41 -53 82 -47q25 2 25 25q0 20 -35 38q-43 23 -45 29q-33 45 -39 166q129 -47 211 -47q98 0 182 59q92 64 92 160q0 104 -86 178 q-84 68 -188 68q-322 0 -387 -318q-262 31 -381 31q-276 0 -504 -96q-297 -125 -297 -373zM1352 1020q0 86 80 172q88 94 202 94q74 0 129.5 -50t55.5 -124q0 -98 -80 -149q-70 -45 -170 -45q-111 0 -209 61q-8 14 -8 41zM1731 1712q0 -14 18 -14q35 0 147 69 q188 115 189 218q0 61 -62 61q-45 0 -81 -96q-20 -53 -41 -80q-14 -25 -103 -74q-68 -41 -67 -84z" />
<glyph unicode="&#xca;" horiz-adv-x="1992" d="M0 602q0 -63 33 -127l24 17q-6 8 -18 55q-12 45 -12 57q0 231 290 350q221 90 484 90q168 0 381 -36q20 -45 39.5 -89.5t38.5 -87.5q-14 2 -29 3h-27q-201 0 -325 -123q-127 -123 -127 -322q0 -223 155 -342q141 -111 369 -110q203 0 346 143q147 143 147 344 q0 100 -53 170q-57 76 -155 76q-135 0 -248 -111q-115 -109 -115 -242q0 -39 12.5 -73.5t36 -61t55 -42t68.5 -15.5q143 0 205 145q43 102 35 222h-25q0 -111 -31 -193q-53 -145 -184 -145q-63 0 -103 49t-40 114q0 121 106 222q109 102 228 102q88 0 137 -68 q43 -59 43 -149q0 -186 -139 -320q-137 -131 -326 -131q-150 0 -244 129q-86 119 -86 273q0 139 96 258q98 119 236 119q51 0 92 -23q41 -53 82 -47q25 2 25 25q0 20 -35 38q-43 23 -45 29q-33 45 -39 166q129 -47 211 -47q98 0 182 59q92 64 92 160q0 104 -86 178 q-84 68 -188 68q-322 0 -387 -318q-262 31 -381 31q-276 0 -504 -96q-297 -125 -297 -373zM1352 1020q0 86 80 172q88 94 202 94q74 0 129.5 -50t55.5 -124q0 -98 -80 -149q-70 -45 -170 -45q-111 0 -209 61q-8 14 -8 41zM1520 1729q0 -18 22 -19q29 0 123 51l240 127 q18 -35 28 -57q61 -125 86 -125q16 0 17 23q0 4 -6 26l-68 244q-6 23 -27 22q-2 0 -129 -90q-70 -47 -106.5 -73.5t-44.5 -30.5t-22.5 -13.5t-37.5 -23.5q-76 -45 -75 -61z" />
<glyph unicode="&#xcb;" horiz-adv-x="1992" d="M0 602q0 -63 33 -127l24 17q-6 8 -18 55q-12 45 -12 57q0 231 290 350q221 90 484 90q168 0 381 -36q20 -45 39.5 -89.5t38.5 -87.5q-14 2 -29 3h-27q-201 0 -325 -123q-127 -123 -127 -322q0 -223 155 -342q141 -111 369 -110q203 0 346 143q147 143 147 344 q0 100 -53 170q-57 76 -155 76q-135 0 -248 -111q-115 -109 -115 -242q0 -39 12.5 -73.5t36 -61t55 -42t68.5 -15.5q143 0 205 145q43 102 35 222h-25q0 -111 -31 -193q-53 -145 -184 -145q-63 0 -103 49t-40 114q0 121 106 222q109 102 228 102q88 0 137 -68 q43 -59 43 -149q0 -186 -139 -320q-137 -131 -326 -131q-150 0 -244 129q-86 119 -86 273q0 139 96 258q98 119 236 119q51 0 92 -23q41 -53 82 -47q25 2 25 25q0 20 -35 38q-43 23 -45 29q-33 45 -39 166q129 -47 211 -47q98 0 182 59q92 64 92 160q0 104 -86 178 q-84 68 -188 68q-322 0 -387 -318q-262 31 -381 31q-276 0 -504 -96q-297 -125 -297 -373zM1352 1020q0 86 80 172q88 94 202 94q74 0 129.5 -50t55.5 -124q0 -98 -80 -149q-70 -45 -170 -45q-111 0 -209 61q-8 14 -8 41zM1538 1790q0 -33 22.5 -56.5t55.5 -23.5 q41 0 70.5 37t29.5 80q0 31 -21.5 50t-52.5 19q-43 0 -73.5 -31.5t-30.5 -74.5zM1825 1790q0 -33 22.5 -56.5t55.5 -23.5q41 0 70.5 37t29.5 80q0 31 -21.5 50t-52.5 19q-43 0 -73.5 -31.5t-30.5 -74.5z" />
<glyph unicode="&#xcc;" horiz-adv-x="1615" d="M6 750q0 -125 19 -220q0 -299 206 -458q168 -127 390 -127q289 0 465 128t270 404q145 29 241 133q23 27 45.5 64t43.5 86q33 74 32 98l-18 8q-55 -172 -117 -235q-20 -20 -119 -74q-100 -51 -100 -49q0 47 45 170q156 432 459 532q107 33 246 37q-2 2 -4.5 16.5 t-10.5 20.5q-55 31 -194 53q-115 18 -205 19q-383 0 -596 -195q-104 -98 -143 -215q-147 111 -326 111q-313 0 -485 -228q-72 -98 -109 -227q-8 47 -12 84t-4 64q0 246 174 432q176 188 419 188q102 0 205 -45l4 18q-92 45 -206 46q-254 0 -434.5 -192.5t-180.5 -446.5z M47 492q78 -160 127 -216q143 -168 367 -165q401 2 540 417q70 -45 97 -53q-63 -160 -224 -325q-182 -182 -333 -183q-244 0 -399.5 141.5t-174.5 383.5zM49 545q117 494 586 493q184 0 317 -114q2 -125 19 -193q20 -94 92 -186q-63 -164 -119 -232q-147 -184 -403 -184 q-180 0 -312 125q-115 109 -180 291zM975 901q51 -74 74 -172q6 -47 9 -81.5l5 -57.5q-59 98 -70 147q-16 90 -18 164zM981 928q66 211 287 319q186 92 432 92q137 0 258 -30q107 -26 119 -49q-82 -4 -141.5 -9.5t-96.5 -13.5q-125 -20 -219 -84q-195 -127 -320 -371 q-16 -35 -44.5 -104.5t-69.5 -177.5q-70 33 -101 55q-8 205 -59 303zM1411 1987q0 -57 80 -168q84 -109 125 -109q14 0 14 14q0 6 -20 33q-74 92 -74 170v27q0 18 2 43q0 72 -55 71q-72 0 -72 -81z" />
<glyph unicode="&#xcd;" horiz-adv-x="1615" d="M6 750q0 -125 19 -220q0 -299 206 -458q168 -127 390 -127q289 0 465 128t270 404q145 29 241 133q23 27 45.5 64t43.5 86q33 74 32 98l-18 8q-55 -172 -117 -235q-20 -20 -119 -74q-100 -51 -100 -49q0 47 45 170q156 432 459 532q107 33 246 37q-2 2 -4.5 16.5 t-10.5 20.5q-55 31 -194 53q-115 18 -205 19q-383 0 -596 -195q-104 -98 -143 -215q-147 111 -326 111q-313 0 -485 -228q-72 -98 -109 -227q-8 47 -12 84t-4 64q0 246 174 432q176 188 419 188q102 0 205 -45l4 18q-92 45 -206 46q-254 0 -434.5 -192.5t-180.5 -446.5z M47 492q78 -160 127 -216q143 -168 367 -165q401 2 540 417q70 -45 97 -53q-63 -160 -224 -325q-182 -182 -333 -183q-244 0 -399.5 141.5t-174.5 383.5zM49 545q117 494 586 493q184 0 317 -114q2 -125 19 -193q20 -94 92 -186q-63 -164 -119 -232q-147 -184 -403 -184 q-180 0 -312 125q-115 109 -180 291zM975 901q51 -74 74 -172q6 -47 9 -81.5l5 -57.5q-59 98 -70 147q-16 90 -18 164zM981 928q66 211 287 319q186 92 432 92q137 0 258 -30q107 -26 119 -49q-82 -4 -141.5 -9.5t-96.5 -13.5q-125 -20 -219 -84q-195 -127 -320 -371 q-16 -35 -44.5 -104.5t-69.5 -177.5q-70 33 -101 55q-8 205 -59 303zM1731 1712q0 -14 18 -14q35 0 147 69q188 115 189 218q0 61 -62 61q-45 0 -81 -96q-20 -53 -41 -80q-14 -25 -103 -74q-68 -41 -67 -84z" />
<glyph unicode="&#xce;" horiz-adv-x="1615" d="M6 750q0 -125 19 -220q0 -299 206 -458q168 -127 390 -127q289 0 465 128t270 404q145 29 241 133q23 27 45.5 64t43.5 86q33 74 32 98l-18 8q-55 -172 -117 -235q-20 -20 -119 -74q-100 -51 -100 -49q0 47 45 170q156 432 459 532q107 33 246 37q-2 2 -4.5 16.5 t-10.5 20.5q-55 31 -194 53q-115 18 -205 19q-383 0 -596 -195q-104 -98 -143 -215q-147 111 -326 111q-313 0 -485 -228q-72 -98 -109 -227q-8 47 -12 84t-4 64q0 246 174 432q176 188 419 188q102 0 205 -45l4 18q-92 45 -206 46q-254 0 -434.5 -192.5t-180.5 -446.5z M47 492q78 -160 127 -216q143 -168 367 -165q401 2 540 417q70 -45 97 -53q-63 -160 -224 -325q-182 -182 -333 -183q-244 0 -399.5 141.5t-174.5 383.5zM49 545q117 494 586 493q184 0 317 -114q2 -125 19 -193q20 -94 92 -186q-63 -164 -119 -232q-147 -184 -403 -184 q-180 0 -312 125q-115 109 -180 291zM975 901q51 -74 74 -172q6 -47 9 -81.5l5 -57.5q-59 98 -70 147q-16 90 -18 164zM981 928q66 211 287 319q186 92 432 92q137 0 258 -30q107 -26 119 -49q-82 -4 -141.5 -9.5t-96.5 -13.5q-125 -20 -219 -84q-195 -127 -320 -371 q-16 -35 -44.5 -104.5t-69.5 -177.5q-70 33 -101 55q-8 205 -59 303zM1520 1729q0 -18 22 -19q29 0 123 51l240 127q18 -35 28 -57q61 -125 86 -125q16 0 17 23q0 4 -6 26l-68 244q-6 23 -27 22q-2 0 -129 -90q-70 -47 -106.5 -73.5t-44.5 -30.5t-22.5 -13.5t-37.5 -23.5 q-76 -45 -75 -61z" />
<glyph unicode="&#xcf;" horiz-adv-x="1615" d="M6 750q0 -125 19 -220q0 -299 206 -458q168 -127 390 -127q289 0 465 128t270 404q145 29 241 133q23 27 45.5 64t43.5 86q33 74 32 98l-18 8q-55 -172 -117 -235q-20 -20 -119 -74q-100 -51 -100 -49q0 47 45 170q156 432 459 532q107 33 246 37q-2 2 -4.5 16.5 t-10.5 20.5q-55 31 -194 53q-115 18 -205 19q-383 0 -596 -195q-104 -98 -143 -215q-147 111 -326 111q-313 0 -485 -228q-72 -98 -109 -227q-8 47 -12 84t-4 64q0 246 174 432q176 188 419 188q102 0 205 -45l4 18q-92 45 -206 46q-254 0 -434.5 -192.5t-180.5 -446.5z M47 492q78 -160 127 -216q143 -168 367 -165q401 2 540 417q70 -45 97 -53q-63 -160 -224 -325q-182 -182 -333 -183q-244 0 -399.5 141.5t-174.5 383.5zM49 545q117 494 586 493q184 0 317 -114q2 -125 19 -193q20 -94 92 -186q-63 -164 -119 -232q-147 -184 -403 -184 q-180 0 -312 125q-115 109 -180 291zM975 901q51 -74 74 -172q6 -47 9 -81.5l5 -57.5q-59 98 -70 147q-16 90 -18 164zM981 928q66 211 287 319q186 92 432 92q137 0 258 -30q107 -26 119 -49q-82 -4 -141.5 -9.5t-96.5 -13.5q-125 -20 -219 -84q-195 -127 -320 -371 q-16 -35 -44.5 -104.5t-69.5 -177.5q-70 33 -101 55q-8 205 -59 303zM1538 1790q0 -33 22.5 -56.5t55.5 -23.5q41 0 70.5 37t29.5 80q0 31 -21.5 50t-52.5 19q-43 0 -73.5 -31.5t-30.5 -74.5zM1825 1790q0 -33 22.5 -56.5t55.5 -23.5q41 0 70.5 37t29.5 80q0 31 -21.5 50 t-52.5 19q-43 0 -73.5 -31.5t-30.5 -74.5z" />
<glyph unicode="&#xd0;" horiz-adv-x="1744" d="M14 588q0 -104 66 -242l18 12q-59 156 -59 230q0 176 115 321q43 -164 141 -258q109 -106 270 -106q115 0 207 80q92 82 92 194q0 141 -119 228q-109 78 -253 77q-154 0 -322 -153q-16 225 137 399q184 213 527 213q299 0 516 -182q68 -57 69 -76l-86 -49 q-260 -154 -481 -592q-14 -29 -32.5 -71t-41.5 -99l-358 -51l10 -78l315 45q-8 -20 -16 -42.5t-18 -47.5q-61 -168 -107 -195q-49 33 -79.5 52.5t-43.5 25.5q-106 57 -200 58q-74 0 -131 -35q-63 -43 -64 -115q0 -98 88 -143q72 -41 176 -41q160 0 301 98q139 -96 301 -100 q258 -4 469 280q207 279 207 584q0 287 -143 504q156 25 209 24q106 0 161 -20q51 -14 146 -78l8 16q-100 106 -315 107q-127 0 -228 -33q-233 279 -632 279q-336 0 -525 -195q-164 -170 -164 -414v-28q0 -12 2 -27q-29 -41 -46 -68.5t-25 -44.5q-61 -111 -62 -243zM121 131 q0 55 37 89t92 34q184 -4 321 -135q-156 -137 -270 -137q-70 0 -125 40.5t-55 108.5zM174 936q158 164 318 164q139 0 235 -70q113 -80 113 -211q0 -102 -86 -176q-84 -74 -189 -74q-158 0 -262 109q-92 94 -129 258zM686 76q57 47 93 79.5t52 51.5q84 100 146 256l352 51 l-10 78l-311 -45q25 76 43 132t28 95q131 401 363 512q31 -16 59 -145q20 -100 21 -166q0 -307 -179 -617q-207 -354 -491 -354q-41 0 -166 72z" />
<glyph unicode="&#xd1;" horiz-adv-x="2131" d="M0 342q0 -246 170 -387q160 -135 412 -135q430 0 731 579q240 469 325 645q-29 -190 -30 -307q-2 -41 2 -99t12 -134q8 -80 12 -138.5t4 -95.5q0 -35 -41 -188q-39 -143 -38 -82q0 -23 26 -23q20 0 84 95l148 235q174 279 276 479q63 123 109.5 214.5t76.5 152.5 q23 41 43.5 78t40.5 69q98 -35 191 -34q76 0 139 28q82 39 82 107q0 90 -135 90q-139 0 -289 -166q-47 23 -131 52.5t-207 66.5q-319 98 -471 98q-283 0 -405 -55q-131 -57 -228 -201q-96 -141 -104 -285q-35 4 -70 7.5t-67 3.5q-274 0 -471 -199q-197 -197 -197 -471z M16 342q0 270 189 463q190 190 463 190q23 0 56.5 -3t80.5 -11q-4 -127 80 -229q82 -100 211 -119q0 -223 -107 -375q-35 -49 -83 -92t-111 -78q-127 -72 -242 -72q-129 0 -213 90q-82 88 -82 224q0 164 115 303q113 141 276 141q104 0 180 -76q78 -74 78 -176 q0 -55 -47 -160q2 0 23 5q45 88 45 155q0 117 -82 193q-84 78 -197 78q-172 0 -293 -146q-119 -143 -118 -317q0 -141 88 -235.5t227 -94.5q127 0 252 70q63 35 112.5 81t88.5 99q68 96 88 180q20 74 20 201q299 41 299 315q0 49 -37 152l-18 -4q35 -92 35 -148 q0 -256 -283 -289q-41 143 -88 205q-29 39 -75 70t-105 57q55 309 319 436q205 98 381 99q211 0 799 -217q-43 -68 -80 -140q-225 -446 -227 -448q-49 -94 -121 -216t-170 -276q70 197 69 283q0 43 -10 107.5t-30.5 152.5t-30.5 152.5t-10 107.5q0 121 69 211q45 57 166 158 q-190 63 -315 63q-168 0 -346 -76q-225 -92 -226 -233q0 -72 82 -109l4 19q-66 41 -65 90q0 127 221 217q178 74 330 74q98 0 270 -55q-238 -207 -307 -345q-113 -221 -193 -380.5t-131 -264.5q-293 -563 -708 -563q-244 0 -400 131q-166 137 -166 375zM842 969 q119 -49 172 -125q37 -52 78 -187q-84 18 -162 93q-94 92 -88 219zM1985 1702q0 -14 20 -14q4 0 45 49q39 49 82 49q41 0 121 -39q86 -37 127 -37q57 0 116.5 65.5t59.5 125.5q0 16 -21 16q-8 0 -47 -51q-41 -49 -80 -49q-37 0 -122 36q-84 39 -125 39q-59 0 -119 -65 q-57 -63 -57 -125zM2376 1319q119 154 264 154q35 0 74 -17q43 -22 43 -55q0 -59 -76 -90q-61 -23 -127 -23q-55 0 -178 31z" />
<glyph unicode="&#xd2;" horiz-adv-x="1228" d="M0 324q0 -150 84 -258q92 -113 240 -113q199 0 399 168q164 137 283 342q55 94 106 250q55 162 55 262q0 104 -59 194q-68 100 -168 101q-168 0 -324 -211q-143 -199 -143 -375q0 -74 40 -125t112 -51q137 0 243 137q100 127 101 268q0 49 -27 95.5t-72 46.5 q-53 0 -133 -80l15 -14q63 74 118 73q37 0 58 -45q18 -37 18 -76q0 -104 -88 -231q-102 -152 -233 -152q-63 0 -99 48q-31 39 -30 106q0 168 137 360q147 207 307 207q115 0 115 -166q0 -244 -221 -645q-100 -180 -209 -299q-160 -176 -301 -176q-80 0 -126 60.5t-46 142.5 q0 358 337 829q92 127 162 183q35 29 86 60.5t123 66.5h-86q-164 -23 -350 -193q-174 -158 -289 -358q-135 -233 -135 -432zM610 1987q0 -57 80 -168q84 -109 125 -109q14 0 14 14q0 6 -20 33q-74 92 -74 170v27q0 18 2 43q0 72 -55 71q-72 0 -72 -81z" />
<glyph unicode="&#xd3;" horiz-adv-x="1228" d="M0 324q0 -150 84 -258q92 -113 240 -113q199 0 399 168q164 137 283 342q55 94 106 250q55 162 55 262q0 104 -59 194q-68 100 -168 101q-168 0 -324 -211q-143 -199 -143 -375q0 -74 40 -125t112 -51q137 0 243 137q100 127 101 268q0 49 -27 95.5t-72 46.5 q-53 0 -133 -80l15 -14q63 74 118 73q37 0 58 -45q18 -37 18 -76q0 -104 -88 -231q-102 -152 -233 -152q-63 0 -99 48q-31 39 -30 106q0 168 137 360q147 207 307 207q115 0 115 -166q0 -244 -221 -645q-100 -180 -209 -299q-160 -176 -301 -176q-80 0 -126 60.5t-46 142.5 q0 358 337 829q92 127 162 183q35 29 86 60.5t123 66.5h-86q-164 -23 -350 -193q-174 -158 -289 -358q-135 -233 -135 -432zM1157 1712q1 -14 19 -14q35 0 147 69q188 115 188 218q0 61 -61 61q-45 0 -82 -96q-20 -53 -41 -80q-14 -25 -102 -74q-68 -41 -68 -84z" />
<glyph unicode="&#xd4;" horiz-adv-x="1228" d="M0 324q0 -150 84 -258q92 -113 240 -113q199 0 399 168q164 137 283 342q55 94 106 250q55 162 55 262q0 104 -59 194q-68 100 -168 101q-168 0 -324 -211q-143 -199 -143 -375q0 -74 40 -125t112 -51q137 0 243 137q100 127 101 268q0 49 -27 95.5t-72 46.5 q-53 0 -133 -80l15 -14q63 74 118 73q37 0 58 -45q18 -37 18 -76q0 -104 -88 -231q-102 -152 -233 -152q-63 0 -99 48q-31 39 -30 106q0 168 137 360q147 207 307 207q115 0 115 -166q0 -244 -221 -645q-100 -180 -209 -299q-160 -176 -301 -176q-80 0 -126 60.5t-46 142.5 q0 358 337 829q92 127 162 183q35 29 86 60.5t123 66.5h-86q-164 -23 -350 -193q-174 -158 -289 -358q-135 -233 -135 -432zM791 1729q0 -18 22 -19q29 0 123 51l240 127q18 -35 28 -57q61 -125 86 -125q16 0 17 23q0 4 -7 26l-67 244q-6 23 -27 22q-2 0 -129 -90 q-70 -47 -106.5 -73.5t-44.5 -30.5t-22.5 -13.5t-37.5 -23.5q-76 -45 -75 -61z" />
<glyph unicode="&#xd5;" horiz-adv-x="1228" d="M0 324q0 -150 84 -258q92 -113 240 -113q199 0 399 168q164 137 283 342q55 94 106 250q55 162 55 262q0 104 -59 194q-68 100 -168 101q-168 0 -324 -211q-143 -199 -143 -375q0 -74 40 -125t112 -51q137 0 243 137q100 127 101 268q0 49 -27 95.5t-72 46.5 q-53 0 -133 -80l15 -14q63 74 118 73q37 0 58 -45q18 -37 18 -76q0 -104 -88 -231q-102 -152 -233 -152q-63 0 -99 48q-31 39 -30 106q0 168 137 360q147 207 307 207q115 0 115 -166q0 -244 -221 -645q-100 -180 -209 -299q-160 -176 -301 -176q-80 0 -126 60.5t-46 142.5 q0 358 337 829q92 127 162 183q35 29 86 60.5t123 66.5h-86q-164 -23 -350 -193q-174 -158 -289 -358q-135 -233 -135 -432zM856 1702q0 -14 21 -14q4 0 45 49q39 49 82 49q41 0 120 -39q86 -37 127 -37q57 0 116.5 65.5t59.5 125.5q0 16 -20 16q-8 0 -47 -51 q-41 -49 -80 -49q-37 0 -123 36q-84 39 -125 39q-59 0 -119 -65q-57 -63 -57 -125z" />
<glyph unicode="&#xd6;" horiz-adv-x="1228" d="M0 324q0 -150 84 -258q92 -113 240 -113q199 0 399 168q164 137 283 342q55 94 106 250q55 162 55 262q0 104 -59 194q-68 100 -168 101q-168 0 -324 -211q-143 -199 -143 -375q0 -74 40 -125t112 -51q137 0 243 137q100 127 101 268q0 49 -27 95.5t-72 46.5 q-53 0 -133 -80l15 -14q63 74 118 73q37 0 58 -45q18 -37 18 -76q0 -104 -88 -231q-102 -152 -233 -152q-63 0 -99 48q-31 39 -30 106q0 168 137 360q147 207 307 207q115 0 115 -166q0 -244 -221 -645q-100 -180 -209 -299q-160 -176 -301 -176q-80 0 -126 60.5t-46 142.5 q0 358 337 829q92 127 162 183q35 29 86 60.5t123 66.5h-86q-164 -23 -350 -193q-174 -158 -289 -358q-135 -233 -135 -432zM915 1790q0 -33 23 -56.5t55 -23.5q41 0 71 37t30 80q0 31 -21.5 50t-52.5 19q-43 0 -74 -31.5t-31 -74.5zM1202 1790q0 -33 22.5 -56.5t55.5 -23.5 q41 0 70.5 37t29.5 80q0 31 -21.5 50t-51.5 19q-43 0 -74 -31.5t-31 -74.5z" />
<glyph unicode="&#xd7;" horiz-adv-x="1705" d="M309 123l58 -57l487 487l487 -487l58 57l-488 487l488 488l-58 57l-487 -487l-487 487l-58 -57l488 -488z" />
<glyph unicode="&#xd8;" horiz-adv-x="1228" d="M0 324q0 -158 92 -265q45 -55 109 -82l-31 -55l80 -43l41 76q8 -2 16 -2h17q199 0 399 168q164 137 283 342q55 94 106 250q55 162 55 262q0 117 -67 207q-51 63 -113 82l31 57l-80 43l-53 -100q-123 -29 -252 -197q2 2 104 74q37 27 68 46t55 30l-645 -1213 q-63 57 -63 164q0 358 337 829q92 127 162 183q35 29 86 60.5t123 66.5h-86q-164 -23 -350 -193q-174 -158 -289 -358q-135 -233 -135 -432zM297 -33l674 1268q84 -16 84 -150q0 -244 -221 -645q-100 -180 -209 -299q-160 -176 -301 -176q-18 0 -27 2z" />
<glyph unicode="&#xd9;" horiz-adv-x="1771" d="M10 707q0 -143 99 -238q100 -96 239 -96q207 0 340 86l-6 12q-141 -80 -334 -80q-131 0 -225 92q-94 94 -94 224q0 203 190 378q213 199 543 199q166 0 264 -80q109 -86 109 -248q0 -74 -105 -221q-66 -92 -115 -159.5t-81 -112.5q-104 -158 -105 -285q0 -80 45 -143 q49 -74 123 -74q125 0 291 201q0 -201 121 -201q150 0 258 141v37q-115 -141 -228 -141q-31 0 -30 33q0 86 227 471q174 297 502 553q399 -424 813 -424q106 0 203 61q106 70 106 174q0 193 -182 303q-156 90 -361 91q-170 0 -270 -27q-78 -18 -301 -105q-141 111 -240 148 q-104 39 -276 39h-94v-12h110q164 0 443 -199q-414 -266 -660 -658q-49 -78 -86 -137t-59 -100q-152 -225 -287 -225q-76 0 -76 94q0 86 99 225q59 82 105 143.5t77 102.5q41 57 65.5 91t32.5 48q35 66 35 150q0 109 -33 194.5t-94 146t-148.5 92.5t-197.5 32 q-342 0 -559 -205q-193 -178 -193 -391zM1260 1987q0 -57 79 -168q84 -109 125 -109q15 0 15 14q0 6 -21 33q-74 92 -74 170v27q0 18 2 43q0 72 -55 71q-72 0 -71 -81zM2083 1094q297 145 534 145q197 0 344 -86q179 -103 179 -287q0 -94 -101 -157q-88 -57 -188 -58 q-313 0 -768 443z" />
<glyph unicode="&#xda;" horiz-adv-x="1771" d="M10 707q0 -143 99 -238q100 -96 239 -96q207 0 340 86l-6 12q-141 -80 -334 -80q-131 0 -225 92q-94 94 -94 224q0 203 190 378q213 199 543 199q166 0 264 -80q109 -86 109 -248q0 -74 -105 -221q-66 -92 -115 -159.5t-81 -112.5q-104 -158 -105 -285q0 -80 45 -143 q49 -74 123 -74q125 0 291 201q0 -201 121 -201q150 0 258 141v37q-115 -141 -228 -141q-31 0 -30 33q0 86 227 471q174 297 502 553q399 -424 813 -424q106 0 203 61q106 70 106 174q0 193 -182 303q-156 90 -361 91q-170 0 -270 -27q-78 -18 -301 -105q-141 111 -240 148 q-104 39 -276 39h-94v-12h110q164 0 443 -199q-414 -266 -660 -658q-49 -78 -86 -137t-59 -100q-152 -225 -287 -225q-76 0 -76 94q0 86 99 225q59 82 105 143.5t77 102.5q41 57 65.5 91t32.5 48q35 66 35 150q0 109 -33 194.5t-94 146t-148.5 92.5t-197.5 32 q-342 0 -559 -205q-193 -178 -193 -391zM1731 1712q0 -14 18 -14q35 0 147 69q188 115 189 218q0 61 -62 61q-45 0 -81 -96q-20 -53 -41 -80q-14 -25 -103 -74q-68 -41 -67 -84zM2083 1094q297 145 534 145q197 0 344 -86q179 -103 179 -287q0 -94 -101 -157 q-88 -57 -188 -58q-313 0 -768 443z" />
<glyph unicode="&#xdb;" horiz-adv-x="1771" d="M10 707q0 -143 99 -238q100 -96 239 -96q207 0 340 86l-6 12q-141 -80 -334 -80q-131 0 -225 92q-94 94 -94 224q0 203 190 378q213 199 543 199q166 0 264 -80q109 -86 109 -248q0 -74 -105 -221q-66 -92 -115 -159.5t-81 -112.5q-104 -158 -105 -285q0 -80 45 -143 q49 -74 123 -74q125 0 291 201q0 -201 121 -201q150 0 258 141v37q-115 -141 -228 -141q-31 0 -30 33q0 86 227 471q174 297 502 553q399 -424 813 -424q106 0 203 61q106 70 106 174q0 193 -182 303q-156 90 -361 91q-170 0 -270 -27q-78 -18 -301 -105q-141 111 -240 148 q-104 39 -276 39h-94v-12h110q164 0 443 -199q-414 -266 -660 -658q-49 -78 -86 -137t-59 -100q-152 -225 -287 -225q-76 0 -76 94q0 86 99 225q59 82 105 143.5t77 102.5q41 57 65.5 91t32.5 48q35 66 35 150q0 109 -33 194.5t-94 146t-148.5 92.5t-197.5 32 q-342 0 -559 -205q-193 -178 -193 -391zM1458 1729q0 -18 23 -19q29 0 123 51l239 127q18 -35 29 -57q61 -125 86 -125q16 0 16 23q0 4 -6 26l-67 244q-6 23 -27 22q-2 0 -129 -90q-70 -47 -106.5 -73.5t-45 -30.5t-23 -13.5t-36.5 -23.5q-76 -45 -76 -61zM2083 1094 q297 145 534 145q197 0 344 -86q179 -103 179 -287q0 -94 -101 -157q-88 -57 -188 -58q-313 0 -768 443z" />
<glyph unicode="&#xdc;" horiz-adv-x="1771" d="M10 707q0 -143 99 -238q100 -96 239 -96q207 0 340 86l-6 12q-141 -80 -334 -80q-131 0 -225 92q-94 94 -94 224q0 203 190 378q213 199 543 199q166 0 264 -80q109 -86 109 -248q0 -74 -105 -221q-66 -92 -115 -159.5t-81 -112.5q-104 -158 -105 -285q0 -80 45 -143 q49 -74 123 -74q125 0 291 201q0 -201 121 -201q150 0 258 141v37q-115 -141 -228 -141q-31 0 -30 33q0 86 227 471q174 297 502 553q399 -424 813 -424q106 0 203 61q106 70 106 174q0 193 -182 303q-156 90 -361 91q-170 0 -270 -27q-78 -18 -301 -105q-141 111 -240 148 q-104 39 -276 39h-94v-12h110q164 0 443 -199q-414 -266 -660 -658q-49 -78 -86 -137t-59 -100q-152 -225 -287 -225q-76 0 -76 94q0 86 99 225q59 82 105 143.5t77 102.5q41 57 65.5 91t32.5 48q35 66 35 150q0 109 -33 194.5t-94 146t-148.5 92.5t-197.5 32 q-342 0 -559 -205q-193 -178 -193 -391zM1538 1790q0 -33 22.5 -56.5t55.5 -23.5q41 0 70.5 37t29.5 80q0 31 -21.5 50t-52.5 19q-43 0 -73.5 -31.5t-30.5 -74.5zM1825 1790q0 -33 22.5 -56.5t55.5 -23.5q41 0 70.5 37t29.5 80q0 31 -21.5 50t-52.5 19q-43 0 -73.5 -31.5 t-30.5 -74.5zM2083 1094q297 145 534 145q197 0 344 -86q179 -103 179 -287q0 -94 -101 -157q-88 -57 -188 -58q-313 0 -768 443z" />
<glyph unicode="&#xdd;" horiz-adv-x="2148" d="M4 1251q0 -119 117 -194q100 -70 225 -70q92 0 170 27q139 47 375 186q6 -78 -14 -164q-41 -109 -66 -155l16 -4q98 158 82 331q180 84 336 84q68 0 124 -22.5t97 -62.5t63.5 -96t22.5 -124q0 -106 -82 -237l-153 -240q-82 -137 -82 -279q0 -102 39 -172q49 -84 143 -84 q74 0 164 84q31 31 127 146q-66 -330 -98 -412q-23 -49 -43 -78q-59 55 -99.5 91t-58.5 53q-113 98 -250 161q-170 80 -346 80q-242 0 -428 -116q-215 -135 -215 -365q0 -227 217 -358q188 -115 426 -115q256 0 461 143q190 137 309 375q537 -508 1038 -508q283 0 480 185 q198 183 198 464q0 215 -143 373q-143 162 -356 162q-152 0 -254 -84q-113 -88 -113 -236q0 -125 80 -206q84 -84 209 -84q20 0 20 22q-281 37 -280 268q0 135 104 216q96 72 234 71q197 0 335 -153q139 -152 140 -349q0 -268 -193 -446q-188 -180 -461 -180 q-350 0 -716 243q-186 125 -312 263q20 33 43 90q72 174 124 299t87 205q152 377 377 663q309 395 612 395q293 0 328 -245l23 -13q6 274 -387 275q-485 0 -897 -670q-16 -29 -53.5 -99.5t-90.5 -185.5q-96 -201 -149 -278q-86 -123 -172 -123t-86 121q0 68 20 137 q35 76 119 205q43 66 72.5 116t46.5 85q55 117 55 225q0 174 -123 297t-297 123q-113 0 -192 -23q-8 -2 -44 -15.5t-102 -37.5q-39 127 -108 194q-106 100 -316 101q-479 0 -479 -275zM18 1251q0 262 465 262q328 1 404 -290q-377 -217 -541 -217q-123 0 -217 61 q-111 70 -111 184zM209 -381q0 223 199 352q170 109 405 109q244 0 461 -143q51 -35 120.5 -94.5t159.5 -147.5q-78 -145 -190 -246q-231 -207 -551 -207q-203 0 -381 88q-223 106 -223 289zM2161 1712q0 -14 18 -14q35 0 148 69q188 115 188 218q0 61 -61 61q-45 0 -82 -96 q-20 -53 -41 -80q-14 -25 -103 -74q-68 -41 -67 -84z" />
<glyph unicode="&#xdf;" horiz-adv-x="485" d="M-918 -526q0 -82 58.5 -133.5t144.5 -51.5q160 0 312 164q141 154 327 504q68 137 135.5 273.5t137.5 273.5q414 682 438 682q4 0 27 6q18 4 36 -4q31 0 60 -23q12 -8 18 -35q18 -88 -143 -237q-16 -14 -31.5 -28.5t-32.5 -28.5q-137 -129 -149 -273q-2 -20 -3 -41.5 t-3 -46.5q-12 -254 -97 -387q-84 -129 -167 -129q-41 0 -52 41q-6 20 35 43q43 23 41 35q-10 35 -49 35q-31 0 -50.5 -26t-19.5 -56q0 -111 158 -111q43 0 51 8q18 10 29.5 17.5t15.5 9.5q43 31 99 82q37 37 59 84t35.5 74.5t17.5 37.5q31 82 23 150q-6 66 -33 127 q-25 57 -25 65q10 131 168 263q29 20 53.5 35.5t43.5 25.5q29 27 39 51.5t20 48.5q33 63 20 121q-10 39 -34 62q-41 39 -56 43q-35 10 -59 10q-125 0 -346 -283q-70 -90 -138.5 -192.5t-136.5 -218.5h-122l-21 -37h121q-55 -102 -129 -252t-168 -348q-150 -322 -223 -428 q-115 -164 -232 -164q-66 0 -116 39q-57 39 -58 104q0 45 31 105q33 68 76 67q43 0 43 -53q0 -25 -64 -33q31 -53 68 -53q43 0 77.5 26.5t34.5 69.5q0 41 -29.5 73t-70.5 32q-80 0 -137 -68q-57 -66 -58 -147z" />
<glyph unicode="&#xe0;" d="M-106 172q0 -201 137 -201q106 0 194 119q55 -119 156 -119q150 0 539 475l-17 15q-51 -61 -110.5 -127t-130.5 -135q-199 -199 -269 -199q-45 0 -45 41q0 29 35 94l268 504q-6 -2 -35 -31q-25 -25 -32 -24q-14 0 -43 6t-43 6q-18 0 -43 -31q-35 49 -105 49 q-172 0 -315 -135q-141 -135 -141 -307zM12 68q0 111 117 299q131 211 252 211q43 -1 43 -50q0 -37 -209 -393q-80 -135 -162 -135q-41 0 -41 68zM209 1008q0 -57 80 -168q84 -109 125 -109q14 0 14 14q0 6 -20 33q-74 92 -74 170v27q0 18 2 43q0 72 -55 72q-72 0 -72 -82z " />
<glyph unicode="&#xe1;" d="M-106 172q0 -201 137 -201q106 0 194 119q55 -119 156 -119q150 0 539 475l-17 15q-51 -61 -110.5 -127t-130.5 -135q-199 -199 -269 -199q-45 0 -45 41q0 29 35 94l268 504q-6 -2 -35 -31q-25 -25 -32 -24q-14 0 -43 6t-43 6q-18 0 -43 -31q-35 49 -105 49 q-172 0 -315 -135q-141 -135 -141 -307zM12 68q0 111 117 299q131 211 252 211q43 -1 43 -50q0 -37 -209 -393q-80 -135 -162 -135q-41 0 -41 68zM401 731q1 -14 19 -14q35 0 147 69q188 115 189 218q0 61 -62 61q-45 0 -82 -96q-20 -53 -41 -80q-14 -25 -102 -74 q-68 -41 -68 -84z" />
<glyph unicode="&#xe2;" d="M-106 172q0 -201 137 -201q106 0 194 119q55 -119 156 -119q150 0 539 475l-17 15q-51 -61 -110.5 -127t-130.5 -135q-199 -199 -269 -199q-45 0 -45 41q0 29 35 94l268 504q-6 -2 -35 -31q-25 -25 -32 -24q-14 0 -43 6t-43 6q-18 0 -43 -31q-35 49 -105 49 q-172 0 -315 -135q-141 -135 -141 -307zM12 68q0 111 117 299q131 211 252 211q43 -1 43 -50q0 -37 -209 -393q-80 -135 -162 -135q-41 0 -41 68zM186 788q0 -18 23 -18q29 0 123 51l239 127q18 -35 29 -57q61 -125 86 -125q16 0 16 22q0 4 -6 27l-67 244q-6 23 -27 22 q-2 0 -129 -90q-70 -47 -106.5 -73.5t-45 -30.5t-22.5 -13.5t-37 -23.5q-76 -45 -76 -62z" />
<glyph unicode="&#xe3;" d="M-106 172q0 -201 137 -201q106 0 194 119q55 -119 156 -119q150 0 539 475l-17 15q-51 -61 -110.5 -127t-130.5 -135q-199 -199 -269 -199q-45 0 -45 41q0 29 35 94l268 504q-6 -2 -35 -31q-25 -25 -32 -24q-14 0 -43 6t-43 6q-18 0 -43 -31q-35 49 -105 49 q-172 0 -315 -135q-141 -135 -141 -307zM12 68q0 111 117 299q131 211 252 211q43 -1 43 -50q0 -37 -209 -393q-80 -135 -162 -135q-41 0 -41 68zM178 778q0 -14 21 -14q4 0 45 49q39 49 82 49q41 0 120 -39q86 -37 127 -37q57 0 117 66t60 125q0 16 -21 16q-8 0 -47 -51 q-41 -49 -80 -49q-37 0 -123 37q-84 39 -125 39q-59 0 -118 -66q-57 -63 -58 -125z" />
<glyph unicode="&#xe4;" d="M-106 172q0 -201 137 -201q106 0 194 119q55 -119 156 -119q150 0 539 475l-17 15q-51 -61 -110.5 -127t-130.5 -135q-199 -199 -269 -199q-45 0 -45 41q0 29 35 94l268 504q-6 -2 -35 -31q-25 -25 -32 -24q-14 0 -43 6t-43 6q-18 0 -43 -31q-35 49 -105 49 q-172 0 -315 -135q-141 -135 -141 -307zM12 68q0 111 117 299q131 211 252 211q43 -1 43 -50q0 -37 -209 -393q-80 -135 -162 -135q-41 0 -41 68zM227 815q0 -33 22.5 -56.5t55.5 -23.5q41 0 71 37t30 80q0 31 -22 50.5t-52 19.5q-43 0 -74 -32t-31 -75zM514 815 q0 -33 22.5 -56.5t55.5 -23.5q41 0 70.5 37t29.5 80q0 31 -21.5 50.5t-52.5 19.5q-43 0 -73.5 -32t-30.5 -75z" />
<glyph unicode="&#xe5;" d="M-106 172q0 -201 137 -201q106 0 194 119q55 -119 156 -119q150 0 539 475l-17 15q-51 -61 -110.5 -127t-130.5 -135q-199 -199 -269 -199q-45 0 -45 41q0 29 35 94l268 504q-6 -2 -35 -31q-25 -25 -32 -24q-14 0 -43 6t-43 6q-18 0 -43 -31q-35 49 -105 49 q-172 0 -315 -135q-141 -135 -141 -307zM12 68q0 111 117 299q131 211 252 211q43 -1 43 -50q0 -37 -209 -393q-80 -135 -162 -135q-41 0 -41 68zM295 879q0 -74 50 -124t124 -50t124 50t50 124t-50 124t-124 50t-124 -50t-50 -124zM348 879q0 51 34 85.5t87 34.5 q51 0 86 -34.5t35 -85.5t-35 -86t-86 -35q-53 0 -87 34t-34 87z" />
<glyph unicode="&#xe6;" horiz-adv-x="1011" d="M-106 172q0 -201 137 -201q106 0 194 119q51 -113 60 -113q12 0 37 46q-2 0 2 4l2 -4q51 -55 133 -56q147 0 364 199q168 155 240 276l-16 15q-39 -63 -98.5 -132t-145.5 -143q-211 -182 -344 -182q-55 0 -56 74q0 63 37 143q94 0 238 66q186 86 186 215q0 47 -34.5 79.5 t-81.5 32.5q-84 0 -170 -43q8 10 15 18.5t11 14.5h-65q-12 2 -25 0l-12 -3l-4 -1q-18 0 -43 -31q-35 49 -105 49q-172 0 -315 -135q-141 -135 -141 -307zM12 68q0 111 117 299q131 211 252 211q43 0 43 -50q0 -23 -62 -135q-20 -27 -34.5 -52t-24.5 -54q-20 -35 -41.5 -73 t-46.5 -79q-80 -135 -162 -135q-41 0 -41 68zM461 266q160 317 258 318q43 0 43 -47q0 -72 -113 -172q-115 -98 -188 -99z" />
<glyph unicode="&#xe7;" horiz-adv-x="796" d="M-227 -238q0 -39 123 -65q100 -23 149 -23q84 0 141 39q66 47 66 125q0 127 -154 127q-68 1 -121 -28l21 -39q25 8 51 8q104 0 105 -76q0 -45 -48 -74q-41 -23 -92 -22q-45 0 -125 24q-86 23 -98 23q-18 0 -18 -19zM-106 154q0 -182 204 -183q211 0 424 150 q179 124 320 325l-17 15q-70 -94 -147.5 -173t-167.5 -143q-211 -150 -412 -149q-92 0 -92 76q0 115 125 313q131 209 223 209q70 0 70 -43q0 -18 -22.5 -43t-41.5 -25q-27 0 -59 27q-20 -27 -20 -70q0 -53 73 -53q47 0 85 37t38 84t-38 76.5t-85 29.5q-168 0 -305 -114 q-156 -131 -155 -346z" />
<glyph unicode="&#xe8;" horiz-adv-x="630" d="M-106 154q0 -78 51 -130.5t127 -52.5q147 0 364 199q168 155 240 276l-17 15q-39 -63 -98 -132t-145 -143q-209 -184 -344 -184q-55 0 -56 76q0 63 37 143q94 0 238 66q186 86 186 215q0 47 -34.5 79.5t-82.5 32.5q-143 0 -292 -122q-174 -143 -174 -338zM74 270 q160 317 258 318q43 0 43 -47q0 -72 -113 -172q-115 -98 -188 -99zM168 1008q0 -57 80 -168q84 -109 125 -109q14 0 14 14q0 6 -20 33q-74 92 -74 170v27q0 18 2 43q0 72 -55 72q-72 0 -72 -82z" />
<glyph unicode="&#xe9;" horiz-adv-x="630" d="M-106 154q0 -78 51 -130.5t127 -52.5q147 0 364 199q168 155 240 276l-17 15q-39 -63 -98 -132t-145 -143q-209 -184 -344 -184q-55 0 -56 76q0 63 37 143q94 0 238 66q186 86 186 215q0 47 -34.5 79.5t-82.5 32.5q-143 0 -292 -122q-174 -143 -174 -338zM74 270 q160 317 258 318q43 0 43 -47q0 -72 -113 -172q-115 -98 -188 -99zM401 731q1 -14 19 -14q35 0 147 69q188 115 189 218q0 61 -62 61q-45 0 -82 -96q-20 -53 -41 -80q-14 -25 -102 -74q-68 -41 -68 -84z" />
<glyph unicode="&#xea;" horiz-adv-x="630" d="M-106 154q0 -78 51 -130.5t127 -52.5q147 0 364 199q168 155 240 276l-17 15q-39 -63 -98 -132t-145 -143q-209 -184 -344 -184q-55 0 -56 76q0 63 37 143q94 0 238 66q186 86 186 215q0 47 -34.5 79.5t-82.5 32.5q-143 0 -292 -122q-174 -143 -174 -338zM74 270 q160 317 258 318q43 0 43 -47q0 -72 -113 -172q-115 -98 -188 -99zM104 788q0 -18 23 -18q29 0 123 51l239 127q18 -35 29 -57q61 -125 86 -125q16 0 17 22q0 4 -7 27l-67 244q-6 23 -27 22q-2 0 -129 -90q-70 -47 -106.5 -73.5t-45 -30.5t-22.5 -13.5t-37 -23.5 q-76 -45 -76 -62z" />
<glyph unicode="&#xeb;" horiz-adv-x="630" d="M-106 154q0 -78 51 -130.5t127 -52.5q147 0 364 199q168 155 240 276l-17 15q-39 -63 -98 -132t-145 -143q-209 -184 -344 -184q-55 0 -56 76q0 63 37 143q94 0 238 66q186 86 186 215q0 47 -34.5 79.5t-82.5 32.5q-143 0 -292 -122q-174 -143 -174 -338zM74 270 q160 317 258 318q43 0 43 -47q0 -72 -113 -172q-115 -98 -188 -99zM166 815q0 -33 22.5 -56.5t55.5 -23.5q41 0 70.5 37t29.5 80q0 31 -21.5 50.5t-52.5 19.5q-43 0 -73.5 -32t-30.5 -75zM453 815q0 -33 22.5 -56.5t54.5 -23.5q41 0 71 37t30 80q0 31 -21.5 50.5t-52.5 19.5 q-43 0 -73.5 -32t-30.5 -75z" />
<glyph unicode="&#xec;" horiz-adv-x="483" d="M-137 92q0 -121 127 -121q137 0 538 475l-16 15q-74 -90 -227 -246q-201 -203 -248 -203t-47 54q0 37 18 77l260 496q-8 -2 -41 -33q-29 -29 -37 -28q-6 0 -26.5 9t-42.5 9q-31 0 -55 -43q-41 -76 -73 -132t-54 -95q-76 -139 -76 -234zM-35 1008q0 -57 80 -168 q80 -109 123 -109q14 0 14 14q0 6 -20 33q-74 92 -74 170v27q0 18 2 43q0 72 -55 72q-70 0 -70 -82z" />
<glyph unicode="&#xed;" horiz-adv-x="483" d="M-137 92q0 -121 127 -121q137 0 538 475l-16 15q-74 -90 -227 -246q-201 -203 -248 -203t-47 54q0 37 18 77l260 496q-8 -2 -41 -33q-29 -29 -37 -28q-6 0 -26.5 9t-42.5 9q-31 0 -55 -43q-41 -76 -73 -132t-54 -95q-76 -139 -76 -234zM299 731q0 -14 18 -14q35 0 148 69 q188 115 188 218q0 61 -61 61q-45 0 -82 -96q-20 -53 -41 -80q-14 -25 -102 -74q-68 -41 -68 -84z" />
<glyph unicode="&#xee;" horiz-adv-x="483" d="M-137 92q0 -121 127 -121q137 0 538 475l-16 15q-74 -90 -227 -246q-201 -203 -248 -203t-47 54q0 37 18 77l260 496q-8 -2 -41 -33q-29 -29 -37 -28q-6 0 -26.5 9t-42.5 9q-31 0 -55 -43q-41 -76 -73 -132t-54 -95q-76 -139 -76 -234zM-37 788q0 -18 23 -18q27 0 120 51 l240 127q18 -35 29 -57q61 -125 86 -125q16 0 16 22q0 4 -6 27l-68 244q-6 23 -26 22q-2 0 -129 -90q-70 -47 -107 -73.5t-45 -30.5t-22.5 -13.5t-36.5 -23.5q-74 -47 -74 -62z" />
<glyph unicode="&#xef;" horiz-adv-x="483" d="M-137 92q0 -121 127 -121q137 0 538 475l-16 15q-74 -90 -227 -246q-201 -203 -248 -203t-47 54q0 37 18 77l260 496q-8 -2 -41 -33q-29 -29 -37 -28q-6 0 -26.5 9t-42.5 9q-31 0 -55 -43q-41 -76 -73 -132t-54 -95q-76 -139 -76 -234zM43 815q0 -33 22.5 -56.5 t55.5 -23.5q41 0 70.5 37t29.5 80q0 31 -21.5 50.5t-52.5 19.5q-43 0 -73.5 -32t-30.5 -75zM330 815q0 -33 22.5 -56.5t55.5 -23.5q41 0 70.5 37t29.5 80q0 31 -21.5 50.5t-52.5 19.5q-43 0 -73.5 -32t-30.5 -75z" />
<glyph unicode="&#xf0;" horiz-adv-x="647" d="M-90 92q6 -49 65 -100q35 -31 93 -23q135 18 204 70q100 76 193 211q61 92 88 217q18 80 -6 254q-27 205 -158 387l213 141l-18 27l-213 -139q-170 225 -203 219q-14 -2 -12 -17q41 -61 78.5 -119.5t76.5 -113.5l-231 -152l18 -32l236 153q129 -215 131 -407q2 -16 1 -35 t-3 -39q-29 35 -78 35q-18 0 -29 -2q-53 -8 -84.5 -15.5t-42.5 -11.5q-59 -35 -102 -64.5t-66 -52.5q-96 -96 -135 -184q-35 -82 -16 -207zM6 61q-12 88 158 326q137 191 225 203q53 8 64 -53q14 -96 -127 -308q-137 -205 -244 -221q-66 -8 -76 53z" />
<glyph unicode="&#xf1;" horiz-adv-x="790" d="M-248 -53q59 59 76 59q10 0 35.5 -8t40.5 -8q27 0 82 92q16 29 31.5 59.5t31.5 61.5q33 53 70 105t82 106q125 143 205 143q31 0 30 -18q0 -16 -28 -62l-170 -260q-47 -72 -43 -125q8 -123 118 -123q92 0 207 123q147 164 225.5 252t90.5 102l-17 15l-301 -332 q-111 -123 -170 -123q-43 0 -43 37q0 10 37 70l190 297q39 59 39 110q0 94 -94 94q-111 0 -307 -172l104 197q-8 -2 -41 -33q-27 -27 -34 -26q-10 0 -33 8t-39 8q-35 0 -61 -49zM178 778q0 -14 21 -14q4 0 45 49q39 49 82 49q41 0 120 -39q86 -37 127 -37q57 0 117 66 t60 125q0 16 -21 16q-8 0 -47 -51q-41 -49 -80 -49q-37 0 -123 37q-84 39 -125 39q-59 0 -118 -66q-57 -63 -58 -125z" />
<glyph unicode="&#xf2;" horiz-adv-x="755" d="M-102 160q0 -37 11 -71t32.5 -59.5t49 -42t62.5 -16.5q125 0 256 97q96 76 150 159q61 18 92 31q182 102 252 188l-17 15q-66 -63 -127 -108.5t-120 -71.5q-43 -20 -62 -23q10 23 18.5 41t12.5 29q18 45 18 94q0 78 -45 135t-121 57q-176 0 -319 -141 q-143 -137 -143 -313zM14 66q0 109 119 309q125 215 221 215q49 0 49 -51q0 -106 -79 -275q-63 10 -78 62q55 6 55 41q0 43 -43 43q-63 0 -63 -66q0 -63 112 -100q-147 -246 -254 -246q-39 0 -39 68zM168 1008q0 -57 80 -168q84 -109 125 -109q14 0 14 14q0 6 -20 33 q-74 92 -74 170v27q0 18 2 43q0 72 -55 72q-72 0 -72 -82z" />
<glyph unicode="&#xf3;" horiz-adv-x="755" d="M-102 160q0 -37 11 -71t32.5 -59.5t49 -42t62.5 -16.5q125 0 256 97q96 76 150 159q61 18 92 31q182 102 252 188l-17 15q-66 -63 -127 -108.5t-120 -71.5q-43 -20 -62 -23q10 23 18.5 41t12.5 29q18 45 18 94q0 78 -45 135t-121 57q-176 0 -319 -141 q-143 -137 -143 -313zM14 66q0 109 119 309q125 215 221 215q49 0 49 -51q0 -106 -79 -275q-63 10 -78 62q55 6 55 41q0 43 -43 43q-63 0 -63 -66q0 -63 112 -100q-147 -246 -254 -246q-39 0 -39 68zM401 731q1 -14 19 -14q35 0 147 69q188 115 189 218q0 61 -62 61 q-45 0 -82 -96q-20 -53 -41 -80q-14 -25 -102 -74q-68 -41 -68 -84z" />
<glyph unicode="&#xf4;" horiz-adv-x="755" d="M-102 160q0 -37 11 -71t32.5 -59.5t49 -42t62.5 -16.5q125 0 256 97q96 76 150 159q61 18 92 31q182 102 252 188l-17 15q-66 -63 -127 -108.5t-120 -71.5q-43 -20 -62 -23q10 23 18.5 41t12.5 29q18 45 18 94q0 78 -45 135t-121 57q-176 0 -319 -141 q-143 -137 -143 -313zM14 66q0 109 119 309q125 215 221 215q49 0 49 -51q0 -106 -79 -275q-63 10 -78 62q55 6 55 41q0 43 -43 43q-63 0 -63 -66q0 -63 112 -100q-147 -246 -254 -246q-39 0 -39 68zM104 788q0 -18 23 -18q29 0 123 51l239 127q18 -35 29 -57 q61 -125 86 -125q16 0 17 22q0 4 -7 27l-67 244q-6 23 -27 22q-2 0 -129 -90q-70 -47 -106.5 -73.5t-45 -30.5t-22.5 -13.5t-37 -23.5q-76 -45 -76 -62z" />
<glyph unicode="&#xf5;" horiz-adv-x="755" d="M-102 160q0 -37 11 -71t32.5 -59.5t49 -42t62.5 -16.5q125 0 256 97q96 76 150 159q61 18 92 31q182 102 252 188l-17 15q-66 -63 -127 -108.5t-120 -71.5q-43 -20 -62 -23q10 23 18.5 41t12.5 29q18 45 18 94q0 78 -45 135t-121 57q-176 0 -319 -141 q-143 -137 -143 -313zM14 66q0 109 119 309q125 215 221 215q49 0 49 -51q0 -106 -79 -275q-63 10 -78 62q55 6 55 41q0 43 -43 43q-63 0 -63 -66q0 -63 112 -100q-147 -246 -254 -246q-39 0 -39 68zM178 778q0 -14 21 -14q4 0 45 49q39 49 82 49q41 0 120 -39 q86 -37 127 -37q57 0 117 66t60 125q0 16 -21 16q-8 0 -47 -51q-41 -49 -80 -49q-37 0 -123 37q-84 39 -125 39q-59 0 -118 -66q-57 -63 -58 -125z" />
<glyph unicode="&#xf6;" horiz-adv-x="755" d="M-102 160q0 -37 11 -71t32.5 -59.5t49 -42t62.5 -16.5q125 0 256 97q96 76 150 159q61 18 92 31q182 102 252 188l-17 15q-66 -63 -127 -108.5t-120 -71.5q-43 -20 -62 -23q10 23 18.5 41t12.5 29q18 45 18 94q0 78 -45 135t-121 57q-176 0 -319 -141 q-143 -137 -143 -313zM14 66q0 109 119 309q125 215 221 215q49 0 49 -51q0 -106 -79 -275q-63 10 -78 62q55 6 55 41q0 43 -43 43q-63 0 -63 -66q0 -63 112 -100q-147 -246 -254 -246q-39 0 -39 68zM227 815q0 -33 22.5 -56.5t55.5 -23.5q41 0 71 37t30 80q0 31 -22 50.5 t-52 19.5q-43 0 -74 -32t-31 -75zM514 815q0 -33 22.5 -56.5t55.5 -23.5q41 0 70.5 37t29.5 80q0 31 -21.5 50.5t-52.5 19.5q-43 0 -73.5 -32t-30.5 -75z" />
<glyph unicode="&#xf7;" horiz-adv-x="1705" d="M254 569h1198v82h-1198v-82zM756 264q0 -41 28.5 -69.5t69.5 -28.5t69.5 28.5t28.5 69.5t-28.5 71t-69.5 30t-69.5 -30t-28.5 -71zM756 956q0 -41 28.5 -70.5t69.5 -29.5t69.5 29.5t28.5 70.5t-28.5 70t-69.5 29t-69.5 -29t-28.5 -70z" />
<glyph unicode="&#xf8;" horiz-adv-x="571" d="M-102 160q0 -117 90 -170l-21 -39l49 -33l31 53h6q123 -2 256 97q109 84 160 168q12 29 21.5 52t17.5 40q18 45 18 94q0 119 -90 172l33 45l-51 33l-41 -58h-17q-176 0 -319 -141q-143 -137 -143 -313zM14 66q0 109 119 309q125 215 221 215h8l-346 -553q-2 8 -2 29z M63 -2l340 543v-2q2 -104 -79 -277q-152 -252 -261 -264z" />
<glyph unicode="&#xf9;" horiz-adv-x="851" d="M-145 72q0 -45 29.5 -73t74.5 -28q74 0 125 39q33 25 125 131q16 -170 121 -170q141 0 336 191q63 63 120.5 133.5t110.5 150.5l-16 15q-47 -66 -101.5 -131.5t-115.5 -128.5q-176 -182 -267 -183q-53 0 -53 41q0 31 33 91l260 489q-12 -4 -39 -30.5t-35 -26.5 q-12 0 -36.5 7t-37.5 7q-33 0 -47 -27l-159 -284q-16 -29 -43 -68t-66 -86q-94 -119 -131 -119q-51 0 -51 54q0 41 35 114l243 459q-10 -4 -36.5 -30.5t-36.5 -26.5q-12 0 -36 7t-32 7q-39 0 -55 -29l-152 -278q-68 -123 -67 -217zM209 1008q0 -57 80 -168q84 -109 125 -109 q14 0 14 14q0 6 -20 33q-74 92 -74 170v27q0 18 2 43q0 72 -55 72q-72 0 -72 -82z" />
<glyph unicode="&#xfa;" horiz-adv-x="851" d="M-145 72q0 -45 29.5 -73t74.5 -28q74 0 125 39q33 25 125 131q16 -170 121 -170q141 0 336 191q63 63 120.5 133.5t110.5 150.5l-16 15q-47 -66 -101.5 -131.5t-115.5 -128.5q-176 -182 -267 -183q-53 0 -53 41q0 31 33 91l260 489q-12 -4 -39 -30.5t-35 -26.5 q-12 0 -36.5 7t-37.5 7q-33 0 -47 -27l-159 -284q-16 -29 -43 -68t-66 -86q-94 -119 -131 -119q-51 0 -51 54q0 41 35 114l243 459q-10 -4 -36.5 -30.5t-36.5 -26.5q-12 0 -36 7t-32 7q-39 0 -55 -29l-152 -278q-68 -123 -67 -217zM401 731q1 -14 19 -14q35 0 147 69 q188 115 189 218q0 61 -62 61q-45 0 -82 -96q-20 -53 -41 -80q-14 -25 -102 -74q-68 -41 -68 -84z" />
<glyph unicode="&#xfb;" horiz-adv-x="851" d="M-145 72q0 -45 29.5 -73t74.5 -28q74 0 125 39q33 25 125 131q16 -170 121 -170q141 0 336 191q63 63 120.5 133.5t110.5 150.5l-16 15q-47 -66 -101.5 -131.5t-115.5 -128.5q-176 -182 -267 -183q-53 0 -53 41q0 31 33 91l260 489q-12 -4 -39 -30.5t-35 -26.5 q-12 0 -36.5 7t-37.5 7q-33 0 -47 -27l-159 -284q-16 -29 -43 -68t-66 -86q-94 -119 -131 -119q-51 0 -51 54q0 41 35 114l243 459q-10 -4 -36.5 -30.5t-36.5 -26.5q-12 0 -36 7t-32 7q-39 0 -55 -29l-152 -278q-68 -123 -67 -217zM145 788q0 -18 23 -18q29 0 123 51 l239 127q18 -35 29 -57q61 -125 86 -125q16 0 17 22q0 4 -7 27l-67 244q-6 23 -27 22q-2 0 -129 -90q-70 -47 -106.5 -73.5t-45 -30.5t-22.5 -13.5t-37 -23.5q-76 -45 -76 -62z" />
<glyph unicode="&#xfc;" horiz-adv-x="851" d="M-145 72q0 -45 29.5 -73t74.5 -28q74 0 125 39q33 25 125 131q16 -170 121 -170q141 0 336 191q63 63 120.5 133.5t110.5 150.5l-16 15q-47 -66 -101.5 -131.5t-115.5 -128.5q-176 -182 -267 -183q-53 0 -53 41q0 31 33 91l260 489q-12 -4 -39 -30.5t-35 -26.5 q-12 0 -36.5 7t-37.5 7q-33 0 -47 -27l-159 -284q-16 -29 -43 -68t-66 -86q-94 -119 -131 -119q-51 0 -51 54q0 41 35 114l243 459q-10 -4 -36.5 -30.5t-36.5 -26.5q-12 0 -36 7t-32 7q-39 0 -55 -29l-152 -278q-68 -123 -67 -217zM227 815q0 -33 22.5 -56.5t55.5 -23.5 q41 0 71 37t30 80q0 31 -22 50.5t-52 19.5q-43 0 -74 -32t-31 -75zM514 815q0 -33 22.5 -56.5t55.5 -23.5q41 0 70.5 37t29.5 80q0 31 -21.5 50.5t-52.5 19.5q-43 0 -73.5 -32t-30.5 -75z" />
<glyph unicode="&#xfd;" horiz-adv-x="784" d="M-408 -453q0 -70 48.5 -113.5t117.5 -43.5q111 0 207 96q37 39 74 91t72 122q39 76 67.5 131t46.5 92q117 63 185 125q51 47 88 83t61 58q211 199 270 258l-16 15l-270 -254l-142 -135q-41 -35 -79.5 -66t-77.5 -53q143 195 266 426l135 260q-10 -4 -39 -33 q-27 -27 -37 -26q-12 0 -35.5 8t-37.5 8q-31 0 -58 -49l-215 -385q-35 -66 -117 -111q-66 -37 -92 -37q-29 0 -28 58q0 37 32 100l250 467q-6 -2 -37 -33q-27 -27 -36 -26q-12 0 -38 8t-42 8q-31 0 -58 -49l-166 -311q-35 -66 -34 -127q0 -137 108 -138q68 0 201 101 l-86 -172q-221 -72 -330 -136q-158 -96 -158 -217zM-391 -451q0 111 149 199q45 27 124 59.5t192 71.5q-59 -100 -99.5 -161.5t-56.5 -86.5q-125 -168 -223 -168q-86 0 -86 86zM401 731q1 -14 19 -14q35 0 147 69q188 115 189 218q0 61 -62 61q-45 0 -82 -96 q-20 -53 -41 -80q-14 -25 -102 -74q-68 -41 -68 -84z" />
<glyph unicode="&#xff;" horiz-adv-x="784" d="M-408 -453q0 -70 48.5 -113.5t117.5 -43.5q111 0 207 96q37 39 74 91t72 122q39 76 67.5 131t46.5 92q117 63 185 125q51 47 88 83t61 58q211 199 270 258l-16 15l-270 -254l-142 -135q-41 -35 -79.5 -66t-77.5 -53q143 195 266 426l135 260q-10 -4 -39 -33 q-27 -27 -37 -26q-12 0 -35.5 8t-37.5 8q-31 0 -58 -49l-215 -385q-35 -66 -117 -111q-66 -37 -92 -37q-29 0 -28 58q0 37 32 100l250 467q-6 -2 -37 -33q-27 -27 -36 -26q-12 0 -38 8t-42 8q-31 0 -58 -49l-166 -311q-35 -66 -34 -127q0 -137 108 -138q68 0 201 101 l-86 -172q-221 -72 -330 -136q-158 -96 -158 -217zM-391 -451q0 111 149 199q45 27 124 59.5t192 71.5q-59 -100 -99.5 -161.5t-56.5 -86.5q-125 -168 -223 -168q-86 0 -86 86zM227 815q0 -33 22.5 -56.5t55.5 -23.5q41 0 71 37t30 80q0 31 -22 50.5t-52 19.5q-43 0 -74 -32 t-31 -75zM514 815q0 -33 22.5 -56.5t55.5 -23.5q41 0 70.5 37t29.5 80q0 31 -21.5 50.5t-52.5 19.5q-43 0 -73.5 -32t-30.5 -75z" />
<glyph unicode="&#x152;" horiz-adv-x="2469" d="M0 324q0 -150 84 -258q92 -113 240 -113q199 0 399 168q164 137 283 342q55 94 106 250q55 162 55 262q0 35 -6 65q27 2 54.5 3t56.5 1q168 0 381 -36q20 -45 39.5 -89.5t38.5 -87.5q-14 2 -29 3h-27q-201 0 -325 -123q-127 -123 -127 -322q0 -223 155 -342 q141 -111 369 -110q203 0 346 143q147 143 148 344q0 100 -54 170q-57 76 -155 76q-135 0 -248 -111q-115 -109 -115 -242q0 -39 12.5 -73.5t36 -61t55 -42t68.5 -15.5q143 0 205 145q43 102 35 222h-25q0 -111 -31 -193q-53 -145 -184 -145q-63 0 -103 49t-40 114 q0 121 106 222q109 102 228 102q88 0 137 -68q43 -59 43 -149q0 -186 -139 -320q-137 -131 -326 -131q-150 0 -244 129q-86 119 -86 273q0 139 96 258q98 119 236 119q51 0 92 -23q41 -53 82 -47q25 2 25 25q0 20 -35 38q-43 23 -45 29q-33 45 -39 166q129 -47 211 -47 q98 0 182 59q92 64 92 160q0 104 -86 178q-84 68 -188 68q-322 0 -387 -318q-262 31 -381 31q-29 0 -58.5 -1t-58.5 -3q-16 63 -55 115q-70 88 -160 88q-168 0 -324 -211q-143 -199 -143 -375q0 -20 2 -31q-2 -12 -3 -24.5t-1 -26.5q0 -63 33 -127l24 17q-4 10 -16 53 q-2 8 -4 14t-4 10q43 -61 121 -61q137 0 243 137q100 127 101 268q0 55 -27 95q27 6 54.5 12t56.5 10q-20 -231 -219 -590q-100 -180 -209 -299q-160 -176 -301 -176q-80 0 -126 60.5t-46 142.5q0 358 337 829q92 127 162 183q35 29 86 60.5t123 66.5h-86 q-164 -23 -350 -193q-174 -158 -289 -358q-135 -233 -135 -432zM498 735q18 162 151 326q150 190 291 190q115 0 115 -166v-28q-68 -8 -131 -25q-23 23 -54 23q-53 0 -133 -80l8 -8q-186 -95 -247 -232zM500 639q18 162 209 274q92 57 211 88l4 -2q23 -35 22 -86 q0 -104 -88 -231q-102 -152 -233 -152q-102 0 -125 109zM764 975q59 59 106 59q12 0 29 -10q-72 -22 -135 -49zM1823 1020q0 86 80 172q88 94 202 94q74 0 129.5 -50t55.5 -124q0 -98 -80 -149q-70 -45 -170 -45q-111 0 -209 61q-8 14 -8 41z" />
<glyph unicode="&#x153;" horiz-adv-x="1040" d="M-102 160q0 -37 11 -71t32.5 -59.5t49 -42t62.5 -16.5q129 0 256 97l10 8q45 -104 164 -105q147 0 365 199q167 155 239 276l-16 15q-39 -63 -98.5 -132t-145.5 -143q-209 -184 -344 -184q-55 0 -55 76q0 63 37 143q94 0 237 66q186 86 187 215q0 47 -35 79.5t-82 32.5 q-131 0 -264 -100q-45 100 -148 100q-176 0 -319 -141q-143 -137 -143 -313zM14 66q0 109 119 309q125 215 221 215q49 0 49 -51q0 -68 -34 -168q-36 -50 -50 -107q-59 12 -73 62q55 6 55 41q0 43 -43 43q-63 0 -63 -66q0 -63 112 -100q-147 -246 -254 -246q-39 0 -39 68z M485 270q160 317 258 318q43 0 43 -47q0 -72 -112 -172q-115 -98 -189 -99z" />
<glyph unicode="&#x178;" horiz-adv-x="2148" d="M4 1251q0 -119 117 -194q100 -70 225 -70q92 0 170 27q139 47 375 186q6 -78 -14 -164q-41 -109 -66 -155l16 -4q98 158 82 331q180 84 336 84q68 0 124 -22.5t97 -62.5t63.5 -96t22.5 -124q0 -106 -82 -237l-153 -240q-82 -137 -82 -279q0 -102 39 -172q49 -84 143 -84 q74 0 164 84q31 31 127 146q-66 -330 -98 -412q-23 -49 -43 -78q-59 55 -99.5 91t-58.5 53q-113 98 -250 161q-170 80 -346 80q-242 0 -428 -116q-215 -135 -215 -365q0 -227 217 -358q188 -115 426 -115q256 0 461 143q190 137 309 375q537 -508 1038 -508q283 0 480 185 q198 183 198 464q0 215 -143 373q-143 162 -356 162q-152 0 -254 -84q-113 -88 -113 -236q0 -125 80 -206q84 -84 209 -84q20 0 20 22q-281 37 -280 268q0 135 104 216q96 72 234 71q197 0 335 -153q139 -152 140 -349q0 -268 -193 -446q-188 -180 -461 -180 q-350 0 -716 243q-186 125 -312 263q20 33 43 90q72 174 124 299t87 205q152 377 377 663q309 395 612 395q293 0 328 -245l23 -13q6 274 -387 275q-485 0 -897 -670q-16 -29 -53.5 -99.5t-90.5 -185.5q-96 -201 -149 -278q-86 -123 -172 -123t-86 121q0 68 20 137 q35 76 119 205q43 66 72.5 116t46.5 85q55 117 55 225q0 174 -123 297t-297 123q-113 0 -192 -23q-8 -2 -44 -15.5t-102 -37.5q-39 127 -108 194q-106 100 -316 101q-479 0 -479 -275zM18 1251q0 262 465 262q328 1 404 -290q-377 -217 -541 -217q-123 0 -217 61 q-111 70 -111 184zM209 -381q0 223 199 352q170 109 405 109q244 0 461 -143q51 -35 120.5 -94.5t159.5 -147.5q-78 -145 -190 -246q-231 -207 -551 -207q-203 0 -381 88q-223 106 -223 289zM1845 1790q0 -33 22.5 -56.5t55.5 -23.5q41 0 70.5 37t29.5 80q0 31 -21.5 50 t-51.5 19q-43 0 -74 -31.5t-31 -74.5zM2132 1790q0 -33 22.5 -56.5t55.5 -23.5q41 0 70.5 37t29.5 80q0 31 -21.5 50t-52.5 19q-43 0 -73.5 -31.5t-30.5 -74.5z" />
<glyph unicode="&#x2c6;" d="M186 788q0 -18 23 -18q29 0 123 51l239 127q18 -35 29 -57q61 -125 86 -125q16 0 16 22q0 4 -6 27l-67 244q-6 23 -27 22q-2 0 -129 -90q-70 -47 -106.5 -73.5t-45 -30.5t-22.5 -13.5t-37 -23.5q-76 -45 -76 -62z" />
<glyph unicode="&#x2dc;" d="M178 778q0 -14 21 -14q4 0 45 49q39 49 82 49q41 0 120 -39q86 -37 127 -37q57 0 117 66t60 125q0 16 -21 16q-8 0 -47 -51q-41 -49 -80 -49q-37 0 -123 37q-84 39 -125 39q-59 0 -118 -66q-57 -63 -58 -125z" />
<glyph unicode="&#x2000;" horiz-adv-x="1034" />
<glyph unicode="&#x2001;" horiz-adv-x="2068" />
<glyph unicode="&#x2002;" horiz-adv-x="1034" />
<glyph unicode="&#x2003;" horiz-adv-x="2068" />
<glyph unicode="&#x2004;" horiz-adv-x="689" />
<glyph unicode="&#x2005;" horiz-adv-x="517" />
<glyph unicode="&#x2006;" horiz-adv-x="344" />
<glyph unicode="&#x2007;" horiz-adv-x="344" />
<glyph unicode="&#x2008;" horiz-adv-x="258" />
<glyph unicode="&#x2009;" horiz-adv-x="413" />
<glyph unicode="&#x200a;" horiz-adv-x="114" />
<glyph unicode="&#x2010;" horiz-adv-x="548" d="M37 309q0 -12 12 -12q10 0 30.5 7t31.5 7q33 0 104 -12q35 -4 61.5 -7t42.5 -3q88 0 132 45q28 32 28 55q0 12 -8 12q-12 0 -49 -7t-60 -7q-12 0 -32.5 2t-43 5t-44 6t-33.5 3q-47 0 -121 -43q-51 -31 -51 -51z" />
<glyph unicode="&#x2011;" horiz-adv-x="548" d="M37 309q0 -12 12 -12q10 0 30.5 7t31.5 7q33 0 104 -12q35 -4 61.5 -7t42.5 -3q88 0 132 45q28 32 28 55q0 12 -8 12q-12 0 -49 -7t-60 -7q-12 0 -32.5 2t-43 5t-44 6t-33.5 3q-47 0 -121 -43q-51 -31 -51 -51z" />
<glyph unicode="&#x2012;" horiz-adv-x="548" d="M37 309q0 -12 12 -12q10 0 30.5 7t31.5 7q33 0 104 -12q35 -4 61.5 -7t42.5 -3q88 0 132 45q28 32 28 55q0 12 -8 12q-12 0 -49 -7t-60 -7q-12 0 -32.5 2t-43 5t-44 6t-33.5 3q-47 0 -121 -43q-51 -31 -51 -51z" />
<glyph unicode="&#x2013;" horiz-adv-x="847" d="M8 315q0 -10 12 -10l72 19q74 18 129 10l328 -43q8 -2 16 -2h17h6q104 0 219 86q29 23 29 35q0 18 -23 18q-14 0 -41 -14q-47 -25 -102 -25q-47 0 -88 8q-115 20 -190 30.5t-113 10.5q-70 0 -181 -45q-90 -35 -90 -78z" />
<glyph unicode="&#x2014;" horiz-adv-x="1236" d="M49 315q0 -10 12 -10l72 19q29 8 61.5 10t67.5 0l598 -43q10 -2 19 -2h14h6q104 0 219 86q29 23 29 35q0 18 -23 18q-14 0 -41 -14q-47 -25 -102 -25q-49 0 -88 8.5t-118 14.5t-200 14q-213 12 -256 12q-70 0 -180 -45q-90 -35 -90 -78z" />
<glyph unicode="&#x2018;" horiz-adv-x="323" d="M313 1081q0 -37 28 -65.5t65 -28.5q47 0 80.5 39t33.5 86q0 59 -80 100q-14 6 -14 27q0 37 63 82l29 14q12 7 12 17t-18 14q-41 0 -94 -59q-104 -115 -105 -226z" />
<glyph unicode="&#x2019;" horiz-adv-x="323" d="M301 1008q0 -12 18 -15q41 0 95 60q104 112 104 225q0 39 -26.5 66.5t-65.5 27.5q-47 0 -81 -39t-34 -86q0 -61 80 -100q14 -6 15 -27q0 -37 -64 -82l-29 -14q-12 -6 -12 -16z" />
<glyph unicode="&#x201a;" horiz-adv-x="323" d="M301 -133q0 -12 18 -14q41 0 95 59q104 112 104 223q0 39 -26.5 66.5t-65.5 27.5q-47 0 -81 -38.5t-34 -86.5q0 -61 80 -100q14 -2 15 -24q0 -37 -64 -82l-29 -15q-12 -6 -12 -16z" />
<glyph unicode="&#x201c;" horiz-adv-x="446" d="M311 1081q0 -37 28 -65.5t64 -28.5q47 0 81 39t34 86q0 59 -80 100q-14 6 -14 27q0 37 63 82l29 14q12 7 12 17t-18 14q-41 0 -94 -59q-104 -115 -105 -226zM518 1081q0 -37 27.5 -65.5t64.5 -28.5q47 0 81 39t34 86q0 59 -80 100q-14 6 -14 27q0 37 63 82l29 14 q12 7 12 17t-18 14q-41 0 -94 -59q-104 -115 -105 -226z" />
<glyph unicode="&#x201d;" horiz-adv-x="446" d="M260 1008q0 -12 19 -15q41 0 94 60q104 112 104 225q0 39 -26.5 66.5t-65.5 27.5q-47 0 -81 -39t-34 -86q0 -61 80 -100q14 -6 15 -27q0 -37 -64 -82l-29 -14q-12 -6 -12 -16zM467 1008q0 -12 18 -15q41 0 95 60q104 112 104 225q0 39 -26.5 66.5t-65.5 27.5 q-47 0 -81 -39t-34 -86q0 -61 80 -100q14 -6 14 -27q0 -37 -63 -82l-29 -14q-12 -6 -12 -16z" />
<glyph unicode="&#x201e;" horiz-adv-x="446" d="M260 -133q0 -12 19 -14q41 0 94 59q104 112 104 223q0 39 -26.5 66.5t-65.5 27.5q-47 0 -81 -38.5t-34 -86.5q0 -61 80 -100q14 -2 15 -24q0 -37 -64 -82l-29 -15q-12 -6 -12 -16zM467 -133q0 -12 18 -14q41 0 95 59q104 112 104 223q0 39 -26.5 66.5t-65.5 27.5 q-47 0 -81 -38.5t-34 -86.5q0 -61 80 -100q14 -2 14 -24q0 -37 -63 -82l-29 -15q-12 -6 -12 -16z" />
<glyph unicode="&#x2022;" horiz-adv-x="524" d="M51 477q0 -55 38 -96t93 -41q115 0 211 129q90 121 90 240q0 113 -110 112q-102 0 -213 -121q-109 -121 -109 -223z" />
<glyph unicode="&#x2026;" horiz-adv-x="1228" d="M86 82q0 -100 86 -100q47 0 83 36.5t36 83.5q0 102 -86 103q-47 0 -83 -38t-36 -85zM496 82q0 -100 86 -100q47 0 82.5 36.5t35.5 83.5q0 102 -86 103q-47 0 -82.5 -38t-35.5 -85zM905 82q0 -100 86 -100q47 0 83 36.5t36 83.5q0 102 -86 103q-47 0 -83 -38t-36 -85z" />
<glyph unicode="&#x202f;" horiz-adv-x="413" />
<glyph unicode="&#x2039;" horiz-adv-x="1767" d="M117 532q0 -135 125 -217q106 -70 250 -69q121 0 368 125q250 127 354 127q119 0 216 -78q94 -76 94 -197q0 -80 -45 -137q-49 -63 -127 -63q-74 0 -162 36l-8 -22q94 -37 170 -37q49 0 91 19.5t71.5 52t46 78t16.5 96.5q0 141 -115 213q-98 61 -248 61q-111 0 -364 -127 q-248 -125 -358 -125q-123 0 -217.5 82t-94.5 203q0 96 72 152q63 51 164 51q90 0 166 -47q82 -55 82 -144q0 -68 -48.5 -113.5t-115.5 -45.5q-100 0 -101 75q0 14 7 31q35 31 63 41q-4 53 -43 53q-45 0 -76 -30.5t-31 -75.5q0 -63 52 -97q45 -31 108 -30q86 0 146.5 53 t60.5 139q0 100 -90 160q-78 53 -182 53q-297 0 -297 -246z" />
<glyph unicode="&#x203a;" horiz-adv-x="1767" d="M160 246q0 -51 16.5 -96.5t46 -78t71.5 -52t91 -19.5q74 0 170 37l-8 22q-90 -37 -162 -36q-78 0 -127 63q-45 57 -45 137q0 121 94 197q96 78 215 78q104 0 355 -127q248 -125 368 -125q143 0 250 69q125 82 125 217q0 246 -297 246q-104 0 -182 -53q-90 -59 -90 -160 q0 -86 60 -139t146 -53q63 0 111.5 32.5t48.5 94.5q0 45 -30.5 75.5t-75.5 30.5q-39 0 -43 -53q70 -20 69 -72q0 -76 -100 -75q-68 0 -116 46t-48 113q0 88 82 144q76 47 166 47q98 0 166.5 -52.5t68.5 -150.5q0 -121 -94 -203t-217 -82q-111 0 -360 125q-250 127 -363 127 q-152 0 -246 -61q-117 -72 -116 -213z" />
<glyph unicode="&#x205f;" horiz-adv-x="517" />
<glyph unicode="&#x2122;" horiz-adv-x="1683" d="M254 1257h22q16 152 144 152h22v-426q0 -55 -49 -55h-33v-25h242v25h-31q-49 0 -49 55v426h23q127 0 143 -152h23l-11 175h-436zM801 903h198v25h-30q-49 0 -49 55v403l174 -487h8l186 490v-406q0 -55 -49 -55h-31v-25h228v25h-31q-49 0 -49 55v369q0 55 49 55h31v25 h-162l-158 -414l-145 414h-170v-25h30q49 0 50 -57v-367q0 -57 -50 -57h-30v-23z" />
<glyph unicode="&#xe000;" horiz-adv-x="675" d="M0 0v676h676v-676h-676z" />
</font>
</defs>
</svg>
